<?xml version="1.0" encoding="utf-8"?>
<!-- Generator: Adobe Illustrator 15.0.0, SVG Export Plug-In . SVG Version: 6.00 Build 0)  -->
<!DOCTYPE svg PUBLIC "-//W3C//DTD SVG 1.1//EN" "http://www.w3.org/Graphics/SVG/1.1/DTD/svg11.dtd">
<svg version="1.1" id="Layer_1" xmlns="http://www.w3.org/2000/svg" xmlns:xlink="http://www.w3.org/1999/xlink" x="0px" y="0px"
	 width="567.758px" height="135.373px" viewBox="14.252 353.095 567.758 135.373"
	 enable-background="new 14.252 353.095 567.758 135.373" xml:space="preserve">
<g>
	<polygon fill="#ADA381" points="99.495,372.426 114.949,387.88 114.949,449.751 99.495,434.297 	"/>
	<polygon fill="#ADA381" points="78.198,353.095 93.653,368.549 93.653,430.42 78.198,414.966 	"/>
	<polygon fill="#D9CEA8" points="120.792,449.751 136.246,434.297 136.246,372.426 120.792,387.88 	"/>
	<polygon fill="#D9CEA8" points="99.495,469.137 114.949,453.628 114.949,391.757 99.495,407.211 	"/>
	<polygon fill="#D9CEA8" points="78.198,488.468 93.653,472.959 93.653,411.088 78.198,426.542 	"/>
	<polygon fill="#D9CEA8" points="51.058,372.426 35.55,387.88 35.55,449.751 51.058,434.297 	"/>
	<polygon fill="#D9CEA8" points="72.356,353.095 56.847,368.549 56.847,430.42 72.356,414.966 	"/>
	<polygon fill="#ADA381" points="29.706,449.751 14.252,434.297 14.252,372.426 29.706,387.88 	"/>
	<polygon fill="#ADA381" points="51.058,469.137 35.55,453.628 35.55,391.757 51.058,407.211 	"/>
	<polygon fill="#ADA381" points="72.356,488.468 56.847,472.959 56.847,411.088 72.356,426.542 	"/>
	<polygon fill="#D9CEA8" points="29.706,391.757 14.252,407.211 14.252,469.137 29.706,453.628 	"/>
	<polygon fill="#ADA381" points="120.792,391.757 136.246,407.211 136.246,469.137 120.792,453.628 	"/>
	<g>
		<g>
			<path fill="#D9CEA8" d="M181.789,397.491h-19.276v10.32v3.932c0.055,0.383,0.164,0.655,0.328,0.874
				c0.163,0.219,0.437,0.383,0.764,0.438c0.383,0.054,0.71,0.054,1.093,0.108c0.327,0.055,0.71,0.055,1.092,0.055
				c0.328,0.055,0.71,0.055,1.038,0.055c0.327,0,0.71,0,1.037,0v2.021h-15.945v-2.075h1.256c1.966,0.055,3.112-0.109,3.495-0.382
				c0.382-0.273,0.546-1.201,0.546-2.676v-2.349v-21.733v-3.932c-0.055-0.328-0.109-0.601-0.328-0.819
				c-0.163-0.219-0.437-0.328-0.818-0.382c-0.328-0.055-0.71-0.055-1.038-0.109c-0.382-0.055-0.71-0.055-1.037-0.055
				c-0.383-0.054-0.71-0.054-1.093-0.054c-0.327,0-0.71,0-1.092,0v-2.13h15.945v2.075h-1.201c-0.929,0.055-1.747,0.109-2.457,0.218
				s-1.147,0.218-1.256,0.382c-0.055,0.109-0.109,0.218-0.164,0.382c-0.055,0.164-0.109,0.328-0.109,0.546v3.877v8.901h19.276
				v-8.901v-2.294c0-1.474-0.164-2.348-0.546-2.621c-0.382-0.273-1.529-0.437-3.495-0.437l-1.256-0.055v-2.075h15.945v2.075h-1.311
				c-0.928,0.055-1.747,0.109-2.457,0.218s-1.146,0.218-1.256,0.382c-0.055,0.109-0.109,0.218-0.164,0.382
				c-0.055,0.164-0.109,0.328-0.109,0.546v3.877v21.788v2.294c0,1.529,0.164,2.457,0.546,2.73c0.383,0.272,1.529,0.437,3.44,0.437
				l1.311-0.055v2.075h-15.945v-2.075h1.256c1.911,0.055,3.113-0.109,3.495-0.382c0.382-0.273,0.601-1.201,0.601-2.676v-2.349
				v-10.375H181.789z"/>
			<path fill="#D9CEA8" d="M213.243,377.887c4.97,0.055,9.175,1.911,12.669,5.625c3.495,3.713,5.243,8.191,5.243,13.434
				c0,5.297-1.748,9.83-5.243,13.488c-3.494,3.659-7.699,5.516-12.724,5.516c-4.969,0-9.229-1.856-12.778-5.516
				c-3.494-3.658-5.297-8.136-5.297-13.379c0-5.351,1.748-9.884,5.243-13.597C203.906,379.798,208.22,377.941,213.243,377.887
				L213.243,377.887z M213.08,380.18c-3.878,0.055-6.826,1.42-8.792,4.15s-2.949,6.826-2.949,12.287
				c0,5.788,0.983,10.103,3.004,12.997c1.966,2.894,4.969,4.368,8.9,4.368c3.823,0,6.662-1.42,8.683-4.205
				c1.966-2.839,3.004-6.88,2.949-12.286c0-5.789-0.983-10.103-2.949-12.997C220.015,381.655,217.067,380.235,213.08,380.18
				L213.08,380.18z"/>
			<path fill="#D9CEA8" d="M259.77,380.672v-2.075h13.815v2.075c-2.348,0.218-3.877,0.71-4.423,1.529
				c-0.601,0.819-0.874,2.84-0.874,6.007v10.867c0,2.895-0.109,5.079-0.327,6.554c-0.219,1.474-0.602,2.784-1.147,3.932
				c-0.055,0.055-0.055,0.109-0.109,0.163c-0.054,0.055-0.054,0.109-0.108,0.164c-1.311,2.294-3.059,3.877-5.352,4.696
				c-2.294,0.819-4.696,1.256-7.209,1.311c-0.055,0-0.055,0-0.108,0c-0.055,0-0.109,0-0.164,0c-3.44,0-6.335-0.601-8.683-1.802
				c-2.349-1.201-3.932-2.895-4.806-5.078c-0.328-0.983-0.601-2.075-0.71-3.277c-0.164-1.201-0.219-2.839-0.219-4.914v-14.744
				v-2.294c0-0.928,0-1.583,0-1.856s-0.109-0.491-0.218-0.601l0,0l0,0c-0.055-0.055-0.164-0.109-0.328-0.219
				c-0.164-0.054-0.327-0.109-0.491-0.164c-0.328-0.055-0.655-0.109-1.038-0.109c-0.327,0-0.71-0.055-1.037-0.055
				c-0.382,0-0.71,0-1.092,0c-0.328,0-0.71,0-1.093,0v-2.129h15.945v2.075h-1.256c-1.037,0.054-1.856,0.109-2.512,0.218
				s-1.092,0.218-1.256,0.382c-0.055,0.109-0.109,0.218-0.164,0.382c-0.055,0.164-0.109,0.328-0.109,0.546v3.877v14.908
				c0,2.622,0.164,4.533,0.438,5.789c0.327,1.256,0.873,2.402,1.747,3.386c0.929,1.037,2.075,1.802,3.44,2.293
				c1.365,0.547,2.895,0.819,4.642,0.819c2.185,0,4.041-0.382,5.68-1.146c1.583-0.765,2.784-1.802,3.604-3.222
				c0.109-0.164,0.219-0.328,0.273-0.492c0.055-0.163,0.163-0.327,0.218-0.491c0.492-0.982,0.819-2.075,0.983-3.331
				s0.219-3.003,0.219-5.352v-11.085c0-3.112-0.328-5.079-1.038-5.897c-0.655-0.874-2.293-1.365-4.915-1.583v-0.055H259.77z"/>
			<path fill="#D9CEA8" d="M301.708,378.597v13.106h-1.583c-0.055-0.164-0.164-0.382-0.219-0.601
				c-0.055-0.219-0.109-0.437-0.219-0.655c-0.874-2.567-2.13-4.915-3.768-7.044c-1.639-2.13-4.041-3.167-7.1-3.167
				c-2.075,0-3.768,0.601-5.078,1.748c-1.311,1.146-1.966,2.621-1.966,4.423c0,2.184,0.874,3.713,2.676,4.532
				c1.802,0.874,3.822,1.583,6.171,2.185c0.327,0.054,0.655,0.164,1.037,0.218c0.328,0.109,0.655,0.164,1.038,0.273
				c2.73,0.765,5.188,1.802,7.48,3.222c2.294,1.42,3.386,3.932,3.386,7.59c0,3.386-1.092,6.171-3.331,8.301
				c-2.238,2.13-5.133,3.167-8.683,3.167c-1.856,0-3.549-0.272-5.023-0.765c-1.475-0.546-2.895-1.365-4.314-2.566
				c-0.109-0.109-0.272-0.272-0.382-0.327c-0.109-0.109-0.273-0.219-0.383-0.383l-2.348,3.386h-1.747v-14.089h1.747
				c0,0.055,0,0.109,0,0.164s0.055,0.109,0.055,0.164c0.874,3.112,2.293,5.952,4.205,8.519c1.911,2.566,4.75,3.877,8.409,3.877
				c2.348,0,4.26-0.601,5.733-1.911c1.475-1.256,2.239-2.84,2.239-4.806c0-2.402-0.982-4.096-2.895-5.078
				c-1.911-0.983-4.095-1.802-6.553-2.457c-0.218-0.055-0.491-0.164-0.765-0.219c-0.272-0.055-0.491-0.109-0.71-0.219
				c-2.73-0.765-5.188-1.856-7.48-3.167c-2.294-1.311-3.386-3.713-3.386-7.208c0-3.112,1.037-5.679,3.058-7.809
				c2.021-2.13,4.532-3.167,7.481-3.167c1.092,0,2.13,0.109,3.058,0.273c0.929,0.164,1.857,0.492,2.73,0.929
				c0.601,0.273,1.146,0.601,1.748,1.038c0.601,0.382,1.201,0.874,1.856,1.365l2.185-3.004h1.638V378.597z"/>
			<path fill="#D9CEA8" d="M338.896,378.597l0.601,12.997h-1.692c-0.71-3.604-1.802-6.334-3.222-8.137
				c-1.42-1.802-4.15-2.73-8.191-2.73l-4.86-0.055c-1.583,0.055-2.566,0.164-2.894,0.382c-0.328,0.218-0.492,0.928-0.492,2.075
				v12.123c3.113,0.055,5.625-0.273,7.536-0.928s3.112-2.676,3.714-6.171l1.911-0.054v16.874h-1.911
				c-0.219-3.659-1.365-5.789-3.386-6.499s-4.642-1.037-7.864-1.092v13.543c0,1.146,0.164,1.856,0.438,2.075
				c0.327,0.218,1.146,0.327,2.566,0.327l6.116-0.055c2.021,0.055,3.495-0.055,4.532-0.327c0.982-0.273,1.911-0.765,2.676-1.529
				c1.201-1.146,2.075-2.457,2.621-3.986c0.546-1.475,1.037-3.059,1.42-4.642c0.055-0.164,0.055-0.328,0.109-0.491
				c0.055-0.164,0.109-0.328,0.109-0.547c0-0.055,0-0.055,0-0.108c0-0.055,0-0.109,0-0.109l1.692-0.055l-0.382,13.87h-32.547v-2.075
				h1.256c1.093,0.055,1.966,0,2.621-0.109c0.655-0.108,1.038-0.218,1.147-0.437c0.055-0.055,0.109-0.164,0.163-0.328
				c0.055-0.163,0.109-0.382,0.109-0.546v-3.986v-21.788v-3.932c-0.055-0.164-0.055-0.328-0.109-0.491
				c-0.054-0.164-0.108-0.273-0.163-0.382c-0.164-0.164-0.438-0.328-0.874-0.382c-0.437-0.109-1.42-0.164-2.895-0.164l-1.256-0.055
				v-2.075H338.896z"/>
		</g>
	</g>
	<g>
		<path fill="#ADA381" d="M360.957,391.976c-3.986,0.437-4.478,6.607-4.532,7.481s0.328,4.205,2.676,4.205
			c2.349,0,4.587-3.659,4.751-7.646C363.961,392.03,360.957,391.976,360.957,391.976z"/>
		<path fill="#ADA381" d="M366.91,377.996c-10.321,0-18.677,8.355-18.677,18.676c0,10.321,8.355,18.676,18.677,18.676
			c10.32,0,18.676-8.354,18.676-18.676C385.586,386.351,377.231,377.996,366.91,377.996z M381.108,385.423l-2.402-1.693
			C380.999,383.675,381.108,385.423,381.108,385.423z M358.828,404.699c-3.604,0-5.079-2.676-5.079-5.461
			c0-2.73,1.639-7.973,7.372-8.355c0,0,5.134-0.382,5.242,5.133C366.473,401.587,362.432,404.699,358.828,404.699z M379.251,387.935
			c0,0-0.655-1.256-2.293-1.256c-1.584,0-2.73,1.201-3.223,4.532h3.823l-0.164,1.092h-3.877l-2.021,11.195
			c0,0-0.219,6.553-6.226,6.225l0.109-0.546c0,0,2.512-0.272,3.276-4.041c0.765-3.768,2.348-12.833,2.348-12.833l-2.074-0.055
			l0.272-1.146h2.021c0,0-0.055-5.625,6.226-5.625c2.075,0,2.621,1.256,2.676,1.748L379.251,387.935z"/>
	</g>
	<g>
		<path fill="#D9CEA8" d="M416.112,396.18c0.055,0.055,0.055,0.055,0.109,0.055s0.055,0,0.109,0.055
			c1.966,0.273,3.768,0.71,5.352,1.256c1.638,0.546,3.003,1.747,4.096,3.549c0.437,0.655,0.765,1.42,0.982,2.185
			c0.219,0.765,0.328,1.584,0.328,2.403c0,3.112-1.093,5.352-3.331,6.716c-2.185,1.365-4.642,2.294-7.263,2.622
			c-0.819,0.108-1.639,0.218-2.403,0.272c-0.819,0.055-1.584,0.055-2.293,0.055h-18.677v-2.075h1.257
			c1.911,0.055,3.112-0.109,3.494-0.382c0.383-0.328,0.601-1.201,0.601-2.621v-2.349v-21.843v-2.294c0-0.928,0-1.583,0-1.856
			s-0.108-0.491-0.218-0.655l0,0l0,0c-0.055-0.055-0.055-0.055-0.109-0.055s-0.109-0.055-0.164-0.055
			c-0.219-0.109-0.546-0.164-1.092-0.273c-0.492-0.055-1.311-0.109-2.458-0.109l-1.256-0.054v-2.075h15.837
			c2.785,0.055,4.969,0.164,6.498,0.382c1.584,0.218,3.004,0.546,4.26,1.092c1.638,0.71,3.003,1.748,3.986,3.113
			c0.982,1.365,1.528,2.84,1.528,4.423c0,2.293-0.873,4.259-2.566,5.897C421.027,395.088,418.842,396.017,416.112,396.18
			L416.112,396.18z M403.716,397.546v10.32l-0.055,1.856l0.055,1.748c0,0.655,0.108,1.146,0.327,1.365s0.71,0.382,1.365,0.382h2.294
			c0.655,0.055,1.311,0.055,1.911,0.055c0.655,0,1.311,0,1.911-0.055s1.256-0.055,1.856-0.109c0.655-0.054,1.311-0.108,1.911-0.218
			c1.911-0.328,3.331-1.093,4.314-2.294c0.982-1.256,1.475-2.894,1.475-4.969c0-0.109,0-0.219,0-0.328s0-0.219,0-0.382
			c-0.109-1.202-0.438-2.403-0.983-3.495s-1.365-1.911-2.566-2.457c-0.109-0.055-0.219-0.109-0.328-0.164
			c-0.108-0.055-0.218-0.109-0.382-0.164c-0.929-0.382-1.966-0.655-3.167-0.765s-3.059-0.164-5.625-0.164h-4.313V397.546z
			 M403.716,395.252h5.023c2.84,0.055,5.352-0.328,7.536-1.038s3.331-2.839,3.331-6.28c0-2.621-0.71-4.478-2.13-5.57
			c-1.42-1.147-3.768-1.693-7.099-1.693l-3.386-0.055c-1.529,0.055-2.458,0.164-2.785,0.328c-0.328,0.164-0.491,0.765-0.491,1.693
			v1.365V395.252L403.716,395.252z"/>
		<path fill="#D9CEA8" d="M452.098,377.887c4.97,0.055,9.175,1.911,12.669,5.625c3.495,3.713,5.243,8.191,5.243,13.434
			c0,5.297-1.748,9.83-5.243,13.488c-3.494,3.659-7.699,5.516-12.724,5.516c-4.969,0-9.229-1.856-12.777-5.516
			c-3.495-3.658-5.298-8.136-5.298-13.379c0-5.351,1.748-9.884,5.243-13.597C442.76,379.798,447.074,377.941,452.098,377.887
			L452.098,377.887z M451.935,380.18c-3.933,0.055-6.826,1.42-8.792,4.15s-2.949,6.826-2.949,12.287
			c0,5.788,0.983,10.103,2.949,12.997c1.966,2.894,4.969,4.368,8.9,4.368c3.823,0,6.717-1.42,8.683-4.205
			c1.967-2.839,3.004-6.88,3.004-12.286c0-5.789-0.983-10.103-2.949-12.997C458.869,381.655,455.921,380.235,451.935,380.18
			L451.935,380.18z M446.91,369.368c0.819,0.054,1.529,0.328,2.075,0.928c0.601,0.601,0.874,1.256,0.874,2.075
			c0,0.819-0.273,1.529-0.874,2.075c-0.601,0.546-1.256,0.874-2.075,0.874s-1.529-0.273-2.075-0.874
			c-0.601-0.601-0.873-1.256-0.873-2.129c0-0.819,0.272-1.529,0.873-2.075C445.381,369.641,446.091,369.368,446.91,369.368z
			 M457.177,369.368c0.819,0.054,1.528,0.328,2.075,0.928c0.546,0.601,0.873,1.256,0.873,2.075c0,0.819-0.272,1.529-0.873,2.075
			c-0.601,0.546-1.256,0.874-2.075,0.874s-1.529-0.273-2.075-0.874c-0.601-0.601-0.874-1.256-0.874-2.129
			c0-0.819,0.273-1.529,0.874-2.075C455.702,369.641,456.358,369.368,457.177,369.368z"/>
		<path fill="#D9CEA8" d="M495.239,396.781c1.911,0.382,3.386,0.819,4.314,1.311c0.928,0.491,1.692,1.256,2.348,2.185
			c0.437,0.655,0.765,1.474,1.146,2.457c0.328,0.982,0.71,2.021,1.038,3.058c0.055,0.273,0.163,0.547,0.218,0.765
			c0.109,0.273,0.164,0.491,0.219,0.765c0.491,1.42,0.929,2.621,1.42,3.604c0.437,1.037,0.982,1.528,1.475,1.528
			c0.601,0,1.037-0.382,1.365-1.092c0.327-0.71,0.601-2.075,0.819-4.041l1.802-0.055c0,0.164,0,0.219,0,0.328
			c0,0.055,0,0.163,0,0.272c-0.164,2.021-0.601,3.877-1.365,5.57c-0.765,1.638-2.403,2.512-5.024,2.512
			c-1.092,0-2.075-0.218-3.003-0.601c-0.929-0.382-1.584-0.982-2.13-1.747c-0.601-0.819-0.983-1.693-1.256-2.621
			c-0.273-0.929-0.437-1.857-0.546-2.73c-0.055-0.383-0.109-0.71-0.164-1.093c-0.055-0.327-0.055-0.655-0.055-1.037
			c-0.219-2.349-0.765-4.369-1.692-6.116c-0.929-1.747-3.604-2.621-8.027-2.621l-2.403-0.055v10.43v3.933
			c0.055,0.382,0.164,0.655,0.328,0.873c0.163,0.219,0.437,0.383,0.765,0.438c0.764,0.108,1.583,0.163,2.348,0.163s1.584,0,2.349,0
			v2.021h-16.383v-2.075h1.256c1.966,0.055,3.112-0.108,3.495-0.382c0.382-0.273,0.546-1.201,0.546-2.676v-2.348v-21.625v-3.877
			c-0.055-0.328-0.164-0.601-0.327-0.874c-0.164-0.219-0.438-0.382-0.819-0.382c-0.328-0.055-0.71-0.055-1.038-0.109
			c-0.382-0.055-0.71-0.055-1.037-0.055c-0.383-0.054-0.71-0.054-1.093-0.054c-0.327,0-0.709,0-1.092,0v-2.13h16.383
			c0.873,0.055,1.747,0.055,2.73,0.109c0.982,0.055,1.966,0.164,2.948,0.273c2.621,0.328,5.024,1.146,7.153,2.403
			c2.185,1.256,3.277,3.386,3.277,6.389c0,1.638-0.492,3.167-1.42,4.478c-0.929,1.311-2.239,2.403-3.932,3.167
			c-0.328,0.109-0.655,0.273-0.929,0.382c-0.273,0.109-0.601,0.218-0.874,0.328c-0.655,0.218-1.42,0.382-2.238,0.491
			C497.478,396.672,496.494,396.781,495.239,396.781z M485.791,395.088h4.806c3.276,0.055,5.952-0.328,8.137-0.983
			c2.184-0.71,3.276-3.003,3.276-6.881c0-2.949-0.983-4.805-2.895-5.515s-4.096-1.092-6.498-1.092l-3.822-0.055
			c-0.819,0.055-1.365,0.055-1.639,0.055s-0.491,0.109-0.655,0.164c-0.055,0.055-0.055,0.055-0.109,0.055s-0.055,0.055-0.109,0.055
			c-0.218,0.164-0.327,0.328-0.382,0.546c-0.055,0.218-0.055,0.709-0.055,1.474v12.178H485.791z"/>
		<path fill="#D9CEA8" d="M543.021,378.597v13.106h-1.584c-0.055-0.164-0.164-0.382-0.219-0.601
			c-0.055-0.219-0.163-0.437-0.218-0.655c-0.874-2.567-2.075-4.915-3.769-7.044c-1.638-2.13-4.041-3.167-7.099-3.167
			c-2.075,0-3.769,0.601-5.079,1.748c-1.311,1.146-1.966,2.621-1.966,4.423c0,2.184,0.874,3.713,2.676,4.532
			c1.803,0.874,3.823,1.583,6.171,2.185c0.328,0.054,0.655,0.164,1.038,0.218c0.327,0.109,0.655,0.164,1.037,0.273
			c2.73,0.765,5.188,1.802,7.481,3.222c2.293,1.42,3.386,3.932,3.386,7.59c0,3.386-1.146,6.171-3.386,8.301
			s-5.133,3.167-8.683,3.167c-1.856,0-3.55-0.272-5.024-0.765c-1.474-0.546-2.894-1.365-4.313-2.566
			c-0.164-0.109-0.273-0.272-0.383-0.327c-0.109-0.109-0.218-0.219-0.382-0.383l-2.349,3.386h-1.747v-14.089h1.747
			c0,0.055,0,0.109,0,0.164s0.055,0.109,0.055,0.164c0.874,3.112,2.294,5.952,4.205,8.519s4.751,3.877,8.41,3.877
			c2.348,0,4.259-0.601,5.733-1.911c1.475-1.256,2.239-2.84,2.239-4.806c0-2.402-0.983-4.096-2.895-5.078
			c-1.911-0.983-4.096-1.802-6.553-2.457c-0.219-0.055-0.492-0.164-0.71-0.219c-0.273-0.055-0.492-0.109-0.765-0.219
			c-2.73-0.765-5.188-1.856-7.481-3.167s-3.386-3.713-3.386-7.208c0-3.112,1.038-5.679,3.059-7.809
			c2.02-2.13,4.532-3.167,7.48-3.167c1.147,0,2.13,0.109,3.059,0.273c0.928,0.164,1.856,0.492,2.73,0.929
			c0.601,0.273,1.146,0.601,1.747,1.038c0.601,0.382,1.201,0.874,1.856,1.365l2.185-3.004h1.693V378.597z"/>
		<path fill="#D9CEA8" d="M580.208,378.597l0.601,12.997h-1.692c-0.71-3.604-1.803-6.334-3.222-8.137
			c-1.42-1.802-4.15-2.73-8.191-2.73l-4.86-0.055c-1.584,0.055-2.566,0.164-2.895,0.382c-0.327,0.218-0.491,0.928-0.491,2.075
			v12.123c3.112,0.055,5.625-0.273,7.536-0.928s3.112-2.676,3.713-6.171l1.911-0.054v16.874h-1.911
			c-0.218-3.659-1.365-5.789-3.386-6.499s-4.642-1.037-7.863-1.092v13.543c0,1.146,0.164,1.856,0.437,2.075
			c0.328,0.218,1.147,0.327,2.622,0.327l6.115-0.055c2.021,0.055,3.495-0.055,4.479-0.327c0.982-0.273,1.911-0.765,2.676-1.529
			c1.201-1.146,2.075-2.457,2.621-3.986c0.546-1.475,1.037-3.059,1.42-4.642c0.055-0.164,0.055-0.328,0.108-0.491
			c0.055-0.164,0.109-0.328,0.109-0.547c0-0.055,0-0.055,0-0.108c0-0.055,0-0.109,0-0.109l1.693-0.055l-0.438,13.87h-32.546v-2.075
			h1.256c1.092,0.055,1.966,0,2.566-0.109c0.655-0.108,1.038-0.218,1.146-0.437c0.055-0.055,0.109-0.164,0.164-0.328
			c0.055-0.163,0.109-0.382,0.109-0.546v-3.986v-21.788v-3.932c-0.055-0.164-0.055-0.328-0.109-0.491
			c-0.055-0.164-0.109-0.273-0.164-0.382c-0.108-0.164-0.437-0.328-0.873-0.382c-0.438-0.109-1.42-0.164-2.895-0.164l-1.256-0.055
			v-2.075H580.208z"/>
	</g>
	<path fill="#D9CEA8" d="M232.793,451.334h-79.892c-0.601,0-1.092-0.491-1.092-1.092s0.491-1.092,1.092-1.092h79.892
		c0.601,0,1.092,0.491,1.092,1.092S233.394,451.334,232.793,451.334z"/>
	<g>
		<g>
			<path fill="#D9CEA8" d="M288.057,432.877c-0.328,1.42-0.219,0.655-0.328,2.402c-0.327,0.874-0.219,0.438-0.437,1.256
				l-0.546,1.147c-0.109,0.765,0,0.272-0.655,1.201c-0.328,1.42,0,0.765-0.819,2.185c-0.929,1.638-0.438,0.982-1.42,1.966
				c-0.765,1.365-0.601,0.765-0.765,1.856c-0.71,1.037-1.365,1.856-2.021,3.004c-0.71,0.764-0.437,0.382-0.765,1.146
				c-0.491,0.382-0.601,0.491-0.71,0.601s-0.164,0.219-0.437,0.601c-0.655,0.491-0.765,0.601-0.929,0.765
				c-0.109,0.109-0.164,0.272-0.491,0.765c-2.294,2.512-0.71,0.873-5.188,4.587l-1.475,0.819c-0.491,0.163-1.365,0.601-2.075,0.601
				c-1.256,0-2.13-1.365-2.566-2.349l-0.219-2.075l-0.218-0.218h-0.273c-1.802,1.583-1.092,1.201-1.966,1.692
				c-0.655,0.929-3.55,2.621-4.806,2.621c-0.546,0-0.929-0.272-1.42-1.037c-0.164-0.273-0.219-0.491-0.71-1.584
				c-0.218-1.146-0.272-1.583-0.272-2.402v-0.71c-0.273-1.146-0.109-0.71-0.438-1.42c-0.71-0.765-0.765-0.71-0.765-1.038
				c0-1.201,0.438-1.146,1.257-2.021c0.601-0.272,0.928-0.437,1.146-0.437c0.272,0,0.327,0.219,0.546,0.383
				c0.055,0,0.164,0,0.273-0.055l2.075-2.185c0.272-0.874,1.311-2.185,2.293-4.096l0.655-1.856l0.328-1.038
				c0.382-1.201,0.873-3.222,0.873-5.023c0-1.256-0.765-2.294-0.765-3.167c-0.437-0.71-1.146-1.147-2.129-1.202
				c-0.383-0.108-0.547-0.163-0.655-0.163c-0.164,0-0.273,0.108-0.874,0.272c-0.601,0.438-0.273,0.273-1.038,0.383
				c-1.638,1.146-2.02,1.256-2.293,1.528c-0.219,0.219-0.328,0.383-0.983,1.202c-1.474,1.802-0.71,0.764-2.293,3.276l-0.546,0.818
				c-0.219,0.602,0,0.219-0.765,1.038c-0.273,0.874-0.601,2.021-0.601,3.112c0,1.147,0.437,2.566,1.802,2.566
				c0.546,0,1.092-0.163,1.692-0.655h0.109l0.219,0.109c0,0.383-1.146,1.311-1.475,1.42c-0.71,0.055-0.765,0.164-1.037,0.164
				c-0.874,0-1.693-0.929-2.021-1.584c-0.164-0.928,0-0.546-0.273-1.201l0.109-1.092v-0.492c0.546-2.075,0.219-1.037,1.146-3.112
				c2.513-3.659,3.276-4.642,6.99-7.646l1.583-0.928l1.038-0.383c0.382-0.055,0.819-0.108,1.256-0.108
				c1.311,0,2.73,0.218,3.058,1.092c0.874,0.382,1.639,1.475,1.693,2.785c0.055,0.655,0.273,1.146,0.109,1.475
				c-0.492,0.818-0.164,1.419-0.546,3.276c-0.874,2.402-1.365,4.15-2.513,5.133c-0.382,1.693-1.692,2.566-3.386,4.696l-1.42,1.256
				l-0.491,0.71l-0.873,0.765c0.764,2.185,0.764,1.092,0.764,3.331l0.055,1.856c0.273,1.311,0,0.765,0.765,1.748
				c0.383,0.272,0.491,0.327,0.601,0.327c0.164,0,0.273-0.055,0.71-0.109l1.093-0.601l2.074-1.692l1.748-2.021l0.109-1.202
				c0.873-3.604,1.037-5.133,3.167-8.136c1.092-1.256,2.075-2.567,3.768-3.004c0.819,0.055,0.765,0.164,1.038,0.491
				c0.164,0.547,0.218,0.765,0.218,0.929c0,0.273-0.218,0.437-0.655,2.021c-0.71,1.639-0.382,0.765-1.311,2.294
				c-1.638,2.621-0.272,0.655-3.877,5.843l-0.164,0.819c0.273,2.293,0.055,1.146,0.765,3.549c0.601,0.765,0.71,0.983,1.256,0.983
				c0.273,0,0.601-0.055,1.093-0.164c1.256-0.71,1.583-0.874,1.856-1.146c0.382-0.273,0.874-0.438,2.348-2.021l3.495-3.659
				l2.239-3.167c0.437-0.819,0.327-0.491,0.437-1.037c1.42-2.021,1.803-2.458,2.13-2.949c0.273-0.437,0.383-0.983,1.201-2.895
				c0.929-1.747,0.601-0.982,0.874-2.293c0.491-1.256,0.765-2.239,0.765-3.44c0-0.328-0.055-0.765-0.055-1.201l0.055-1.475
				c-0.273-0.491-0.437-0.874-0.765-0.874c-0.219,0-0.437,0.164-0.765,0.601c-0.219,0.655-0.272,0.71-0.272,0.874
				c0,0.109,0.054,0.273,0.108,0.71c0.273,0.491,0.601,0.874,0.601,1.256c0,0.273-0.108,0.546-0.382,0.819
				c-0.655,0.327-0.71,0.437-0.819,0.437c-0.765,0-2.075-0.655-2.075-1.584c0-1.747,2.294-4.368,4.041-4.368
				c1.093,0.546,1.256,0.601,1.42,1.911c0.164,0.491,0.219,0.601,0.219,0.765C288.111,431.402,288.057,431.676,288.057,432.877z
				 M268.998,448.003c0,0.219,0.055,0.328,0.109,0.328c0.109,0,0.437-0.71,1.584-2.239c0.382-0.601,2.512-3.877,2.512-5.352
				c0-0.327-0.164-0.601-0.438-0.655c-0.873,0.273-1.146,0.71-1.856,1.966c-0.491,1.146-0.272,0.601-0.765,1.584l-1.092,3.331
				L268.998,448.003z"/>
			<path fill="#D9CEA8" d="M289.039,447.348c0.437,0.273,0.546,0.547,0.383,0.819c-0.219,0.273-0.492,0.546-0.983,0.71
				c0.327,0.219,0.491,0.546,0.546,0.874c0.055,0.382,0,0.765-0.109,1.201s-0.327,0.874-0.546,1.365
				c-0.272,0.491-0.546,0.929-0.819,1.365c0.383-0.055,0.819-0.219,1.311-0.546c0.492-0.328,0.929-0.71,1.42-1.202l0.219,0.438
				c-0.437,0.437-0.929,0.874-1.584,1.365c-0.655,0.437-1.311,0.71-2.021,0.765c-0.546,0.546-1.201,0.982-1.856,1.311
				c-0.71,0.327-1.365,0.491-1.966,0.491s-1.201-0.109-1.692-0.382c-0.492-0.273-0.819-0.765-0.983-1.42
				c-0.164-0.602-0.164-1.147-0.055-1.693s0.273-1.092,0.546-1.638c-0.163,0.163-0.327,0.327-0.546,0.546
				c-0.164,0.218-0.382,0.437-0.601,0.655l-0.219-0.438c0.383-0.382,0.765-0.818,1.147-1.201c0.382-0.437,0.873-0.873,1.42-1.311
				c0.491-0.491,1.037-0.982,1.638-1.365c0.601-0.382,1.201-0.71,1.856-0.873c0.655-0.219,1.256-0.273,1.912-0.273
				C287.948,446.911,288.493,447.075,289.039,447.348z M281.667,454.283c0.109,0.491,0.273,0.819,0.546,0.982
				c0.273,0.164,0.601,0.219,0.929,0.219c0.327-0.055,0.71-0.164,1.092-0.437c0.383-0.219,0.765-0.546,1.147-0.874
				c-0.547-0.273-0.874-0.655-0.983-1.201c-0.055-0.491,0-1.038,0.164-1.584c0.218-0.546,0.491-1.037,0.873-1.528
				c0.383-0.492,0.765-0.819,1.147-1.038c-0.328-0.273-0.765-0.273-1.42,0c-0.601,0.273-1.201,0.655-1.802,1.256
				c-0.602,0.546-1.038,1.201-1.42,1.966C281.613,452.863,281.503,453.573,281.667,454.283z M286.964,449.041
				c-0.327,0.164-0.655,0.491-0.928,0.873c-0.328,0.383-0.547,0.819-0.655,1.312c-0.164,0.437-0.164,0.873-0.055,1.311
				c0.108,0.382,0.382,0.71,0.873,0.873c0.273-0.327,0.547-0.71,0.765-1.146c0.219-0.437,0.438-0.819,0.546-1.201
				c0.164-0.383,0.219-0.765,0.219-1.093c0-0.327-0.055-0.601-0.219-0.818C287.347,449.096,287.183,449.096,286.964,449.041z"/>
			<path fill="#D9CEA8" d="M291.551,455.813c-0.163,0.163-0.437,0.327-0.765,0.382c-0.327,0.055-0.655,0.109-0.928,0.109
				c-0.273,0-0.491-0.055-0.655-0.219c-0.164-0.109-0.109-0.327,0.109-0.601c0.437-0.491,0.873-1.037,1.42-1.692
				c0.491-0.601,1.037-1.256,1.528-1.966c0.546-0.655,1.038-1.365,1.529-2.075s0.929-1.365,1.311-2.021
				c-0.327,0.272-0.765,0.601-1.146,1.037c-0.438,0.383-0.874,0.819-1.311,1.256c-0.438,0.438-0.819,0.819-1.256,1.201
				c-0.383,0.383-0.71,0.71-0.983,1.038l-0.219-0.437c0.219-0.219,0.547-0.602,0.983-1.038c0.437-0.491,0.929-0.928,1.42-1.42
				c0.491-0.491,0.982-0.928,1.42-1.42c0.491-0.437,0.818-0.764,1.092-0.982c0.219-0.164,0.491-0.273,0.765-0.273
				c0.272,0,0.546,0.055,0.765,0.164c0.218,0.109,0.327,0.273,0.437,0.491c0.055,0.219,0.055,0.492-0.109,0.765
				c-0.655,1.093-1.311,2.021-1.966,2.895s-1.311,1.692-2.075,2.512c1.201-1.092,2.185-1.966,2.949-2.566s1.42-1.092,1.966-1.475
				c0.055-0.109,0.109-0.219,0.164-0.272c0.055-0.109,0.109-0.219,0.218-0.328c0.438-0.655,0.874-1.146,1.256-1.42
				c0.383-0.272,0.71-0.437,0.983-0.437s0.491,0.055,0.655,0.272c0.164,0.164,0.219,0.438,0.219,0.655
				c0,0.273-0.109,0.547-0.328,0.819c-0.218,0.273-0.491,0.491-0.982,0.601c-0.492,0.164-0.929,0.383-1.365,0.546
				c-0.438,0.765-0.655,1.365-0.71,1.857c-0.055,0.491,0,0.818,0.219,0.982c0.218,0.164,0.546,0.219,0.928,0.055
				c0.437-0.164,0.874-0.437,1.42-0.928l0.219,0.437c-0.492,0.491-0.929,0.765-1.475,0.982c-0.491,0.164-0.983,0.219-1.365,0.055
				c-0.383-0.109-0.655-0.437-0.819-0.873c-0.164-0.438-0.109-1.038,0.219-1.803c-0.765,0.492-1.639,1.147-2.512,1.911
				C293.954,453.354,292.862,454.447,291.551,455.813z"/>
			<path fill="#D9CEA8" d="M307.333,452.372c-1.201,1.475-2.239,2.512-3.113,3.058c-0.873,0.601-1.583,0.874-2.074,0.929
				c-0.492,0-0.819-0.164-0.983-0.601c-0.164-0.383-0.109-0.874,0.164-1.475c0.382-0.874,0.765-1.747,1.146-2.621
				s0.819-1.748,1.256-2.621c-0.491,0.546-0.982,1.092-1.529,1.692c-0.546,0.601-1.037,1.147-1.474,1.584l-0.219-0.437
				c0.219-0.219,0.546-0.547,0.929-0.929c0.382-0.382,0.764-0.819,1.201-1.311c0.437-0.491,0.873-1.038,1.311-1.584
				c0.437-0.546,0.874-1.146,1.311-1.747c0.765-1.475,1.583-2.84,2.402-4.205c0.819-1.311,1.529-2.512,2.239-3.604
				c0.71-1.093,1.311-2.021,1.802-2.785c0.546-0.765,0.929-1.365,1.146-1.693c0.328-0.491,0.71-0.765,1.147-0.873
				c0.437-0.109,0.818-0.109,1.146,0c0.327,0.108,0.491,0.327,0.601,0.655c0.055,0.327-0.109,0.709-0.491,1.146
				c-1.365,1.42-2.567,2.894-3.604,4.313c-1.092,1.475-2.075,2.949-3.003,4.533c-0.929,1.583-1.857,3.222-2.73,5.023
				c-0.874,1.747-1.802,3.659-2.785,5.68c-0.164,0.382-0.219,0.655-0.109,0.71c0.109,0.054,0.383,0,0.765-0.219
				s0.874-0.601,1.42-1.093c0.601-0.491,1.256-1.146,1.966-1.966L307.333,452.372z"/>
			<path fill="#D9CEA8" d="M318.199,452.372c-1.201,1.475-2.238,2.512-3.058,3.112s-1.475,0.874-1.911,0.874
				c-0.438,0-0.71-0.219-0.765-0.71s0.055-1.092,0.327-1.747c-0.327,0.382-0.71,0.709-1.146,1.092
				c-0.437,0.327-0.874,0.655-1.311,0.874c-0.437,0.218-0.929,0.382-1.365,0.437c-0.491,0.055-0.929,0-1.311-0.164
				c-0.327-0.164-0.546-0.437-0.655-0.765c-0.109-0.327-0.055-0.765,0.055-1.201s0.327-0.928,0.601-1.475
				c0.328-0.546,0.655-1.092,1.092-1.638c-0.218,0.164-0.437,0.382-0.655,0.601c-0.218,0.219-0.437,0.491-0.655,0.71l-0.218-0.438
				c0.272-0.272,0.601-0.601,0.982-0.982c0.383-0.437,0.874-0.874,1.42-1.311s1.146-0.929,1.747-1.365
				c0.655-0.437,1.311-0.765,2.021-1.038c0.383-0.163,0.874-0.327,1.42-0.437s0.983-0.055,1.311,0.219
				c1.256-2.021,2.239-3.769,3.059-5.079c0.819-1.365,1.475-2.512,2.021-3.439c0.546-0.929,1.037-1.748,1.475-2.403
				c0.437-0.655,0.873-1.311,1.365-2.021c0.327-0.491,0.655-0.765,1.092-0.874c0.437-0.108,0.819-0.108,1.146,0
				c0.328,0.109,0.491,0.328,0.601,0.655c0.055,0.328-0.109,0.71-0.546,1.147c-1.365,1.42-2.566,2.894-3.604,4.313
				c-1.037,1.475-2.074,2.949-3.003,4.533c-0.929,1.583-1.856,3.222-2.73,5.023c-0.874,1.747-1.802,3.659-2.84,5.68
				c-0.164,0.382-0.218,0.655-0.109,0.709c0.109,0.055,0.328,0,0.655-0.218c0.328-0.219,0.819-0.601,1.365-1.093
				c0.547-0.491,1.202-1.146,1.912-1.966L318.199,452.372z M309.462,455.212c0.328-0.055,0.547-0.109,0.819-0.219
				c0.219-0.055,0.438-0.219,0.655-0.328c0.219-0.163,0.383-0.327,0.601-0.546c0.219-0.218,0.438-0.491,0.71-0.819
				c0.328-0.382,0.655-0.764,0.874-1.092c0.219-0.327,0.437-0.655,0.601-1.037c0.164-0.328,0.382-0.71,0.601-1.093
				c0.219-0.382,0.491-0.873,0.765-1.42c0.055-0.437-0.055-0.71-0.382-0.71c-0.328-0.055-0.819,0.109-1.365,0.547
				c-0.602,0.437-1.257,1.037-1.912,1.802s-1.256,1.529-1.692,2.293c-0.491,0.765-0.765,1.42-0.874,1.912
				C308.698,455.048,308.916,455.266,309.462,455.212z"/>
		</g>
		<g>
			<path fill="#D9CEA8" d="M420.698,443.962c-0.491,0.601-0.272,0.273-0.437,1.038c-1.092,1.583-0.819,0.928-1.146,1.802
				c-0.929,0.929-0.547,0.383-1.093,1.639l-1.256,1.528l-1.365,1.748l-1.146,0.982l-0.765,0.929
				c-0.655,0.219-0.929,0.437-1.42,0.874l-1.146,0.764c-2.294,1.202-1.146,0.765-3.276,1.257c-1.365-0.055-1.584,0-1.748-1.475
				c0.273-0.71,0.71-1.639,1.529-1.639c0.601,0,1.093,0.438,1.584,0.929c0.437,0.109,0.71,0.219,0.982,0.219
				c0.273,0,0.546-0.109,1.093-0.383l2.293-2.021c2.84-3.768,4.314-6.553,6.28-10.867c0.491-1.966,0.272-0.982,0.765-3.003
				l-0.219-1.693c-0.273-0.327-0.71-0.491-1.201-0.491c-1.201,0-2.785,0.819-3.276,0.983c-1.693,0.873-0.874,0.437-2.403,1.42
				c-0.272,0.054-0.382,0.054-0.491,0.108c-0.164,0.055-0.273,0.219-0.983,0.71c-1.911,0.929-1.966,1.256-3.276,2.73
				c-0.601,1.966-1.092,3.059-1.911,4.97c-0.765,1.692-0.819,2.293-1.911,3.932c-0.164,0.874,0.055,0.546-0.382,1.092l-0.71,1.256
				c-0.273,1.202-0.055,0.438-0.929,2.13c-0.437,1.42-0.055,0.765-1.037,2.185l-0.765,1.037l-1.256,2.403l-1.311,1.802
				c-1.912,2.676-2.294,2.785-4.915,4.424c-0.765,0.491-1.529,0.71-2.185,0.71c-1.256,0-2.075-1.202-2.075-2.349
				c0.328-2.676,0.819-3.822,2.294-6.226l1.692-2.73c4.533-5.952,4.915-6.334,9.447-10.866l1.911-1.912
				c1.639-1.037,1.639-2.402,1.857-4.204l-0.055-4.696c-0.438-0.874-0.874-0.983-1.748-0.983c-2.293,1.093-1.311,0.71-2.894,1.256
				c-1.093,1.038-1.365,1.147-2.075,1.475l-1.639,1.311l-2.293,2.676c-0.655,0.765-0.273,0.383-0.983,1.256
				c-0.219,0.71-0.055,0.383-0.491,0.819l-0.273,0.983c0.109,0.873,0,0.818,0.874,1.311c1.365-0.055,1.256-0.055,2.785-1.202
				l0.655-0.655c0.163-0.218,0.491-0.655,0.765-0.655c0.108,0,0.218,0.164,0.218,0.438l-1.311,1.475l-1.802,1.256
				c-0.929,0.163-0.655-0.055-1.037,0.272c-1.639-0.382-0.929,0-2.13-1.092c-0.164-0.219-0.219-0.383-0.219-0.601
				c0-0.819,0.71-1.802,0.983-2.458c2.948-4.204,6.007-7.044,11.686-8.683c0.383-0.108,0.546-0.108,0.71-0.108
				s0.273,0.055,0.929,0.272c1.911,1.529,2.074,2.349,2.074,4.314v1.037l-0.108,0.765v0.109l0.108,0.164l1.038-0.547l3.003-1.747
				c1.967-1.146,1.038-0.765,2.676-1.256c1.584-0.819,0.874-0.71,1.967-0.819c0.491-0.272,0.491-0.327,0.764-0.327h0.219
				c0.273,0,0.655,0,1.365-0.109c2.13,0,2.349,1.256,2.512,3.058C422.173,441.286,422.337,440.85,420.698,443.962z M404.863,445
				c-0.109,0-0.273,0.218-0.491,0.491l-0.492,0.328l-2.129,1.856c-1.748,1.529-1.093,0.71-2.13,2.185
				c-0.273,0.218-0.383,0.272-0.492,0.327c-0.108,0.109-0.163,0.273-0.71,0.929c-0.764,0.601-1.037,0.71-1.201,1.747
				c-1.256,1.256-1.638,1.802-2.785,3.331c-1.256,1.693-0.709,1.038-1.365,2.239c-0.818,0.928-0.709,0.491-0.764,1.256l-0.602,1.146
				c-0.601,1.146-1.311,2.294-1.528,4.806c0.272,1.146,0.873,1.639,1.583,1.639c0.929,0,2.239-0.765,3.113-1.967l2.238-3.003
				l2.403-4.369l2.239-4.805l1.911-4.479l0.382-0.982l0.874-1.911C404.917,445.164,404.917,445,404.863,445z"/>
			<path fill="#D9CEA8" d="M422.828,452.372c-1.201,1.475-2.239,2.512-3.112,3.058c-0.874,0.601-1.584,0.874-2.075,0.929
				c-0.491,0-0.819-0.164-0.983-0.601c-0.163-0.383-0.109-0.874,0.164-1.475c0.382-0.874,0.765-1.747,1.146-2.621
				c0.383-0.874,0.819-1.748,1.256-2.621c-0.491,0.546-0.982,1.092-1.528,1.692s-1.038,1.147-1.475,1.584l-0.219-0.437
				c0.219-0.219,0.546-0.547,0.929-0.929c0.382-0.382,0.765-0.819,1.201-1.311s0.874-1.038,1.311-1.584s0.874-1.146,1.311-1.747
				c0.765-1.475,1.584-2.84,2.403-4.205c0.818-1.311,1.528-2.512,2.238-3.604c0.71-1.093,1.311-2.021,1.803-2.785
				c0.546-0.765,0.928-1.365,1.146-1.693c0.327-0.491,0.71-0.765,1.146-0.873c0.437-0.109,0.819-0.109,1.146,0
				c0.328,0.108,0.492,0.327,0.601,0.655c0.055,0.327-0.108,0.709-0.491,1.146c-1.365,1.42-2.566,2.894-3.604,4.313
				c-1.093,1.475-2.075,2.949-3.004,4.533c-0.929,1.583-1.856,3.222-2.73,5.023c-0.874,1.747-1.802,3.659-2.785,5.68
				c-0.163,0.382-0.218,0.655-0.109,0.71c0.109,0.054,0.383,0,0.765-0.219c0.383-0.219,0.874-0.601,1.42-1.093
				c0.601-0.491,1.256-1.146,1.966-1.966L422.828,452.372z"/>
			<path fill="#D9CEA8" d="M434.187,452.372c-1.311,1.42-2.402,2.402-3.331,3.003s-1.584,0.874-2.075,0.929
				c-0.491,0-0.765-0.219-0.874-0.655c-0.108-0.437,0-1.038,0.328-1.693c-0.328,0.328-0.655,0.602-1.037,0.983
				c-0.383,0.327-0.819,0.601-1.257,0.874c-0.437,0.218-0.928,0.382-1.419,0.491c-0.492,0.055-0.929,0.055-1.42-0.164
				c-0.328-0.164-0.547-0.382-0.601-0.765c-0.055-0.382-0.055-0.818,0.108-1.311c0.164-0.491,0.383-1.092,0.71-1.692
				c0.328-0.601,0.765-1.201,1.257-1.802c-0.602,0.546-1.202,1.146-1.803,1.802l-0.219-0.438c0.273-0.272,0.71-0.71,1.257-1.201
				c0.546-0.546,1.201-1.092,1.856-1.583c0.71-0.547,1.42-1.038,2.13-1.42c0.765-0.438,1.474-0.71,2.184-0.765
				c0.765-0.109,1.312-0.055,1.639,0.164c0.327,0.218,0.601,0.546,0.71,0.982c0.109-0.109,0.219-0.164,0.382-0.272
				c0.109-0.055,0.273-0.164,0.383-0.219s0.272-0.055,0.491-0.055s0.437,0.055,0.601,0.109s0.328,0.164,0.383,0.272
				c0.054,0.109,0.054,0.273-0.109,0.438c-0.546,0.601-1.038,1.092-1.42,1.475c-0.383,0.382-0.765,0.764-1.093,1.146
				c-0.327,0.382-0.709,0.874-1.037,1.365c-0.382,0.546-0.765,1.256-1.256,2.13c-0.273,0.491-0.328,0.71-0.164,0.818
				c0.164,0.055,0.438,0,0.874-0.218c0.437-0.219,0.982-0.655,1.583-1.147c0.602-0.546,1.312-1.201,1.967-1.966L434.187,452.372z
				 M424.904,455.212c0.546-0.055,1.092-0.273,1.584-0.602c0.491-0.327,0.982-0.764,1.419-1.311
				c0.438-0.491,0.874-1.092,1.312-1.692c0.437-0.601,0.873-1.201,1.311-1.747c0.054-0.328,0.163-0.655,0.272-0.929
				s0.109-0.546-0.109-0.819c-0.218-0.272-0.601-0.272-1.092-0.055c-0.491,0.219-0.983,0.655-1.584,1.201
				c-0.546,0.547-1.092,1.147-1.638,1.857s-0.983,1.365-1.311,1.966c-0.328,0.601-0.546,1.146-0.655,1.528
				C424.358,455.103,424.522,455.266,424.904,455.212z"/>
			<path fill="#D9CEA8" d="M437.136,445.327c0.055-0.163,0.109-0.327,0.272-0.382c0.109-0.055,0.383-0.055,0.765,0
				c0.273,0.055,0.491,0.055,0.655,0.109c0.219,0,0.438,0.055,0.71,0.055c0.491-0.71,0.983-1.475,1.475-2.239
				c0.491-0.819,1.146-1.802,1.966-3.058c0.327-0.438,0.655-0.71,1.092-0.874c0.438-0.164,0.765-0.164,1.038-0.055
				c0.272,0.109,0.437,0.327,0.491,0.601c0.055,0.328-0.164,0.71-0.601,1.146c-0.546,0.547-1.092,1.202-1.639,1.911
				c-0.546,0.71-1.146,1.529-1.802,2.403c0.438,0,0.819-0.055,1.256-0.109c0.383-0.055,0.765-0.055,1.093-0.055
				c0.327,0,0.601,0,0.818,0.055c0.219,0.055,0.273,0.109,0.273,0.219c0,0.272-0.055,0.437-0.219,0.491
				c-0.163,0.055-0.382,0.055-0.601,0c-0.437-0.055-0.928-0.055-1.475-0.109c-0.546,0-1.037-0.055-1.474-0.055
				c-0.601,0.819-1.147,1.693-1.803,2.621c-0.601,0.929-1.256,1.966-1.856,3.059c-0.109,0.218-0.273,0.491-0.546,0.928
				c-0.219,0.383-0.491,0.819-0.71,1.257c-0.219,0.437-0.437,0.818-0.546,1.201c-0.109,0.382-0.164,0.655-0.055,0.818
				c0.109,0.164,0.327,0.219,0.71,0.055c0.382-0.108,0.982-0.491,1.802-1.037c0.383-0.273,0.819-0.601,1.311-1.037
				c0.491-0.383,0.983-0.874,1.475-1.42l0.219,0.437c-1.256,1.311-2.403,2.294-3.44,2.949c-1.038,0.655-1.911,0.982-2.621,1.037
				c-0.874,0.055-1.42-0.219-1.529-0.765c-0.164-0.546,0-1.201,0.491-2.021c0.383-0.655,0.874-1.42,1.42-2.185
				c0.546-0.764,1.093-1.528,1.584-2.184c-0.328,0.327-0.601,0.655-0.819,0.873c-0.219,0.219-0.382,0.438-0.601,0.655
				c-0.164,0.219-0.382,0.438-0.601,0.71c-0.219,0.273-0.546,0.601-0.929,0.983l-0.218-0.437c0.601-0.655,1.201-1.311,1.802-1.912
				c0.601-0.601,1.201-1.311,1.802-2.021c0.109-0.108,0.219-0.272,0.383-0.491c0.163-0.219,0.327-0.437,0.546-0.655
				c0.163-0.219,0.327-0.437,0.491-0.655s0.273-0.382,0.382-0.546c-0.709,0.055-1.256,0.055-1.638,0.055
				C437.299,445.655,437.136,445.546,437.136,445.327z"/>
			<path fill="#D9CEA8" d="M455.321,438.61c-0.765,0.819-1.475,1.584-2.13,2.239s-1.311,1.256-1.911,1.856
				c-0.602,0.601-1.202,1.147-1.803,1.748s-1.201,1.201-1.911,1.856c-0.71,1.146-1.475,2.348-2.239,3.658
				c-0.764,1.311-1.474,2.567-2.184,3.769c0,0.437,0.109,0.71,0.327,0.873c0.273,0.164,0.601,0.164,1.093,0.055
				c0.491-0.108,1.037-0.382,1.638-0.873c0.655-0.438,1.365-1.093,2.13-1.911l0.219,0.437c-0.655,0.71-1.311,1.311-1.911,1.802
				c-0.602,0.546-1.202,0.929-1.748,1.201c-0.546,0.273-1.037,0.383-1.475,0.383c-0.437,0-0.765-0.219-1.037-0.601
				c-1.311,2.184-2.349,4.041-3.167,5.461c-0.819,1.474-1.529,2.729-2.075,3.822c-0.546,1.092-0.983,2.185-1.365,3.112
				c-0.328,0.983-0.71,2.075-1.038,3.331c-0.163,0.491-0.382,0.874-0.71,1.038c-0.327,0.163-0.655,0.218-0.982,0.109
				c-0.328-0.109-0.546-0.328-0.71-0.656c-0.164-0.327-0.109-0.818,0.164-1.364c0.546-1.257,1.256-2.676,2.129-4.205
				c0.874-1.529,1.803-3.167,2.84-4.915c1.038-1.747,2.13-3.604,3.276-5.516c1.147-1.911,2.294-3.932,3.495-6.007
				c-0.164,0.164-0.382,0.383-0.601,0.655c-0.219,0.219-0.491,0.492-0.71,0.765c-0.272,0.273-0.491,0.546-0.765,0.819
				c-0.272,0.273-0.491,0.491-0.71,0.71l-0.218-0.437c0.491-0.492,1.092-1.093,1.802-1.803s1.475-1.528,2.239-2.402
				c1.146-2.021,2.129-3.714,2.948-5.024c0.819-1.365,1.529-2.512,2.13-3.439c0.601-0.929,1.146-1.748,1.639-2.403
				c0.491-0.655,0.982-1.311,1.474-1.911c0.765-0.929,1.475-1.475,2.239-1.692c0.765-0.219,1.311-0.109,1.639,0.272
				c0.327,0.382,0.382,1.038,0.163,1.911C457.177,436.263,456.467,437.354,455.321,438.61z M448.657,444.454
				c0.71-0.765,1.529-1.639,2.349-2.621c0.874-0.983,1.911-2.13,3.112-3.495c0.765-0.819,1.256-1.529,1.475-2.021
				s0.328-0.819,0.164-0.983c-0.109-0.109-0.437-0.055-0.874,0.273c-0.437,0.327-0.982,0.874-1.638,1.747
				c-0.219,0.273-0.492,0.655-0.819,1.147c-0.328,0.491-0.765,1.092-1.146,1.747c-0.438,0.655-0.874,1.311-1.311,2.075
				C449.477,443.034,449.04,443.744,448.657,444.454z"/>
			<path fill="#D9CEA8" d="M458.05,447.348c0.438,0.273,0.547,0.547,0.383,0.819c-0.219,0.273-0.491,0.546-0.983,0.71
				c0.328,0.219,0.492,0.546,0.547,0.874c0.054,0.382,0,0.765-0.109,1.201s-0.328,0.874-0.546,1.365
				c-0.273,0.491-0.547,0.929-0.819,1.365c0.382-0.055,0.819-0.219,1.311-0.546c0.491-0.328,0.928-0.71,1.42-1.202l0.218,0.438
				c-0.437,0.437-0.928,0.874-1.583,1.365c-0.655,0.437-1.311,0.71-2.021,0.765c-0.546,0.546-1.202,0.982-1.857,1.311
				c-0.709,0.327-1.364,0.491-1.966,0.491c-0.601,0-1.201-0.109-1.692-0.382c-0.491-0.273-0.819-0.765-0.983-1.42
				c-0.163-0.602-0.163-1.147-0.054-1.693c0.108-0.546,0.272-1.092,0.546-1.638c-0.164,0.163-0.328,0.327-0.546,0.546
				c-0.164,0.218-0.383,0.437-0.602,0.655l-0.218-0.438c0.382-0.382,0.765-0.818,1.146-1.201c0.382-0.437,0.874-0.873,1.42-1.311
				c0.491-0.491,1.037-0.982,1.638-1.365c0.602-0.382,1.202-0.71,1.857-0.873c0.655-0.219,1.256-0.273,1.911-0.273
				C456.958,446.911,457.559,447.075,458.05,447.348z M450.733,454.283c0.109,0.491,0.273,0.819,0.547,0.982
				c0.272,0.164,0.601,0.219,0.928,0.219c0.328-0.055,0.71-0.164,1.093-0.437c0.382-0.219,0.764-0.546,1.146-0.874
				c-0.546-0.273-0.874-0.655-0.983-1.201c-0.055-0.491,0-1.038,0.164-1.584c0.219-0.546,0.491-1.037,0.874-1.528
				c0.382-0.492,0.765-0.819,1.146-1.038c-0.327-0.273-0.765-0.273-1.42,0c-0.601,0.273-1.201,0.655-1.802,1.256
				c-0.601,0.546-1.038,1.201-1.42,1.966C450.678,452.863,450.57,453.573,450.733,454.283z M456.03,449.041
				c-0.327,0.164-0.655,0.491-0.928,0.873c-0.328,0.383-0.546,0.819-0.655,1.312c-0.164,0.437-0.164,0.873-0.055,1.311
				c0.109,0.382,0.382,0.71,0.874,0.873c0.272-0.327,0.546-0.71,0.764-1.146c0.219-0.437,0.438-0.819,0.547-1.201
				c0.163-0.383,0.218-0.765,0.218-1.093c0-0.327-0.055-0.601-0.218-0.818C456.358,449.096,456.194,449.096,456.03,449.041z"/>
			<path fill="#D9CEA8" d="M460.563,455.813c-0.164,0.163-0.438,0.327-0.765,0.382c-0.328,0.055-0.655,0.109-0.929,0.109
				c-0.272,0-0.491-0.055-0.655-0.219c-0.164-0.109-0.109-0.327,0.109-0.601c0.437-0.491,0.874-1.037,1.42-1.692
				c0.491-0.601,1.037-1.256,1.529-1.966c0.546-0.655,1.037-1.365,1.528-2.075c0.492-0.71,0.929-1.365,1.311-2.021
				c-0.327,0.272-0.764,0.601-1.146,1.037c-0.437,0.383-0.874,0.819-1.311,1.256c-0.437,0.438-0.819,0.819-1.256,1.201
				c-0.383,0.383-0.71,0.71-0.983,1.038l-0.218-0.437c0.218-0.219,0.546-0.602,0.982-1.038c0.438-0.491,0.929-0.928,1.42-1.42
				c0.491-0.491,0.983-0.928,1.42-1.42c0.491-0.437,0.819-0.764,1.092-0.982c0.219-0.164,0.492-0.273,0.765-0.273
				c0.273,0,0.546,0.055,0.765,0.164s0.328,0.273,0.437,0.491c0.055,0.219,0.055,0.492-0.108,0.765
				c-0.655,1.093-1.311,2.021-1.966,2.895s-1.312,1.692-2.075,2.512c1.201-1.092,2.184-1.966,2.948-2.566s1.42-1.092,1.966-1.475
				c0.055-0.109,0.109-0.219,0.164-0.272c0.055-0.109,0.109-0.219,0.219-0.328c0.437-0.655,0.873-1.146,1.256-1.42
				c0.382-0.272,0.71-0.437,0.982-0.437c0.273,0,0.492,0.055,0.655,0.272c0.164,0.164,0.219,0.438,0.219,0.655
				c0,0.273-0.109,0.547-0.327,0.819c-0.219,0.273-0.492,0.491-0.983,0.601c-0.491,0.164-0.929,0.383-1.365,0.546
				c-0.437,0.765-0.655,1.365-0.71,1.857c-0.055,0.491,0,0.818,0.219,0.982s0.546,0.219,0.928,0.055
				c0.438-0.164,0.874-0.437,1.42-0.928l0.219,0.437c-0.491,0.491-0.929,0.765-1.475,0.982c-0.491,0.164-0.982,0.219-1.365,0.055
				c-0.382-0.109-0.655-0.437-0.818-0.873c-0.164-0.438-0.109-1.038,0.218-1.803c-0.765,0.492-1.638,1.147-2.512,1.911
				C462.965,453.354,461.873,454.447,460.563,455.813z"/>
			<path fill="#D9CEA8" d="M469.573,451.935c0.219-0.218,0.546-0.601,0.983-1.037c0.437-0.491,0.928-0.929,1.42-1.42
				c0.491-0.491,0.982-0.929,1.42-1.42c0.491-0.437,0.818-0.765,1.092-0.982c0.219-0.164,0.491-0.273,0.71-0.273
				c0.272,0,0.491,0.055,0.655,0.164s0.272,0.272,0.327,0.491s0,0.491-0.163,0.765c-0.164,0.219-0.273,0.437-0.383,0.655
				s-0.272,0.382-0.382,0.601c0.655-0.819,1.311-1.475,2.021-2.021s1.475-0.71,2.348-0.491c0.219,0.055,0.328,0.164,0.383,0.382
				c0.055,0.219,0,0.492-0.055,0.765c-0.109,0.328-0.219,0.655-0.438,1.038c-0.218,0.382-0.437,0.818-0.655,1.256
				c0.601-0.655,1.202-1.256,1.803-1.748c0.546-0.491,1.092-0.928,1.583-1.201c0.492-0.272,0.929-0.491,1.365-0.546
				c0.438-0.055,0.765,0.055,1.093,0.327c0.218,0.164,0.272,0.438,0.218,0.819c-0.055,0.383-0.218,0.765-0.491,1.256
				c-0.219,0.438-0.546,0.929-0.929,1.42c-0.382,0.491-0.71,0.983-1.037,1.42c-0.328,0.437-0.655,0.874-0.929,1.201
				c-0.272,0.383-0.437,0.601-0.546,0.765c-0.109,0.219-0.109,0.328,0,0.438c0.109,0.054,0.273,0.054,0.601-0.109
				c0.273-0.164,0.71-0.438,1.201-0.819c0.492-0.382,1.147-0.983,1.857-1.693l0.218,0.438c-0.327,0.382-0.764,0.819-1.256,1.311
				c-0.491,0.491-1.037,0.874-1.583,1.311c-0.547,0.382-1.093,0.71-1.584,0.982c-0.491,0.219-0.929,0.328-1.311,0.273
				c-0.328-0.055-0.546-0.164-0.655-0.382c-0.109-0.219-0.055-0.547,0.109-0.983c0.109-0.273,0.327-0.601,0.601-1.037
				c0.272-0.438,0.546-0.874,0.874-1.365c0.327-0.492,0.655-0.983,1.037-1.475s0.655-0.983,0.983-1.365
				c0.272-0.328,0.437-0.655,0.546-0.929c0.109-0.272,0.163-0.437,0.055-0.491c-0.055-0.055-0.219,0-0.492,0.164
				c-0.272,0.164-0.601,0.491-1.092,0.982c-0.328,0.328-0.765,0.765-1.256,1.42c-0.491,0.601-1.038,1.256-1.639,1.911
				s-1.146,1.311-1.692,1.966s-1.038,1.147-1.42,1.529c-0.055,0.055-0.219,0.109-0.437,0.164c-0.219,0.055-0.438,0.055-0.601,0.055
				c-0.219,0-0.328-0.055-0.492-0.164c-0.109-0.055-0.109-0.164,0-0.327c0.219-0.328,0.546-0.71,0.874-1.147
				c0.327-0.437,0.71-0.982,1.092-1.528c0.383-0.547,0.765-1.093,1.147-1.693c0.382-0.546,0.709-1.092,0.982-1.529
				c0.273-0.437,0.491-0.818,0.601-1.146c0.164-0.328,0.164-0.491,0.055-0.546c-0.272-0.164-0.601-0.055-0.982,0.218
				c-0.383,0.328-0.819,0.71-1.312,1.257c-0.491,0.546-0.982,1.146-1.528,1.802s-1.093,1.311-1.693,1.966
				c-0.546,0.655-1.146,1.256-1.747,1.747c-0.601,0.492-1.201,0.874-1.747,1.093c-0.109,0.055-0.219,0.055-0.383,0.055
				s-0.272-0.055-0.382-0.109s-0.164-0.164-0.219-0.273c0-0.109,0.055-0.272,0.219-0.437c0.437-0.437,0.873-0.983,1.42-1.639
				c0.546-0.601,1.037-1.256,1.583-1.966s1.038-1.365,1.529-2.075s0.929-1.365,1.311-2.021c-0.328,0.273-0.71,0.602-1.092,0.983
				c-0.438,0.382-0.874,0.819-1.311,1.201c-0.438,0.438-0.874,0.819-1.257,1.256c-0.382,0.383-0.71,0.765-0.982,1.038
				L469.573,451.935z"/>
		</g>
		<g>
			<path fill="#D9CEA8" d="M369.422,432.44c1.092,0.546,1.529,1.146,1.529,1.802c0,0.874-0.765,1.747-1.748,2.73
				c-0.491,0.218-0.655,0.272-0.765,0.327c-0.163,0.109-0.272,0.219-0.765,0.655c-1.802,0.819-0.982,0.601-2.348,0.983
				c-1.092,0.601-0.491,0.382-1.856,0.601c-1.147,0.71-0.273,0.219-2.949,0.71c-0.546,0.219-0.655,0.272-0.819,0.272
				c-0.272,0-0.327-0.272-1.528-0.272l-0.765,0.71c-0.929,1.856-0.383,1.092-1.529,2.457c-0.71,1.475-1.365,2.949-2.13,4.369
				c-0.437,1.528-0.164,0.818-0.874,2.184c-0.218,0.765-0.327,1.803-0.327,2.785c0,0.819,0.164,1.748,0.273,2.403
				c0.327,0.765,0.873,1.802,1.747,1.802c0.982,0,1.747-0.219,2.13-0.382c2.402-0.438,2.948-1.967,3.822-2.239
				c1.475-1.42,3.167-2.895,3.877-3.822c0.655-0.874,1.256-2.785,2.021-3.878c0.601-1.037,1.038-2.238,1.201-2.784
				c0.438-1.475,0.547-2.185,0.602-3.823l-0.219-0.437c0.055-0.328,0.219-0.929,0.382-0.929c0.109,0,0.273,0.164,0.383,0.601
				c0.218,0.71,0.272,1.202,0.272,1.693c0,0.982-0.218,1.802-0.601,3.276l-0.601,1.201c-0.928,1.911-0.655,1.256-1.802,3.276
				c-1.256,1.693-0.219,0.765-1.475,2.513c-1.201,1.311-0.655,0.764-1.638,1.692c-2.13,1.966-2.676,2.895-5.461,4.205
				c-1.857,0.818-2.239,1.201-3.823,1.201c-1.365,0-2.948-0.491-3.276-1.966l-0.327-0.765l-0.164-2.785
				c0.164-0.928,0.164-1.747,0.601-2.566c0.164-0.874,0.819-2.13,1.256-3.276c1.256-2.294,1.856-2.895,2.239-3.495
				c0.382-0.765,0.546-1.311,1.856-3.167c-0.164-0.819-0.546-0.437-2.075-1.146c-0.765-0.219-1.583-1.365-1.583-2.185
				c0-0.655,0-1.256,0.546-1.803c0-0.655,0.819-0.982,1.256-1.419c0.819-0.874,2.948-1.803,3.986-1.803
				c0.491,0,1.529,0.109,1.529,0.383c0,0.272-0.219,0.437-0.765,0.437c-0.273,0-0.273-0.055-0.383-0.055
				c-0.055,0-0.163-0.055-0.272-0.055c-0.055,0-0.492-0.055-0.546,0c-1.257,0.438-2.73,1.093-3.331,2.73
				c-0.055,0.383,0.054,0.874,0.054,1.146c0,0.874,0.819,1.748,2.185,2.294h0.601c2.895-2.676,1.365-1.365,4.532-3.822
				c3.223-1.803,3.55-2.403,7.045-2.403h0.819V432.44z M367.893,433.259c-0.327,0-0.71,0.164-1.802,0.438
				c-2.021,0.601-3.167,1.911-4.806,3.003c-1.146,1.093-0.655,0.655-1.475,1.365c-0.055,0-0.928,0.71-0.928,0.983
				c0,0.055,0.054,0.218,0.163,0.272c1.256,0.219,1.748,0.055,2.021,0.055c0.219,0,0.438-0.055,1.038-0.055
				c3.495-0.982,4.696-1.092,7.208-3.331c0.437-0.491,0.655-0.982,0.655-1.365C369.913,433.806,369.203,433.259,367.893,433.259z"/>
			<path fill="#D9CEA8" d="M373.736,452.317c-0.054-0.273-0.163-0.328-0.272-0.328c-0.273,0-0.546,0.273-0.765,0.438l-2.566,2.021
				c-0.71,0.546-2.239,2.13-3.167,2.13l-0.109-0.109l0.055-0.383l1.583-3.003c0.219-0.328,0.273-0.601,0.273-0.765
				c0-0.273-0.164-0.383-0.383-0.383c-0.327,0-0.873,0.219-1.419,0.547l-1.42,0.873c-0.438,0.273-0.765,0.383-0.983,0.383
				c-0.055,0-0.109,0-0.109-0.109c0-0.055,0.055-0.109,0.109-0.219l1.42-1.037c1.311-0.983,2.676-1.693,4.26-2.185
				c0.546,0,0.71,0.273,0.71,0.655c0,0.71-0.492,1.639-0.602,1.966l-0.272,0.601l0.109,0.109l1.692-1.365
				c1.038-0.819,2.403-1.747,3.769-1.747c0.218,0.272,0.272,0.437,0.272,0.765c0,0.655-0.437,1.365-0.655,1.856
				c-0.272,0.382-0.765,0.982-0.765,1.42c0,0.163,0.055,0.272,0.164,0.382c0.273-0.055,0.437-0.055,0.601-0.055
				c0.273-0.109,0.601-0.327,2.239-1.256c0.601-0.327,0.928-0.491,1.037-0.491l0.109,0.055c0,0.218-0.546,0.765-1.037,1.092
				c-1.639,1.201-2.895,2.13-4.643,2.185c-0.327-0.273-0.437-0.437-0.437-0.71s0.164-0.546,0.273-0.929L373.736,452.317z"/>
			<path fill="#D9CEA8" d="M381.436,455.266c1.638-0.272,1.856-0.272,4.15-1.747c0.546-0.327,0.873-0.491,0.982-0.491l0.055,0.055
				c0,0.164-0.491,0.655-1.092,0.982l-0.601,0.438c-1.748,1.311-3.168,1.966-5.352,2.075c-0.874-0.273-0.874-0.547-0.929-1.475
				c0.655-2.185,2.239-3.55,3.986-4.642c0.601-0.328,1.311-0.983,1.856-0.273c0,1.475-0.601,2.294-2.13,3.44l-0.873,0.655
				c-0.273,0.109-0.71,0.491-0.492,0.819L381.436,455.266z M380.781,454.229L380.781,454.229c0.982-0.71,1.583-1.311,2.293-2.294
				c0.219-0.382,0.109-0.655-0.272-0.655c-0.273,0-0.71,0.219-1.201,0.602c-0.438,0.382-0.765,0.873-1.038,1.474l0.109,0.765
				L380.781,454.229z"/>
		</g>
		<g>
			<path fill="#D9CEA8" d="M325.517,454.283c-0.272,0.491-0.382,0.765-0.272,0.982c0.055,0.164,0.327,0.164,0.71,0
				c0.382-0.163,0.928-0.491,1.638-1.037s1.475-1.311,2.403-2.294l0.218,0.438c-0.601,0.655-1.201,1.256-1.692,1.747
				s-0.929,0.874-1.365,1.201c-0.382,0.328-0.765,0.547-1.146,0.71c-0.383,0.164-0.71,0.273-1.093,0.273
				c-0.873,0.055-1.42-0.219-1.528-0.71c-0.164-0.546,0-1.201,0.437-2.021c0.164-0.327,0.437-0.765,0.71-1.201
				c0.327-0.438,0.601-0.929,0.982-1.42c0.328-0.491,0.655-0.983,0.983-1.42c0.327-0.437,0.601-0.874,0.819-1.201
				c-0.438,0.437-0.819,0.765-1.038,1.037c-0.272,0.273-0.546,0.546-0.765,0.819c-0.218,0.273-0.491,0.601-0.818,0.929
				c-0.328,0.327-0.71,0.71-1.202,1.201l-0.218-0.437c0.818-0.874,1.638-1.748,2.348-2.622c0.765-0.873,1.529-1.692,2.458-2.457
				c0.218-0.164,0.491-0.272,0.928-0.327c0.383-0.055,0.765-0.055,1.092,0.055c0.328,0.054,0.547,0.218,0.656,0.437
				c0.108,0.219-0.055,0.491-0.383,0.765c-0.437,0.382-0.819,0.873-1.256,1.365c-0.437,0.546-0.874,1.092-1.256,1.692
				c-0.383,0.601-0.819,1.201-1.201,1.802C326.227,453.191,325.9,453.792,325.517,454.283z M332.452,440.358
				c0.219-0.219,0.546-0.328,0.874-0.383c0.382-0.055,0.655-0.055,0.928,0.055c0.273,0.109,0.438,0.273,0.438,0.491
				c0.055,0.219-0.164,0.547-0.601,0.929c-0.109,0.055-0.219,0.219-0.438,0.437c-0.163,0.219-0.382,0.438-0.655,0.655
				c-0.218,0.219-0.491,0.383-0.765,0.547c-0.272,0.108-0.491,0.108-0.765,0c-0.491-0.219-0.601-0.601-0.382-1.093
				C331.415,441.45,331.797,440.904,332.452,440.358z"/>
			<path fill="#D9CEA8" d="M338.842,452.317c-0.055-0.273-0.164-0.328-0.273-0.328c-0.273,0-0.546,0.273-0.765,0.438l-2.566,2.021
				c-0.71,0.546-2.239,2.13-3.167,2.13l-0.109-0.109l0.055-0.383l1.583-3.003c0.219-0.328,0.273-0.601,0.273-0.765
				c0-0.273-0.164-0.383-0.383-0.383c-0.327,0-0.873,0.219-1.419,0.547l-1.42,0.873c-0.438,0.273-0.765,0.383-0.983,0.383
				c-0.055,0-0.109,0-0.109-0.109c0-0.055,0.055-0.109,0.109-0.219l1.42-1.037c1.311-0.983,2.676-1.693,4.26-2.185
				c0.546,0,0.71,0.273,0.71,0.655c0,0.71-0.492,1.639-0.601,1.966l-0.273,0.601l0.109,0.109l1.692-1.365
				c1.038-0.819,2.403-1.747,3.769-1.747c0.218,0.272,0.272,0.437,0.272,0.765c0,0.655-0.437,1.365-0.655,1.856
				c-0.272,0.382-0.765,0.982-0.765,1.42c0,0.163,0.055,0.272,0.164,0.382c0.273-0.055,0.437-0.055,0.601-0.055
				c0.273-0.109,0.601-0.327,2.239-1.256c0.601-0.327,0.928-0.491,1.037-0.491l0.109,0.055c0,0.218-0.546,0.765-1.037,1.092
				c-1.639,1.201-2.895,2.13-4.642,2.185c-0.328-0.273-0.438-0.437-0.438-0.71s0.164-0.546,0.273-0.929L338.842,452.317z"/>
		</g>
	</g>
	<path fill="#D9CEA8" d="M580.918,451.334h-77.871c-0.601,0-1.092-0.491-1.092-1.092s0.491-1.092,1.092-1.092h77.871
		c0.601,0,1.092,0.491,1.092,1.092S581.519,451.334,580.918,451.334z"/>
</g>
</svg>
