<?xml version="1.0" encoding="utf-8"?>
<!-- Generator: Adobe Illustrator 19.1.0, SVG Export Plug-In . SVG Version: 6.00 Build 0)  -->
<svg version="1.1" id="Layer_1" xmlns="http://www.w3.org/2000/svg" xmlns:xlink="http://www.w3.org/1999/xlink" x="0px" y="0px"
	 viewBox="0 0 270.8 216" style="enable-background:new 0 0 270.8 216;" xml:space="preserve">
<style type="text/css">
	.st0{fill-rule:evenodd;clip-rule:evenodd;fill:#E6E6E6;}
	.st1{fill-rule:evenodd;clip-rule:evenodd;fill:#FFFFFF;}
	.st2{fill:#FFFFFF;}
	.st3{fill:#E6E6E6;}
</style>
<g>
	<polygon class="st0" points="158.1,27.1 172.5,41.6 172.5,99.5 158.1,85 	"/>
	<polygon class="st0" points="138.1,9 152.6,23.5 152.6,81.4 138.1,66.9 	"/>
	<polygon class="st1" points="178,99.5 192.5,85 192.5,27.1 178,41.6 	"/>
	<polygon class="st1" points="158.1,117.6 172.5,103.1 172.5,45.2 158.1,59.7 	"/>
	<polygon class="st1" points="138.1,135.6 152.6,121.2 152.6,63.3 138.1,77.8 	"/>
	<polygon class="st1" points="112.7,27.1 98.3,41.6 98.3,99.5 112.7,85 	"/>
	<polygon class="st1" points="132.7,9 118.2,23.5 118.2,81.4 132.7,66.9 	"/>
	<polygon class="st0" points="92.8,99.5 78.3,85 78.3,27.1 92.8,41.6 	"/>
	<polygon class="st0" points="112.7,117.6 98.3,103.1 98.3,45.2 112.7,59.7 	"/>
	<polygon class="st0" points="132.7,135.6 118.2,121.2 118.2,63.3 132.7,77.8 	"/>
	<polygon class="st1" points="92.8,45.2 78.3,59.7 78.3,117.6 92.8,103.1 	"/>
	<polygon class="st0" points="178,45.2 192.5,59.7 192.5,117.6 178,103.1 	"/>
	<g>
		<g>
			<path class="st2" d="M27.7,163.5H16.5v6v2.3c0,0.2,0.1,0.4,0.2,0.5c0.1,0.1,0.2,0.2,0.5,0.3c0.2,0,0.4,0,0.6,0.1
				c0.2,0,0.4,0,0.6,0c0.2,0,0.4,0,0.6,0c0.2,0,0.4,0,0.6,0v1.2h-9.3v-1.2h0.7c1.1,0,1.8-0.1,2-0.2c0.2-0.2,0.3-0.7,0.3-1.6v-1.4
				v-12.7v-2.3c0-0.2-0.1-0.4-0.2-0.5c-0.1-0.1-0.3-0.2-0.5-0.2c-0.2,0-0.4,0-0.6-0.1c-0.2,0-0.4,0-0.6,0c-0.2,0-0.4,0-0.6,0
				c-0.2,0-0.4,0-0.6,0v-1.2h9.3v1.2h-0.8c-0.5,0-1,0.1-1.4,0.1c-0.4,0.1-0.7,0.1-0.7,0.2c0,0.1-0.1,0.1-0.1,0.2
				c0,0.1-0.1,0.2-0.1,0.3v2.3v5.2h11.2v-5.2v-1.3c0-0.8-0.1-1.4-0.3-1.5c-0.2-0.2-0.9-0.2-2-0.2l-0.7,0v-1.2h9.3v1.2h-0.8
				c-0.5,0-1,0.1-1.4,0.1c-0.4,0.1-0.7,0.1-0.7,0.2c0,0.1-0.1,0.1-0.1,0.2c0,0.1-0.1,0.2-0.1,0.3v2.3v12.7v1.3
				c0,0.9,0.1,1.4,0.3,1.6c0.2,0.2,0.9,0.3,2,0.3l0.8,0v1.2h-9.3v-1.2h0.7c1.1,0,1.8-0.1,2-0.2c0.2-0.2,0.3-0.7,0.3-1.6v-1.4V163.5z
				"/>
			<path class="st2" d="M46,152.1c2.9,0,5.3,1.1,7.4,3.3c2,2.2,3,4.8,3,7.8c0,3.1-1,5.7-3,7.8c-2,2.1-4.5,3.2-7.4,3.2
				c-2.9,0-5.4-1.1-7.4-3.2c-2-2.1-3.1-4.7-3.1-7.8c0-3.1,1-5.8,3.1-7.9C40.6,153.2,43.1,152.2,46,152.1L46,152.1z M45.9,153.5
				c-2.3,0-4,0.8-5.1,2.4c-1.1,1.6-1.7,4-1.7,7.1c0,3.4,0.6,5.9,1.7,7.6c1.2,1.7,2.9,2.5,5.2,2.5c2.2,0,3.9-0.8,5-2.5
				c1.2-1.6,1.7-4,1.7-7.1c0-3.4-0.6-5.9-1.7-7.5C49.9,154.3,48.2,153.5,45.9,153.5L45.9,153.5z"/>
			<path class="st2" d="M73.1,153.7v-1.2h8v1.2c-1.4,0.1-2.2,0.4-2.6,0.9c-0.3,0.5-0.5,1.7-0.5,3.5v6.3c0,1.7-0.1,3-0.2,3.8
				c-0.1,0.8-0.3,1.6-0.7,2.3c0,0,0,0.1-0.1,0.1c0,0,0,0.1-0.1,0.1c-0.7,1.3-1.8,2.3-3.1,2.7c-1.3,0.5-2.7,0.7-4.2,0.8
				c0,0,0,0-0.1,0c0,0-0.1,0-0.1,0c-2,0-3.7-0.4-5.1-1.1c-1.4-0.7-2.3-1.7-2.8-2.9c-0.2-0.6-0.3-1.2-0.4-1.9
				c-0.1-0.7-0.1-1.7-0.1-2.9v-8.6v-1.3c0-0.6,0-0.9,0-1.1c0-0.2-0.1-0.3-0.1-0.4c0,0,0,0,0,0c0,0,0,0,0,0c0,0-0.1-0.1-0.2-0.1
				c-0.1,0-0.2-0.1-0.3-0.1c-0.2,0-0.4-0.1-0.6-0.1c-0.2,0-0.4,0-0.6,0c-0.2,0-0.4,0-0.6,0c-0.2,0-0.4,0-0.6,0v-1.2h9.3v1.2h-0.7
				c-0.6,0-1.1,0.1-1.5,0.1c-0.4,0.1-0.6,0.1-0.7,0.2c0,0.1-0.1,0.1-0.1,0.2c0,0.1-0.1,0.2-0.1,0.3v2.3v8.7c0,1.5,0.1,2.6,0.3,3.4
				c0.2,0.7,0.5,1.4,1,2c0.6,0.6,1.2,1,2,1.3c0.8,0.3,1.7,0.5,2.7,0.5c1.3,0,2.4-0.2,3.3-0.7c0.9-0.4,1.6-1.1,2.1-1.9
				c0.1-0.1,0.1-0.2,0.2-0.3c0-0.1,0.1-0.2,0.1-0.3c0.3-0.6,0.5-1.2,0.6-1.9c0.1-0.7,0.1-1.8,0.1-3.1v-6.4c0-1.8-0.2-2.9-0.6-3.4
				C75.5,154.2,74.6,153.9,73.1,153.7L73.1,153.7z"/>
			<path class="st2" d="M97.5,152.5v7.6h-0.9c0-0.1-0.1-0.2-0.1-0.3c0-0.1-0.1-0.2-0.1-0.4c-0.5-1.5-1.2-2.9-2.2-4.1
				c-1-1.2-2.3-1.8-4.1-1.8c-1.2,0-2.2,0.3-3,1c-0.8,0.7-1.2,1.5-1.2,2.6c0,1.3,0.5,2.1,1.6,2.6c1,0.5,2.2,0.9,3.6,1.3
				c0.2,0,0.4,0.1,0.6,0.1c0.2,0,0.4,0.1,0.6,0.2c1.6,0.4,3,1.1,4.3,1.9c1.3,0.8,2,2.3,2,4.4c0,2-0.6,3.6-2,4.8
				c-1.3,1.2-3,1.8-5.1,1.8c-1.1,0-2.1-0.2-2.9-0.5c-0.9-0.3-1.7-0.8-2.5-1.5c-0.1-0.1-0.2-0.1-0.2-0.2c-0.1-0.1-0.1-0.1-0.2-0.2
				l-1.4,2h-1v-8.2h1c0,0,0,0.1,0,0.1c0,0,0,0.1,0,0.1c0.5,1.8,1.3,3.5,2.5,5c1.1,1.5,2.8,2.3,4.9,2.3c1.4,0,2.5-0.4,3.3-1.1
				c0.9-0.7,1.3-1.7,1.3-2.8c0-1.4-0.6-2.4-1.7-2.9c-1.1-0.6-2.4-1-3.8-1.4c-0.1,0-0.3-0.1-0.4-0.1c-0.1,0-0.3-0.1-0.4-0.1
				c-1.6-0.5-3-1.1-4.4-1.9c-1.3-0.8-2-2.2-2-4.2c0-1.8,0.6-3.3,1.8-4.5c1.2-1.2,2.6-1.9,4.4-1.9c0.6,0,1.2,0.1,1.8,0.2
				c0.5,0.1,1.1,0.3,1.6,0.5c0.3,0.2,0.7,0.4,1,0.6c0.3,0.2,0.7,0.5,1.1,0.8l1.3-1.7H97.5z"/>
			<path class="st2" d="M119.1,152.5l0.4,7.5h-1c-0.4-2.1-1-3.7-1.9-4.7c-0.8-1.1-2.4-1.6-4.8-1.6l-2.8,0c-0.9,0-1.5,0.1-1.7,0.2
				c-0.2,0.1-0.3,0.5-0.3,1.2v7c1.8,0,3.3-0.2,4.4-0.5c1.1-0.4,1.8-1.6,2.2-3.6l1.1,0v9.8h-1.1c-0.1-2.1-0.8-3.4-2-3.8
				c-1.2-0.4-2.7-0.6-4.6-0.6v7.9c0,0.7,0.1,1.1,0.3,1.2c0.2,0.1,0.7,0.2,1.5,0.2l3.6,0c1.2,0,2,0,2.6-0.2c0.6-0.2,1.1-0.4,1.6-0.9
				c0.7-0.7,1.2-1.4,1.5-2.3c0.3-0.9,0.6-1.8,0.8-2.7c0-0.1,0-0.2,0.1-0.3c0-0.1,0.1-0.2,0.1-0.3c0,0,0,0,0-0.1c0,0,0-0.1,0-0.1l1,0
				l-0.2,8.1h-18.9v-1.2h0.7c0.6,0,1.1,0,1.5-0.1c0.4-0.1,0.6-0.1,0.7-0.2c0,0,0.1-0.1,0.1-0.2c0-0.1,0.1-0.2,0.1-0.3v-2.3v-12.7
				v-2.3c0-0.1,0-0.2-0.1-0.3c0-0.1-0.1-0.2-0.1-0.2c-0.1-0.1-0.2-0.2-0.5-0.2c-0.3-0.1-0.8-0.1-1.7-0.1l-0.7,0v-1.2H119.1z"/>
		</g>
	</g>
	<g>
		<path class="st3" d="M131.9,160.3c-2.3,0.3-2.6,3.9-2.7,4.3c0,0.5,0.2,2.5,1.6,2.4c1.4,0,2.7-2.1,2.7-4.4
			C133.7,160.3,131.9,160.3,131.9,160.3z"/>
		<path class="st3" d="M135.4,152.2c-6,0-10.9,4.9-10.9,10.9c0,6,4.9,10.9,10.9,10.9c6,0,10.9-4.9,10.9-10.9
			C146.2,157,141.4,152.2,135.4,152.2z M143.6,156.5l-1.4-1C143.6,155.5,143.6,156.5,143.6,156.5z M130.7,167.7c-2.1,0-3-1.6-3-3.2
			c0-1.6,1-4.6,4.3-4.9c0,0,3-0.2,3,3C135.1,165.9,132.8,167.7,130.7,167.7z M142.6,158c0,0-0.4-0.7-1.3-0.7c-0.9,0-1.6,0.7-1.9,2.6
			h2.2l-0.1,0.6h-2.3l-1.2,6.5c0,0-0.1,3.8-3.6,3.6l0.1-0.3c0,0,1.5-0.1,1.9-2.3c0.4-2.2,1.4-7.5,1.4-7.5l-1.2,0l0.2-0.7h1.2
			c0,0,0-3.3,3.6-3.3c1.2,0,1.5,0.7,1.6,1L142.6,158z"/>
	</g>
	<g>
		<path class="st2" d="M164,162.8C164,162.8,164.1,162.8,164,162.8c0.1,0,0.1,0,0.1,0.1c1.1,0.2,2.2,0.4,3.1,0.7
			c0.9,0.3,1.7,1,2.4,2.1c0.3,0.4,0.5,0.8,0.6,1.3c0.1,0.5,0.2,0.9,0.2,1.4c0,1.8-0.6,3.1-1.9,3.9c-1.3,0.8-2.7,1.3-4.2,1.5
			c-0.5,0.1-0.9,0.1-1.4,0.1c-0.5,0-0.9,0-1.3,0h-10.9v-1.2h0.7c1.1,0,1.8-0.1,2-0.2c0.2-0.2,0.3-0.7,0.3-1.5v-1.4v-12.7v-1.3
			c0-0.6,0-0.9,0-1.1c0-0.2-0.1-0.3-0.1-0.4c0,0,0,0,0,0c0,0,0,0,0,0c0,0,0,0-0.1,0c0,0-0.1,0-0.1,0c-0.1-0.1-0.3-0.1-0.6-0.2
			c-0.3,0-0.8-0.1-1.4-0.1l-0.7,0v-1.2h9.2c1.6,0,2.9,0.1,3.8,0.2c0.9,0.1,1.7,0.3,2.5,0.6c1,0.4,1.7,1,2.3,1.8
			c0.6,0.8,0.9,1.6,0.9,2.6c0,1.3-0.5,2.5-1.5,3.4C166.9,162.1,165.6,162.6,164,162.8L164,162.8z M156.8,163.6v6l0,1.1l0,1
			c0,0.4,0.1,0.7,0.2,0.8c0.1,0.1,0.4,0.2,0.8,0.2h1.3c0.4,0,0.7,0,1.1,0c0.4,0,0.7,0,1.1,0c0.4,0,0.7,0,1.1-0.1
			c0.4,0,0.8-0.1,1.1-0.1c1.1-0.2,1.9-0.6,2.5-1.3c0.6-0.7,0.8-1.7,0.8-2.9c0-0.1,0-0.1,0-0.2c0-0.1,0-0.1,0-0.2
			c-0.1-0.7-0.2-1.4-0.6-2c-0.3-0.6-0.8-1.1-1.5-1.4c-0.1,0-0.1-0.1-0.2-0.1c-0.1,0-0.1-0.1-0.2-0.1c-0.5-0.2-1.2-0.4-1.9-0.5
			c-0.7-0.1-1.8-0.1-3.3-0.1H156.8z M156.8,162.2h2.9c1.6,0,3.1-0.2,4.4-0.6c1.3-0.4,1.9-1.6,1.9-3.7c0-1.5-0.4-2.6-1.2-3.3
			c-0.8-0.7-2.2-1-4.1-1l-2,0c-0.9,0-1.4,0.1-1.6,0.2c-0.2,0.1-0.3,0.4-0.3,1v0.8V162.2z"/>
		<path class="st2" d="M185,152.1c2.9,0,5.3,1.1,7.4,3.3c2,2.2,3,4.8,3,7.8c0,3.1-1,5.7-3,7.8c-2,2.1-4.5,3.2-7.4,3.2
			c-2.9,0-5.4-1.1-7.4-3.2c-2-2.1-3.1-4.7-3.1-7.8c0-3.1,1-5.8,3.1-7.9C179.5,153.2,182,152.2,185,152.1L185,152.1z M184.9,153.5
			c-2.3,0-4,0.8-5.1,2.4c-1.1,1.6-1.7,4-1.7,7.1c0,3.4,0.6,5.9,1.7,7.6c1.2,1.7,2.9,2.5,5.2,2.5c2.2,0,3.9-0.8,5.1-2.5
			c1.2-1.6,1.7-4,1.7-7.1c0-3.4-0.6-5.9-1.7-7.5C188.9,154.3,187.2,153.5,184.9,153.5L184.9,153.5z M181.9,147.2
			c0.5,0,0.9,0.2,1.2,0.5c0.3,0.3,0.5,0.7,0.5,1.2c0,0.5-0.2,0.9-0.5,1.2c-0.3,0.3-0.7,0.5-1.2,0.5s-0.9-0.2-1.2-0.5
			c-0.3-0.3-0.5-0.7-0.5-1.2c0-0.5,0.2-0.9,0.5-1.2C181.1,147.3,181.5,147.2,181.9,147.2z M187.9,147.2c0.5,0,0.9,0.2,1.2,0.5
			c0.3,0.3,0.5,0.7,0.5,1.2c0,0.5-0.2,0.9-0.5,1.2c-0.3,0.3-0.7,0.5-1.2,0.5c-0.5,0-0.9-0.2-1.2-0.5c-0.3-0.3-0.5-0.7-0.5-1.2
			c0-0.5,0.2-0.9,0.5-1.2C187,147.3,187.4,147.2,187.9,147.2z"/>
		<path class="st2" d="M210.1,163.1c1.1,0.2,2,0.5,2.5,0.8c0.5,0.3,1,0.7,1.4,1.3c0.2,0.4,0.5,0.9,0.7,1.4c0.2,0.6,0.4,1.2,0.6,1.8
			c0,0.2,0.1,0.3,0.1,0.5c0,0.2,0.1,0.3,0.1,0.4c0.3,0.8,0.6,1.5,0.8,2.1c0.3,0.6,0.6,0.9,0.9,0.9c0.3,0,0.6-0.2,0.8-0.6
			c0.2-0.4,0.3-1.2,0.5-2.3l1,0c0,0.1,0,0.1,0,0.2c0,0,0,0.1,0,0.2c-0.1,1.2-0.4,2.3-0.8,3.2c-0.4,1-1.4,1.5-2.9,1.5
			c-0.6,0-1.2-0.1-1.7-0.4c-0.5-0.2-0.9-0.6-1.2-1c-0.3-0.5-0.6-1-0.7-1.5c-0.1-0.5-0.2-1.1-0.3-1.6c0-0.2-0.1-0.4-0.1-0.6
			c0-0.2,0-0.4,0-0.6c-0.1-1.4-0.4-2.6-1-3.6c-0.5-1-2.1-1.5-4.7-1.5l-1.4,0v6.1v2.3c0,0.2,0.1,0.4,0.2,0.5c0.1,0.1,0.2,0.2,0.5,0.3
			c0.5,0.1,0.9,0.1,1.4,0.1c0.5,0,0.9,0,1.4,0v1.2h-9.5v-1.2h0.7c1.1,0,1.8-0.1,2-0.2c0.2-0.2,0.3-0.7,0.3-1.6v-1.4v-12.7v-2.3
			c0-0.2-0.1-0.4-0.2-0.5c-0.1-0.1-0.3-0.2-0.5-0.2c-0.2,0-0.4,0-0.6-0.1c-0.2,0-0.4,0-0.6,0c-0.2,0-0.4,0-0.6,0c-0.2,0-0.4,0-0.6,0
			v-1.2h9.5c0.5,0,1,0,1.6,0.1c0.6,0,1.1,0.1,1.7,0.2c1.5,0.2,2.9,0.7,4.2,1.4c1.3,0.7,1.9,2,1.9,3.7c0,1-0.3,1.8-0.8,2.6
			c-0.5,0.8-1.3,1.4-2.3,1.8c-0.2,0.1-0.4,0.2-0.5,0.2c-0.2,0.1-0.3,0.1-0.5,0.2c-0.4,0.1-0.8,0.2-1.3,0.3
			C211.4,163.1,210.8,163.1,210.1,163.1z M204.5,162.1h2.8c1.9,0,3.5-0.2,4.7-0.6c1.3-0.4,1.9-1.7,1.9-4c0-1.7-0.6-2.8-1.7-3.2
			c-1.1-0.4-2.4-0.6-3.8-0.6l-2.2,0c-0.5,0-0.8,0-0.9,0c-0.2,0-0.3,0-0.4,0.1c0,0,0,0-0.1,0c0,0,0,0-0.1,0c-0.1,0.1-0.2,0.2-0.2,0.3
			c0,0.1,0,0.4,0,0.9V162.1z"/>
		<path class="st2" d="M237.9,152.5v7.6h-0.9c0-0.1-0.1-0.2-0.1-0.3c0-0.1-0.1-0.2-0.1-0.4c-0.5-1.5-1.2-2.9-2.2-4.1
			c-1-1.2-2.3-1.8-4.1-1.8c-1.2,0-2.2,0.3-3,1c-0.8,0.7-1.2,1.5-1.2,2.6c0,1.3,0.5,2.1,1.6,2.6c1,0.5,2.2,0.9,3.6,1.3
			c0.2,0,0.4,0.1,0.6,0.1c0.2,0,0.4,0.1,0.6,0.2c1.6,0.4,3,1.1,4.4,1.9c1.3,0.8,2,2.3,2,4.4c0,2-0.7,3.6-2,4.8
			c-1.3,1.2-3,1.8-5.1,1.8c-1.1,0-2.1-0.2-2.9-0.5c-0.9-0.3-1.7-0.8-2.5-1.5c-0.1-0.1-0.2-0.1-0.2-0.2c-0.1-0.1-0.1-0.1-0.2-0.2
			l-1.4,2h-1v-8.2h1c0,0,0,0.1,0,0.1c0,0,0,0.1,0,0.1c0.5,1.8,1.3,3.5,2.5,5c1.1,1.5,2.8,2.3,4.9,2.3c1.4,0,2.5-0.4,3.3-1.1
			c0.9-0.7,1.3-1.7,1.3-2.8c0-1.4-0.6-2.4-1.7-2.9c-1.1-0.6-2.4-1-3.8-1.4c-0.1,0-0.3-0.1-0.4-0.1c-0.2,0-0.3-0.1-0.4-0.1
			c-1.6-0.5-3-1.1-4.3-1.9c-1.3-0.8-2-2.2-2-4.2c0-1.8,0.6-3.3,1.8-4.5c1.2-1.2,2.6-1.9,4.4-1.9c0.7,0,1.2,0.1,1.8,0.2
			c0.5,0.1,1.1,0.3,1.6,0.5c0.3,0.2,0.7,0.4,1,0.6c0.3,0.2,0.7,0.5,1.1,0.8l1.3-1.7H237.9z"/>
		<path class="st2" d="M259.5,152.5l0.4,7.5h-1c-0.4-2.1-1-3.7-1.9-4.7c-0.8-1.1-2.4-1.6-4.8-1.6l-2.8,0c-0.9,0-1.5,0.1-1.7,0.2
			c-0.2,0.1-0.3,0.5-0.3,1.2v7c1.8,0,3.3-0.2,4.4-0.5c1.1-0.4,1.8-1.6,2.2-3.6l1.1,0v9.8H254c-0.1-2.1-0.8-3.4-2-3.8
			c-1.2-0.4-2.7-0.6-4.6-0.6v7.9c0,0.7,0.1,1.1,0.3,1.2c0.2,0.1,0.7,0.2,1.5,0.2l3.6,0c1.2,0,2,0,2.6-0.2c0.6-0.2,1.1-0.4,1.6-0.9
			c0.7-0.7,1.2-1.4,1.5-2.3c0.3-0.9,0.6-1.8,0.8-2.7c0-0.1,0-0.2,0.1-0.3c0-0.1,0.1-0.2,0.1-0.3c0,0,0,0,0-0.1c0,0,0-0.1,0-0.1l1,0
			l-0.2,8.1h-18.9v-1.2h0.7c0.6,0,1.1,0,1.5-0.1c0.4-0.1,0.6-0.1,0.7-0.2c0,0,0.1-0.1,0.1-0.2c0-0.1,0.1-0.2,0.1-0.3v-2.3v-12.7
			v-2.3c0-0.1,0-0.2-0.1-0.3c0-0.1-0.1-0.2-0.1-0.2c-0.1-0.1-0.2-0.2-0.5-0.2c-0.3-0.1-0.8-0.1-1.7-0.1l-0.7,0v-1.2H259.5z"/>
	</g>
	<g>
		<path class="st2" d="M57.4,194.9H10.9c-0.3,0-0.6-0.3-0.6-0.6s0.3-0.6,0.6-0.6h46.5c0.3,0,0.6,0.3,0.6,0.6S57.7,194.9,57.4,194.9z
			"/>
		<g>
			<g>
				<path class="st2" d="M89.5,184.1c-0.2,0.8-0.1,0.4-0.2,1.4c-0.2,0.5-0.1,0.3-0.3,0.7l-0.3,0.7c-0.1,0.4,0,0.2-0.4,0.7
					c-0.2,0.8,0,0.4-0.5,1.3c-0.5,0.9-0.3,0.6-0.8,1.1c-0.5,0.8-0.3,0.4-0.5,1.1c-0.4,0.6-0.8,1.1-1.2,1.8c-0.4,0.5-0.3,0.2-0.4,0.7
					c-0.3,0.2-0.3,0.3-0.4,0.3c-0.1,0.1-0.1,0.1-0.3,0.3c-0.4,0.3-0.5,0.3-0.5,0.4c-0.1,0.1-0.1,0.1-0.3,0.5c-1.3,1.5-0.4,0.5-3,2.7
					l-0.9,0.5c-0.3,0.1-0.8,0.3-1.2,0.3c-0.7,0-1.2-0.8-1.5-1.4l-0.1-1.2l-0.1-0.1h-0.1c-1.1,0.9-0.6,0.7-1.1,1
					c-0.4,0.5-2.1,1.5-2.8,1.5c-0.3,0-0.5-0.1-0.8-0.6c-0.1-0.1-0.1-0.3-0.4-0.9c-0.1-0.7-0.2-0.9-0.2-1.4v-0.4
					c-0.1-0.7-0.1-0.4-0.3-0.8c-0.4-0.5-0.4-0.4-0.4-0.6c0-0.7,0.3-0.7,0.7-1.2c0.3-0.2,0.5-0.3,0.7-0.3c0.1,0,0.2,0.1,0.3,0.2
					c0,0,0.1,0,0.2,0l1.2-1.3c0.1-0.5,0.8-1.3,1.3-2.4l0.4-1.1l0.2-0.6c0.2-0.7,0.5-1.9,0.5-2.9c0-0.7-0.5-1.3-0.4-1.8
					c-0.3-0.4-0.7-0.7-1.2-0.7c-0.2-0.1-0.3-0.1-0.4-0.1c-0.1,0-0.2,0.1-0.5,0.2c-0.3,0.3-0.1,0.2-0.6,0.2c-0.9,0.7-1.2,0.7-1.3,0.9
					c-0.1,0.1-0.2,0.2-0.6,0.7c-0.9,1.1-0.4,0.4-1.3,1.9l-0.3,0.5c-0.1,0.3,0,0.1-0.5,0.6c-0.2,0.5-0.3,1.2-0.3,1.8
					c0,0.7,0.3,1.5,1,1.5c0.3,0,0.6-0.1,1-0.4h0.1l0.1,0.1c0,0.2-0.7,0.8-0.9,0.8c-0.4,0-0.4,0.1-0.6,0.1c-0.5,0-1-0.5-1.2-0.9
					c-0.1-0.5,0-0.3-0.2-0.7l0.1-0.6v-0.3c0.3-1.2,0.1-0.6,0.7-1.8c1.5-2.1,1.9-2.7,4.1-4.4l0.9-0.5l0.6-0.2c0.2,0,0.5-0.1,0.7-0.1
					c0.8,0,1.6,0.1,1.8,0.6c0.5,0.2,0.9,0.9,1,1.6c0,0.4,0.2,0.7,0.1,0.9c-0.3,0.5-0.1,0.8-0.3,1.9c-0.5,1.4-0.8,2.4-1.5,3
					c-0.2,1-1,1.5-2,2.7l-0.8,0.7l-0.3,0.4l-0.5,0.5c0.5,1.3,0.4,0.6,0.5,2l0,1.1c0.2,0.8,0,0.4,0.4,1c0.2,0.2,0.3,0.2,0.3,0.2
					c0.1,0,0.2,0,0.4-0.1l0.6-0.3l1.2-1l1-1.2l0.1-0.7c0.5-2.1,0.6-3,1.8-4.7c0.6-0.7,1.2-1.5,2.2-1.7c0.5,0,0.4,0.1,0.6,0.3
					c0.1,0.3,0.1,0.4,0.1,0.5c0,0.2-0.1,0.3-0.4,1.2c-0.4,0.9-0.2,0.4-0.8,1.3c-0.9,1.5-0.2,0.4-2.3,3.4l-0.1,0.5
					c0.1,1.3,0,0.7,0.4,2.1c0.3,0.4,0.4,0.6,0.7,0.6c0.1,0,0.3,0,0.6-0.1c0.7-0.4,0.9-0.5,1.1-0.7c0.2-0.1,0.5-0.3,1.4-1.2l2-2.1
					l1.3-1.8c0.3-0.5,0.2-0.3,0.3-0.6c0.8-1.2,1.1-1.4,1.2-1.7c0.1-0.3,0.2-0.6,0.7-1.7c0.5-1,0.3-0.6,0.5-1.3
					c0.3-0.7,0.4-1.3,0.4-2c0-0.2,0-0.4,0-0.7l0-0.9c-0.2-0.3-0.3-0.5-0.4-0.5c-0.1,0-0.3,0.1-0.4,0.3c-0.1,0.4-0.1,0.4-0.1,0.5
					c0,0.1,0,0.1,0.1,0.4c0.2,0.3,0.3,0.5,0.3,0.7c0,0.1-0.1,0.3-0.2,0.5c-0.4,0.2-0.4,0.3-0.5,0.3c-0.5,0-1.2-0.4-1.2-0.9
					c0-1,1.3-2.6,2.4-2.6c0.6,0.3,0.7,0.3,0.8,1.1c0.1,0.3,0.1,0.3,0.1,0.5C89.6,183.2,89.5,183.4,89.5,184.1z M78.4,192.9
					c0,0.1,0,0.2,0.1,0.2c0.1,0,0.3-0.4,0.9-1.3c0.2-0.3,1.5-2.3,1.5-3.1c0-0.2-0.1-0.3-0.3-0.4c-0.5,0.2-0.7,0.4-1.1,1.1
					c-0.3,0.7-0.1,0.3-0.4,0.9l-0.6,2L78.4,192.9z"/>
				<path class="st2" d="M90.1,192.5c0.3,0.1,0.3,0.3,0.2,0.5c-0.1,0.2-0.3,0.3-0.6,0.4c0.2,0.1,0.3,0.3,0.3,0.5
					c0,0.2,0,0.4-0.1,0.7c-0.1,0.3-0.2,0.5-0.3,0.8c-0.1,0.3-0.3,0.5-0.5,0.8c0.2,0,0.5-0.1,0.7-0.3c0.3-0.2,0.5-0.4,0.8-0.7
					l0.1,0.2c-0.2,0.3-0.6,0.5-0.9,0.8c-0.4,0.3-0.8,0.4-1.2,0.5c-0.3,0.3-0.7,0.6-1.1,0.8c-0.4,0.2-0.8,0.3-1.1,0.3
					c-0.4,0-0.7-0.1-1-0.2c-0.3-0.2-0.5-0.4-0.6-0.8c-0.1-0.3-0.1-0.7,0-1c0.1-0.3,0.2-0.6,0.3-1c-0.1,0.1-0.2,0.2-0.3,0.3
					c-0.1,0.1-0.2,0.2-0.4,0.4l-0.1-0.2c0.2-0.2,0.4-0.5,0.7-0.7c0.2-0.2,0.5-0.5,0.8-0.8c0.3-0.3,0.6-0.6,1-0.8
					c0.4-0.2,0.7-0.4,1.1-0.5c0.4-0.1,0.7-0.2,1.1-0.2C89.5,192.3,89.8,192.4,90.1,192.5z M85.8,196.6c0.1,0.3,0.2,0.5,0.3,0.6
					c0.2,0.1,0.3,0.1,0.5,0.1c0.2,0,0.4-0.1,0.6-0.2c0.2-0.1,0.5-0.3,0.7-0.5c-0.3-0.2-0.5-0.4-0.6-0.7c0-0.3,0-0.6,0.1-0.9
					c0.1-0.3,0.3-0.6,0.5-0.9c0.2-0.3,0.4-0.5,0.7-0.6c-0.2-0.1-0.5-0.1-0.8,0c-0.4,0.2-0.7,0.4-1,0.7c-0.3,0.3-0.6,0.7-0.8,1.1
					S85.7,196.2,85.8,196.6z M88.9,193.5c-0.2,0.1-0.4,0.3-0.5,0.5c-0.2,0.2-0.3,0.5-0.4,0.7c-0.1,0.3-0.1,0.5,0,0.7
					c0.1,0.2,0.2,0.4,0.5,0.5c0.2-0.2,0.3-0.4,0.4-0.7c0.1-0.2,0.2-0.5,0.3-0.7c0.1-0.2,0.1-0.4,0.1-0.6c0-0.2,0-0.4-0.1-0.5
					C89.1,193.6,89,193.5,88.9,193.5z"/>
				<path class="st2" d="M91.5,197.5c-0.1,0.1-0.2,0.2-0.4,0.2c-0.2,0-0.4,0.1-0.5,0.1c-0.2,0-0.3,0-0.4-0.1
					c-0.1-0.1-0.1-0.2,0.1-0.3c0.2-0.3,0.5-0.6,0.8-1c0.3-0.4,0.6-0.7,0.9-1.1c0.3-0.4,0.6-0.8,0.9-1.2c0.3-0.4,0.5-0.8,0.7-1.2
					c-0.2,0.2-0.4,0.4-0.7,0.6c-0.3,0.2-0.5,0.5-0.7,0.7c-0.3,0.2-0.5,0.5-0.7,0.7c-0.2,0.2-0.4,0.4-0.6,0.6l-0.1-0.2
					c0.1-0.1,0.3-0.3,0.6-0.6c0.3-0.3,0.5-0.5,0.8-0.8c0.3-0.3,0.6-0.6,0.8-0.8c0.3-0.3,0.5-0.4,0.6-0.6c0.1-0.1,0.3-0.2,0.5-0.2
					c0.2,0,0.3,0,0.4,0.1c0.1,0.1,0.2,0.2,0.3,0.3c0,0.1,0,0.3-0.1,0.4c-0.4,0.6-0.8,1.2-1.1,1.7c-0.4,0.5-0.8,1-1.2,1.4
					c0.7-0.6,1.3-1.1,1.7-1.5c0.5-0.4,0.8-0.6,1.1-0.9c0-0.1,0.1-0.1,0.1-0.2c0-0.1,0.1-0.1,0.1-0.2c0.3-0.4,0.5-0.7,0.7-0.8
					s0.4-0.2,0.6-0.3c0.2,0,0.3,0,0.4,0.2c0.1,0.1,0.1,0.2,0.1,0.4c0,0.2-0.1,0.3-0.2,0.5c-0.1,0.2-0.3,0.3-0.6,0.4
					c-0.3,0.1-0.5,0.2-0.8,0.3c-0.2,0.4-0.4,0.8-0.4,1.1c0,0.3,0,0.5,0.1,0.6c0.1,0.1,0.3,0.1,0.5,0c0.2-0.1,0.5-0.3,0.8-0.5
					l0.1,0.2c-0.3,0.3-0.6,0.5-0.9,0.6c-0.3,0.1-0.6,0.1-0.8,0c-0.2-0.1-0.4-0.2-0.5-0.5c-0.1-0.3-0.1-0.6,0.1-1.1
					c-0.5,0.3-0.9,0.7-1.5,1.1C92.9,196,92.3,196.7,91.5,197.5z"/>
				<path class="st2" d="M100.7,195.4c-0.7,0.9-1.3,1.4-1.8,1.8c-0.5,0.3-0.9,0.5-1.2,0.5c-0.3,0-0.5-0.1-0.6-0.3
					c-0.1-0.2-0.1-0.5,0.1-0.9c0.2-0.5,0.4-1,0.7-1.5c0.2-0.5,0.5-1,0.7-1.5c-0.3,0.3-0.6,0.6-0.9,1c-0.3,0.4-0.6,0.7-0.9,0.9
					l-0.1-0.2c0.1-0.1,0.3-0.3,0.5-0.5c0.2-0.2,0.4-0.5,0.7-0.8s0.5-0.6,0.7-0.9c0.3-0.3,0.5-0.7,0.7-1c0.5-0.9,0.9-1.7,1.4-2.4
					c0.5-0.8,0.9-1.5,1.3-2.1c0.4-0.6,0.8-1.2,1.1-1.6c0.3-0.5,0.5-0.8,0.7-1c0.2-0.3,0.4-0.4,0.7-0.5c0.3-0.1,0.5-0.1,0.7,0
					c0.2,0.1,0.3,0.2,0.3,0.4c0,0.2-0.1,0.4-0.3,0.7c-0.8,0.8-1.5,1.7-2.1,2.5c-0.6,0.8-1.2,1.7-1.8,2.6c-0.5,0.9-1.1,1.9-1.6,2.9
					c-0.5,1-1.1,2.1-1.6,3.3c-0.1,0.2-0.1,0.4-0.1,0.4c0.1,0,0.2,0,0.4-0.1c0.2-0.1,0.5-0.3,0.8-0.6c0.3-0.3,0.7-0.7,1.2-1.1
					L100.7,195.4z"/>
				<path class="st2" d="M107,195.4c-0.7,0.9-1.3,1.5-1.8,1.8c-0.5,0.3-0.8,0.5-1.1,0.5c-0.3,0-0.4-0.1-0.5-0.4c0-0.3,0-0.6,0.2-1
					c-0.2,0.2-0.4,0.4-0.7,0.6c-0.2,0.2-0.5,0.4-0.8,0.5c-0.3,0.1-0.5,0.2-0.8,0.3c-0.3,0-0.5,0-0.8-0.1c-0.2-0.1-0.3-0.2-0.4-0.4
					c-0.1-0.2,0-0.4,0-0.7c0.1-0.3,0.2-0.6,0.4-0.9c0.2-0.3,0.4-0.6,0.6-0.9c-0.1,0.1-0.3,0.2-0.4,0.3c-0.1,0.1-0.3,0.3-0.4,0.4
					l-0.1-0.2c0.1-0.1,0.3-0.3,0.6-0.6c0.2-0.2,0.5-0.5,0.8-0.8c0.3-0.3,0.7-0.5,1-0.8c0.4-0.2,0.8-0.4,1.2-0.6
					c0.2-0.1,0.5-0.2,0.8-0.3c0.3-0.1,0.6,0,0.8,0.1c0.7-1.2,1.3-2.2,1.8-3c0.5-0.8,0.9-1.5,1.2-2c0.3-0.5,0.6-1,0.9-1.4
					c0.2-0.4,0.5-0.8,0.8-1.2c0.2-0.3,0.4-0.4,0.6-0.5c0.3-0.1,0.5-0.1,0.7,0c0.2,0.1,0.3,0.2,0.3,0.4c0,0.2-0.1,0.4-0.3,0.7
					c-0.8,0.8-1.5,1.7-2.1,2.5c-0.6,0.8-1.2,1.7-1.7,2.6c-0.5,0.9-1.1,1.9-1.6,2.9c-0.5,1-1.1,2.1-1.6,3.3c-0.1,0.2-0.1,0.4-0.1,0.4
					c0.1,0,0.2,0,0.4-0.1c0.2-0.1,0.5-0.3,0.8-0.6c0.3-0.3,0.7-0.7,1.1-1.1L107,195.4z M102,197.1c0.2,0,0.3-0.1,0.5-0.1
					c0.1,0,0.3-0.1,0.4-0.2c0.1-0.1,0.2-0.2,0.3-0.3c0.1-0.1,0.3-0.3,0.4-0.5c0.2-0.2,0.4-0.4,0.5-0.6c0.1-0.2,0.3-0.4,0.4-0.6
					c0.1-0.2,0.2-0.4,0.3-0.6c0.1-0.2,0.3-0.5,0.4-0.8c0-0.3,0-0.4-0.2-0.4c-0.2,0-0.5,0.1-0.8,0.3c-0.4,0.2-0.7,0.6-1.1,1
					c-0.4,0.5-0.7,0.9-1,1.3c-0.3,0.4-0.4,0.8-0.5,1.1C101.5,197,101.6,197.1,102,197.1z"/>
			</g>
			<g>
				<path class="st2" d="M166.7,190.6c-0.3,0.3-0.2,0.1-0.3,0.6c-0.6,0.9-0.5,0.5-0.7,1.1c-0.5,0.5-0.3,0.2-0.6,0.9l-0.7,0.9l-0.8,1
					l-0.7,0.6l-0.5,0.5c-0.4,0.1-0.5,0.3-0.8,0.5l-0.7,0.5c-1.3,0.7-0.7,0.5-1.9,0.7c-0.8,0-0.9,0-1-0.9c0.1-0.4,0.4-0.9,0.9-0.9
					c0.3,0,0.6,0.3,0.9,0.5c0.3,0.1,0.4,0.1,0.6,0.1c0.2,0,0.3-0.1,0.6-0.2l1.3-1.2c1.7-2.2,2.5-3.8,3.6-6.3
					c0.3-1.1,0.1-0.6,0.4-1.7l-0.1-1c-0.1-0.2-0.4-0.3-0.7-0.3c-0.7,0-1.6,0.5-1.9,0.6c-1,0.5-0.5,0.3-1.4,0.8c-0.2,0-0.2,0-0.3,0.1
					c-0.1,0-0.1,0.1-0.6,0.4c-1.1,0.5-1.1,0.7-1.9,1.6c-0.3,1.1-0.6,1.8-1.1,2.9c-0.4,1-0.5,1.3-1.1,2.3c-0.1,0.5,0,0.3-0.2,0.6
					l-0.4,0.7c-0.2,0.7,0,0.3-0.5,1.2c-0.3,0.8,0,0.5-0.6,1.3l-0.4,0.6l-0.7,1.4l-0.8,1.1c-1.1,1.5-1.3,1.6-2.9,2.6
					c-0.4,0.3-0.9,0.4-1.3,0.4c-0.7,0-1.2-0.7-1.2-1.4c0.2-1.5,0.5-2.2,1.3-3.6l1-1.6c2.6-3.5,2.9-3.7,5.5-6.3l1.1-1.1
					c0.9-0.6,0.9-1.4,1.1-2.4l0-2.7c-0.3-0.5-0.5-0.6-1-0.6c-1.3,0.6-0.8,0.4-1.7,0.7c-0.6,0.6-0.8,0.7-1.2,0.9l-0.9,0.8l-1.3,1.5
					c-0.4,0.4-0.1,0.2-0.6,0.7c-0.1,0.4,0,0.2-0.3,0.5l-0.1,0.6c0.1,0.5,0,0.5,0.5,0.8c0.8,0,0.7,0,1.6-0.7l0.4-0.4
					c0.1-0.1,0.3-0.4,0.4-0.4c0.1,0,0.1,0.1,0.1,0.3l-0.8,0.9l-1,0.7c-0.5,0.1-0.4,0-0.6,0.1c-0.9-0.2-0.5,0-1.2-0.6
					c-0.1-0.1-0.1-0.2-0.1-0.3c0-0.5,0.4-1.1,0.6-1.4c1.7-2.4,3.5-4.1,6.8-5c0.2-0.1,0.3-0.1,0.4-0.1c0.1,0,0.1,0,0.5,0.1
					c1.1,0.9,1.2,1.4,1.2,2.5v0.6l-0.1,0.4v0.1l0.1,0.1l0.6-0.3l1.7-1c1.1-0.7,0.6-0.5,1.5-0.7c0.9-0.5,0.5-0.4,1.1-0.5
					c0.3-0.2,0.3-0.2,0.5-0.2h0.1c0.1,0,0.4,0,0.8-0.1c1.2,0,1.4,0.7,1.5,1.8C167.5,189,167.6,188.7,166.7,190.6z M157.5,191.2
					c-0.1,0-0.1,0.1-0.3,0.3l-0.3,0.2l-1.2,1.1c-1,0.9-0.6,0.4-1.2,1.3c-0.2,0.1-0.2,0.1-0.3,0.2c-0.1,0.1-0.1,0.1-0.4,0.5
					c-0.5,0.3-0.6,0.4-0.7,1c-0.7,0.7-0.9,1.1-1.6,2c-0.7,1-0.4,0.6-0.8,1.3c-0.5,0.5-0.4,0.3-0.5,0.7l-0.3,0.7
					c-0.3,0.7-0.8,1.3-0.9,2.8c0.2,0.7,0.5,0.9,0.9,0.9c0.5,0,1.3-0.4,1.8-1.1l1.3-1.7l1.4-2.6l1.3-2.8l1.1-2.6l0.2-0.6l0.5-1.1
					C157.5,191.3,157.5,191.2,157.5,191.2z"/>
				<path class="st2" d="M167.9,195.4c-0.7,0.9-1.3,1.4-1.8,1.8c-0.5,0.3-0.9,0.5-1.2,0.5c-0.3,0-0.5-0.1-0.6-0.3
					c-0.1-0.2-0.1-0.5,0.1-0.9c0.2-0.5,0.4-1,0.7-1.5c0.2-0.5,0.5-1,0.7-1.5c-0.3,0.3-0.6,0.6-0.9,1c-0.3,0.4-0.6,0.7-0.9,0.9
					l-0.1-0.2c0.1-0.1,0.3-0.3,0.5-0.5c0.2-0.2,0.4-0.5,0.7-0.8c0.2-0.3,0.5-0.6,0.7-0.9c0.3-0.3,0.5-0.7,0.7-1
					c0.5-0.9,0.9-1.7,1.4-2.4c0.5-0.8,0.9-1.5,1.3-2.1c0.4-0.6,0.8-1.2,1.1-1.6c0.3-0.5,0.5-0.8,0.7-1c0.2-0.3,0.4-0.4,0.7-0.5
					c0.3-0.1,0.5-0.1,0.7,0c0.2,0.1,0.3,0.2,0.3,0.4c0,0.2-0.1,0.4-0.3,0.7c-0.8,0.8-1.5,1.7-2.1,2.5c-0.6,0.8-1.2,1.7-1.8,2.6
					c-0.5,0.9-1.1,1.9-1.6,2.9c-0.5,1-1.1,2.1-1.6,3.3c-0.1,0.2-0.1,0.4-0.1,0.4c0.1,0,0.2,0,0.4-0.1c0.2-0.1,0.5-0.3,0.8-0.6
					c0.3-0.3,0.7-0.7,1.2-1.1L167.9,195.4z"/>
				<path class="st2" d="M174.5,195.4c-0.8,0.8-1.4,1.4-1.9,1.8c-0.5,0.3-0.9,0.5-1.2,0.5c-0.3,0-0.5-0.1-0.5-0.4
					c-0.1-0.3,0-0.6,0.2-1c-0.2,0.2-0.4,0.4-0.6,0.6c-0.2,0.2-0.5,0.4-0.7,0.5c-0.3,0.1-0.5,0.2-0.8,0.3c-0.3,0-0.6,0-0.8-0.1
					c-0.2-0.1-0.3-0.2-0.4-0.4c0-0.2,0-0.5,0.1-0.8c0.1-0.3,0.2-0.6,0.4-1c0.2-0.4,0.4-0.7,0.7-1c-0.4,0.3-0.7,0.7-1,1l-0.1-0.2
					c0.2-0.2,0.4-0.4,0.7-0.7c0.3-0.3,0.7-0.6,1.1-0.9c0.4-0.3,0.8-0.6,1.2-0.8c0.4-0.3,0.9-0.4,1.3-0.5c0.4-0.1,0.7,0,1,0.1
					c0.2,0.1,0.3,0.3,0.4,0.6c0.1-0.1,0.1-0.1,0.2-0.2c0.1,0,0.2-0.1,0.2-0.1c0.1,0,0.2,0,0.3,0c0.1,0,0.2,0,0.3,0.1
					c0.1,0,0.2,0.1,0.2,0.2c0,0.1,0,0.2-0.1,0.3c-0.3,0.4-0.6,0.6-0.8,0.9c-0.2,0.2-0.4,0.4-0.6,0.7c-0.2,0.2-0.4,0.5-0.6,0.8
					c-0.2,0.3-0.5,0.7-0.7,1.2c-0.1,0.3-0.2,0.4-0.1,0.5c0.1,0,0.3,0,0.5-0.1c0.2-0.1,0.6-0.4,0.9-0.7c0.4-0.3,0.7-0.7,1.2-1.1
					L174.5,195.4z M169.1,197.1c0.3,0,0.6-0.2,0.9-0.4c0.3-0.2,0.6-0.5,0.8-0.7c0.3-0.3,0.5-0.6,0.8-1c0.2-0.4,0.5-0.7,0.8-1
					c0-0.2,0.1-0.4,0.2-0.5c0.1-0.2,0.1-0.3-0.1-0.5c-0.1-0.2-0.3-0.2-0.6,0c-0.3,0.1-0.6,0.4-0.9,0.7c-0.3,0.3-0.6,0.7-1,1.1
					c-0.3,0.4-0.6,0.8-0.8,1.2c-0.2,0.4-0.3,0.7-0.4,0.9C168.8,197,168.9,197.1,169.1,197.1z"/>
				<path class="st2" d="M176.3,191.3c0-0.1,0.1-0.2,0.2-0.2c0.1,0,0.2,0,0.5,0c0.1,0,0.3,0,0.4,0.1c0.1,0,0.3,0,0.4,0
					c0.3-0.4,0.6-0.8,0.9-1.3c0.3-0.5,0.7-1.1,1.1-1.8c0.2-0.3,0.4-0.4,0.6-0.5c0.2-0.1,0.4-0.1,0.6,0c0.2,0.1,0.3,0.2,0.3,0.4
					c0,0.2-0.1,0.4-0.3,0.7c-0.3,0.3-0.6,0.7-0.9,1.1c-0.3,0.4-0.7,0.9-1.1,1.4c0.2,0,0.5,0,0.7-0.1c0.2,0,0.5,0,0.6,0
					c0.2,0,0.4,0,0.5,0c0.1,0,0.2,0.1,0.2,0.1c0,0.1,0,0.2-0.1,0.3c-0.1,0-0.2,0-0.4,0c-0.2,0-0.5,0-0.9-0.1c-0.3,0-0.6,0-0.9,0
					c-0.3,0.5-0.7,1-1,1.5c-0.4,0.5-0.7,1.1-1.1,1.8c-0.1,0.1-0.2,0.3-0.3,0.5c-0.1,0.2-0.3,0.5-0.4,0.7c-0.1,0.3-0.2,0.5-0.3,0.7
					c-0.1,0.2-0.1,0.4,0,0.5c0.1,0.1,0.2,0.1,0.4,0c0.2-0.1,0.6-0.3,1.1-0.6c0.2-0.2,0.5-0.4,0.7-0.6c0.3-0.2,0.6-0.5,0.9-0.8
					l0.1,0.2c-0.7,0.8-1.4,1.3-2,1.7c-0.6,0.4-1.1,0.6-1.5,0.6c-0.5,0-0.8-0.1-0.9-0.4c-0.1-0.3,0-0.7,0.3-1.2
					c0.2-0.4,0.5-0.8,0.8-1.3c0.3-0.5,0.6-0.9,0.9-1.3c-0.2,0.2-0.4,0.4-0.5,0.5c-0.1,0.1-0.2,0.3-0.3,0.4c-0.1,0.1-0.2,0.3-0.4,0.4
					c-0.1,0.1-0.3,0.3-0.5,0.6l-0.1-0.2c0.4-0.4,0.7-0.8,1-1.1c0.3-0.4,0.7-0.8,1.1-1.2c0.1-0.1,0.1-0.2,0.2-0.3
					c0.1-0.1,0.2-0.3,0.3-0.4c0.1-0.1,0.2-0.3,0.3-0.4c0.1-0.1,0.2-0.2,0.2-0.3c-0.4,0-0.7,0-1,0
					C176.3,191.5,176.2,191.5,176.3,191.3z"/>
				<path class="st2" d="M186.8,187.5c-0.4,0.5-0.9,0.9-1.2,1.3c-0.4,0.4-0.7,0.7-1.1,1.1c-0.4,0.3-0.7,0.7-1.1,1
					c-0.3,0.3-0.7,0.7-1.1,1.1c-0.4,0.7-0.9,1.4-1.3,2.1c-0.4,0.8-0.9,1.5-1.3,2.2c0,0.2,0.1,0.4,0.2,0.5c0.1,0.1,0.4,0.1,0.6,0
					c0.3-0.1,0.6-0.2,1-0.5c0.4-0.3,0.8-0.6,1.2-1.1l0.1,0.2c-0.4,0.4-0.7,0.8-1.1,1.1c-0.4,0.3-0.7,0.5-1,0.7
					c-0.3,0.2-0.6,0.2-0.9,0.2c-0.3,0-0.5-0.1-0.6-0.3c-0.8,1.3-1.4,2.3-1.9,3.2c-0.5,0.8-0.9,1.6-1.2,2.2c-0.3,0.6-0.6,1.3-0.8,1.8
					c-0.2,0.6-0.4,1.2-0.6,1.9c-0.1,0.3-0.2,0.5-0.4,0.6c-0.2,0.1-0.4,0.1-0.6,0.1c-0.2-0.1-0.3-0.2-0.4-0.4
					c-0.1-0.2-0.1-0.5,0.1-0.8c0.3-0.7,0.7-1.6,1.2-2.5c0.5-0.9,1.1-1.8,1.7-2.9c0.6-1,1.2-2.1,1.9-3.2c0.7-1.1,1.3-2.3,2-3.5
					c-0.1,0.1-0.2,0.2-0.4,0.4c-0.1,0.1-0.3,0.3-0.4,0.4c-0.1,0.2-0.3,0.3-0.5,0.5c-0.2,0.2-0.3,0.3-0.4,0.4l-0.1-0.2
					c0.3-0.3,0.6-0.6,1.1-1.1c0.4-0.4,0.9-0.9,1.3-1.4c0.7-1.2,1.2-2.2,1.7-2.9c0.5-0.8,0.9-1.5,1.2-2c0.4-0.6,0.7-1,1-1.4
					c0.3-0.4,0.6-0.8,0.9-1.1c0.4-0.5,0.9-0.9,1.3-1c0.4-0.1,0.7-0.1,1,0.2c0.2,0.2,0.2,0.6,0.1,1.1
					C187.9,186.1,187.5,186.7,186.8,187.5z M182.9,190.8c0.4-0.4,0.9-0.9,1.4-1.5c0.5-0.6,1.1-1.2,1.8-2c0.4-0.5,0.7-0.9,0.9-1.2
					c0.1-0.3,0.2-0.5,0.1-0.6c-0.1-0.1-0.2,0-0.5,0.2c-0.3,0.2-0.6,0.5-1,1c-0.1,0.1-0.3,0.4-0.5,0.7c-0.2,0.3-0.4,0.6-0.7,1
					c-0.3,0.4-0.5,0.8-0.8,1.2C183.4,190,183.2,190.4,182.9,190.8z"/>
				<path class="st2" d="M188.4,192.5c0.3,0.1,0.3,0.3,0.2,0.5c-0.1,0.2-0.3,0.3-0.6,0.4c0.2,0.1,0.3,0.3,0.3,0.5
					c0,0.2,0,0.4-0.1,0.7c-0.1,0.3-0.2,0.5-0.3,0.8c-0.1,0.3-0.3,0.5-0.5,0.8c0.2,0,0.5-0.1,0.7-0.3c0.3-0.2,0.5-0.4,0.8-0.7
					l0.1,0.2c-0.2,0.3-0.6,0.5-0.9,0.8c-0.4,0.3-0.8,0.4-1.2,0.5c-0.3,0.3-0.7,0.6-1.1,0.8c-0.4,0.2-0.8,0.3-1.1,0.3
					c-0.4,0-0.7-0.1-1-0.2c-0.3-0.2-0.5-0.4-0.6-0.8c-0.1-0.3-0.1-0.7,0-1c0.1-0.3,0.2-0.6,0.3-1c-0.1,0.1-0.2,0.2-0.3,0.3
					c-0.1,0.1-0.2,0.2-0.4,0.4l-0.1-0.2c0.2-0.2,0.4-0.5,0.7-0.7c0.2-0.2,0.5-0.5,0.8-0.8c0.3-0.3,0.6-0.6,1-0.8
					c0.4-0.2,0.7-0.4,1.1-0.5c0.4-0.1,0.7-0.2,1.1-0.2C187.8,192.3,188.1,192.4,188.4,192.5z M184.1,196.6c0.1,0.3,0.2,0.5,0.3,0.6
					c0.2,0.1,0.3,0.1,0.5,0.1c0.2,0,0.4-0.1,0.6-0.2c0.2-0.1,0.5-0.3,0.7-0.5c-0.3-0.2-0.5-0.4-0.6-0.7c0-0.3,0-0.6,0.1-0.9
					c0.1-0.3,0.3-0.6,0.5-0.9c0.2-0.3,0.4-0.5,0.7-0.6c-0.2-0.1-0.5-0.1-0.8,0c-0.4,0.2-0.7,0.4-1,0.7c-0.3,0.3-0.6,0.7-0.8,1.1
					C184.1,195.7,184,196.2,184.1,196.6z M187.2,193.5c-0.2,0.1-0.4,0.3-0.5,0.5c-0.2,0.2-0.3,0.5-0.4,0.7c-0.1,0.3-0.1,0.5,0,0.7
					c0.1,0.2,0.2,0.4,0.5,0.5c0.2-0.2,0.3-0.4,0.4-0.7c0.1-0.2,0.2-0.5,0.3-0.7c0.1-0.2,0.1-0.4,0.1-0.6c0-0.2,0-0.4-0.1-0.5
					C187.4,193.6,187.3,193.5,187.2,193.5z"/>
				<path class="st2" d="M189.9,197.5c-0.1,0.1-0.2,0.2-0.4,0.2c-0.2,0-0.4,0.1-0.5,0.1c-0.2,0-0.3,0-0.4-0.1
					c-0.1-0.1-0.1-0.2,0.1-0.3c0.2-0.3,0.5-0.6,0.8-1c0.3-0.4,0.6-0.7,0.9-1.1c0.3-0.4,0.6-0.8,0.9-1.2c0.3-0.4,0.5-0.8,0.7-1.2
					c-0.2,0.2-0.4,0.4-0.7,0.6c-0.3,0.2-0.5,0.5-0.7,0.7c-0.3,0.2-0.5,0.5-0.7,0.7c-0.2,0.2-0.4,0.4-0.6,0.6l-0.1-0.2
					c0.1-0.1,0.3-0.3,0.6-0.6c0.3-0.3,0.5-0.5,0.8-0.8c0.3-0.3,0.6-0.6,0.8-0.8c0.3-0.3,0.5-0.4,0.6-0.6c0.1-0.1,0.3-0.2,0.5-0.2
					c0.2,0,0.3,0,0.4,0.1c0.1,0.1,0.2,0.2,0.3,0.3c0,0.1,0,0.3-0.1,0.4c-0.4,0.6-0.8,1.2-1.1,1.7c-0.4,0.5-0.8,1-1.2,1.4
					c0.7-0.6,1.3-1.1,1.7-1.5c0.5-0.4,0.8-0.6,1.1-0.9c0-0.1,0.1-0.1,0.1-0.2c0-0.1,0.1-0.1,0.1-0.2c0.3-0.4,0.5-0.7,0.7-0.8
					c0.2-0.2,0.4-0.2,0.6-0.3c0.2,0,0.3,0,0.4,0.2c0.1,0.1,0.1,0.2,0.1,0.4c0,0.2-0.1,0.3-0.2,0.5c-0.1,0.2-0.3,0.3-0.6,0.4
					c-0.3,0.1-0.5,0.2-0.8,0.3c-0.2,0.4-0.4,0.8-0.4,1.1c0,0.3,0,0.5,0.1,0.6c0.1,0.1,0.3,0.1,0.5,0c0.2-0.1,0.5-0.3,0.8-0.5
					l0.1,0.2c-0.3,0.3-0.6,0.5-0.9,0.6c-0.3,0.1-0.6,0.1-0.8,0c-0.2-0.1-0.4-0.2-0.5-0.5c-0.1-0.3-0.1-0.6,0.1-1.1
					c-0.5,0.3-0.9,0.7-1.5,1.1C191.3,196,190.6,196.7,189.9,197.5z"/>
				<path class="st2" d="M195.1,195.2c0.1-0.1,0.3-0.3,0.6-0.6c0.3-0.3,0.5-0.5,0.8-0.8c0.3-0.3,0.6-0.6,0.8-0.8
					c0.3-0.3,0.5-0.4,0.6-0.6c0.1-0.1,0.3-0.2,0.4-0.2c0.1,0,0.3,0,0.4,0.1c0.1,0.1,0.2,0.2,0.2,0.3c0,0.1,0,0.3-0.1,0.4
					c-0.1,0.1-0.2,0.3-0.2,0.4c-0.1,0.1-0.1,0.2-0.2,0.4c0.4-0.5,0.8-0.9,1.2-1.2c0.4-0.3,0.9-0.4,1.4-0.3c0.1,0,0.2,0.1,0.2,0.2
					c0,0.1,0,0.3,0,0.4c-0.1,0.2-0.1,0.4-0.3,0.6c-0.1,0.2-0.2,0.5-0.4,0.7c0.4-0.4,0.7-0.7,1-1c0.3-0.3,0.6-0.5,0.9-0.7
					c0.3-0.2,0.5-0.3,0.8-0.3c0.2,0,0.5,0,0.6,0.2c0.1,0.1,0.2,0.3,0.1,0.5c0,0.2-0.1,0.5-0.3,0.7c-0.1,0.3-0.3,0.5-0.5,0.8
					c-0.2,0.3-0.4,0.6-0.6,0.8c-0.2,0.3-0.4,0.5-0.5,0.7c-0.2,0.2-0.3,0.4-0.3,0.5c-0.1,0.1-0.1,0.2,0,0.2c0.1,0,0.2,0,0.3-0.1
					c0.2-0.1,0.4-0.2,0.7-0.5c0.3-0.2,0.7-0.6,1.1-1l0.1,0.2c-0.2,0.2-0.4,0.5-0.7,0.7c-0.3,0.3-0.6,0.5-0.9,0.8
					c-0.3,0.2-0.6,0.4-0.9,0.6c-0.3,0.1-0.5,0.2-0.7,0.2c-0.2,0-0.3-0.1-0.4-0.2c-0.1-0.1,0-0.3,0.1-0.6c0.1-0.1,0.2-0.3,0.3-0.6
					c0.2-0.2,0.3-0.5,0.5-0.8c0.2-0.3,0.4-0.6,0.6-0.9c0.2-0.3,0.4-0.6,0.6-0.8c0.1-0.2,0.3-0.4,0.3-0.5c0.1-0.1,0.1-0.2,0-0.3
					c0,0-0.1,0-0.3,0.1c-0.1,0.1-0.4,0.3-0.6,0.6c-0.2,0.2-0.4,0.5-0.7,0.8c-0.3,0.4-0.6,0.7-1,1.1c-0.3,0.4-0.7,0.8-1,1.1
					c-0.3,0.4-0.6,0.7-0.8,0.9c0,0-0.1,0.1-0.3,0.1c-0.1,0-0.3,0-0.4,0c-0.1,0-0.2,0-0.3-0.1c-0.1,0-0.1-0.1,0-0.2
					c0.1-0.2,0.3-0.4,0.5-0.7c0.2-0.3,0.4-0.6,0.6-0.9c0.2-0.3,0.5-0.6,0.7-1c0.2-0.3,0.4-0.6,0.6-0.9c0.2-0.3,0.3-0.5,0.4-0.7
					c0.1-0.2,0.1-0.3,0-0.3c-0.1-0.1-0.3,0-0.6,0.1c-0.2,0.2-0.5,0.4-0.7,0.7c-0.3,0.3-0.6,0.7-0.9,1c-0.3,0.4-0.6,0.8-1,1.2
					c-0.3,0.4-0.7,0.7-1,1c-0.4,0.3-0.7,0.5-1,0.6c-0.1,0-0.1,0-0.2,0c-0.1,0-0.2,0-0.2-0.1c-0.1,0-0.1-0.1-0.1-0.2
					c0-0.1,0-0.1,0.1-0.3c0.2-0.3,0.5-0.6,0.8-1c0.3-0.4,0.6-0.7,0.9-1.1c0.3-0.4,0.6-0.8,0.9-1.2c0.3-0.4,0.5-0.8,0.7-1.2
					c-0.2,0.2-0.4,0.4-0.6,0.6c-0.2,0.2-0.5,0.5-0.7,0.7c-0.3,0.2-0.5,0.5-0.7,0.7c-0.2,0.2-0.4,0.4-0.6,0.6L195.1,195.2z"/>
			</g>
			<g>
				<path class="st2" d="M136.9,183.8c0.6,0.3,0.9,0.7,0.9,1c0,0.5-0.5,1-1,1.6c-0.3,0.1-0.4,0.1-0.4,0.2c-0.1,0.1-0.1,0.1-0.4,0.4
					c-1.1,0.5-0.6,0.3-1.4,0.6c-0.6,0.3-0.3,0.2-1.1,0.3c-0.7,0.4-0.1,0.1-1.7,0.4c-0.3,0.1-0.4,0.1-0.5,0.1c-0.1,0-0.2-0.2-0.9-0.2
					l-0.4,0.4c-0.5,1.1-0.2,0.6-0.9,1.4c-0.4,0.9-0.8,1.7-1.2,2.6c-0.3,0.9-0.1,0.5-0.5,1.3c-0.1,0.5-0.2,1-0.2,1.6
					c0,0.5,0.1,1,0.1,1.4c0.2,0.4,0.5,1.1,1,1.1c0.6,0,1-0.1,1.2-0.2c1.4-0.3,1.7-1.1,2.2-1.3c0.9-0.8,1.8-1.7,2.3-2.2
					c0.4-0.5,0.7-1.6,1.2-2.3c0.3-0.6,0.6-1.3,0.7-1.6c0.3-0.9,0.3-1.3,0.3-2.2l-0.1-0.3c0-0.2,0.1-0.5,0.2-0.5
					c0.1,0,0.1,0.1,0.2,0.3c0.1,0.4,0.2,0.7,0.2,1c0,0.6-0.1,1-0.3,1.9l-0.3,0.7c-0.5,1.1-0.4,0.7-1.1,1.9c-0.7,1-0.1,0.5-0.9,1.5
					c-0.7,0.8-0.4,0.5-0.9,1c-1.2,1.1-1.5,1.7-3.2,2.4c-1.1,0.5-1.3,0.7-2.2,0.7c-0.8,0-1.7-0.3-1.9-1.1l-0.2-0.4l-0.1-1.6
					c0.1-0.5,0.1-1,0.3-1.5c0.1-0.5,0.5-1.2,0.7-1.9c0.7-1.3,1.1-1.7,1.3-2c0.2-0.5,0.3-0.8,1.1-1.8c-0.1-0.5-0.3-0.3-1.2-0.7
					c-0.4-0.1-0.9-0.8-0.9-1.3c0-0.4,0-0.7,0.3-1c0-0.4,0.5-0.6,0.7-0.8c0.5-0.5,1.7-1.1,2.3-1.1c0.3,0,0.9,0.1,0.9,0.2
					c0,0.1-0.1,0.3-0.5,0.3c-0.1,0-0.2,0-0.2,0c0,0-0.1,0-0.2,0c0,0-0.3,0-0.3,0c-0.7,0.3-1.6,0.6-2,1.6c0,0.2,0,0.5,0,0.7
					c0,0.5,0.5,1,1.3,1.3h0.3c1.7-1.5,0.8-0.8,2.6-2.2c1.9-1.1,2.1-1.4,4.1-1.4H136.9z M136,184.3c-0.2,0-0.4,0.1-1,0.3
					c-1.2,0.3-1.8,1.1-2.8,1.7c-0.7,0.6-0.4,0.4-0.9,0.8c0,0-0.5,0.4-0.5,0.6c0,0,0,0.1,0.1,0.1c0.7,0.1,1,0,1.2,0
					c0.1,0,0.3,0,0.6,0c2-0.6,2.7-0.6,4.2-2c0.3-0.3,0.4-0.6,0.4-0.8C137.1,184.6,136.7,184.3,136,184.3z"/>
				<path class="st2" d="M139.4,195.4c0-0.1-0.1-0.2-0.2-0.2c-0.1,0-0.3,0.2-0.5,0.3l-1.5,1.2c-0.4,0.3-1.3,1.2-1.8,1.2l-0.1-0.1
					l0-0.2l0.9-1.7c0.1-0.2,0.1-0.3,0.1-0.4c0-0.2-0.1-0.2-0.2-0.2c-0.2,0-0.5,0.1-0.8,0.3l-0.8,0.5c-0.3,0.2-0.5,0.2-0.6,0.2
					c0,0-0.1,0-0.1-0.1c0,0,0-0.1,0.1-0.1l0.8-0.6c0.8-0.6,1.5-1,2.5-1.3c0.3,0,0.4,0.1,0.4,0.4c0,0.4-0.3,0.9-0.3,1.1l-0.1,0.3
					l0.1,0.1l1-0.8c0.6-0.5,1.4-1,2.2-1c0.1,0.1,0.1,0.3,0.1,0.4c0,0.4-0.3,0.8-0.4,1.1c-0.2,0.2-0.5,0.6-0.5,0.8
					c0,0.1,0,0.2,0.1,0.2c0.2,0,0.3,0,0.3,0c0.2-0.1,0.3-0.2,1.3-0.7c0.3-0.2,0.5-0.3,0.6-0.3l0.1,0c0,0.1-0.3,0.4-0.6,0.6
					c-0.9,0.7-1.7,1.2-2.7,1.3c-0.2-0.1-0.3-0.3-0.3-0.4c0-0.1,0.1-0.3,0.1-0.5L139.4,195.4z"/>
				<path class="st2" d="M143.8,197.1c0.9-0.1,1.1-0.1,2.4-1c0.3-0.2,0.5-0.3,0.6-0.3l0,0c0,0.1-0.3,0.4-0.6,0.6l-0.3,0.3
					c-1,0.8-1.8,1.1-3.1,1.2c-0.5-0.1-0.5-0.3-0.5-0.9c0.4-1.3,1.3-2.1,2.3-2.7c0.3-0.2,0.8-0.6,1.1-0.2c0,0.9-0.3,1.3-1.2,2
					l-0.5,0.4c-0.1,0.1-0.4,0.3-0.3,0.5L143.8,197.1z M143.5,196.5L143.5,196.5c0.6-0.4,0.9-0.8,1.3-1.3c0.1-0.2,0.1-0.4-0.2-0.4
					c-0.1,0-0.4,0.1-0.7,0.3c-0.3,0.2-0.5,0.5-0.6,0.9L143.5,196.5L143.5,196.5z"/>
			</g>
			<g>
				<path class="st2" d="M111.3,196.6c-0.2,0.3-0.2,0.5-0.2,0.6c0,0.1,0.2,0.1,0.4,0c0.2-0.1,0.6-0.3,1-0.6c0.4-0.3,0.9-0.8,1.4-1.3
					l0.1,0.2c-0.4,0.4-0.7,0.7-1,1c-0.3,0.3-0.5,0.5-0.8,0.7c-0.2,0.2-0.5,0.3-0.7,0.4c-0.2,0.1-0.4,0.1-0.6,0.2
					c-0.5,0-0.8-0.1-0.9-0.4c-0.1-0.3,0-0.7,0.2-1.2c0.1-0.2,0.2-0.4,0.4-0.7c0.2-0.3,0.4-0.5,0.6-0.8c0.2-0.3,0.4-0.6,0.6-0.8
					c0.2-0.3,0.3-0.5,0.5-0.7c-0.3,0.2-0.5,0.4-0.6,0.6c-0.2,0.2-0.3,0.3-0.4,0.5c-0.1,0.2-0.3,0.3-0.5,0.5
					c-0.2,0.2-0.4,0.4-0.7,0.7l-0.1-0.2c0.5-0.5,0.9-1,1.4-1.5c0.4-0.5,0.9-1,1.4-1.4c0.1-0.1,0.3-0.2,0.5-0.2c0.2,0,0.4,0,0.6,0
					c0.2,0,0.3,0.1,0.4,0.3c0.1,0.1,0,0.3-0.2,0.4c-0.2,0.2-0.5,0.5-0.7,0.8c-0.3,0.3-0.5,0.6-0.7,1c-0.2,0.3-0.5,0.7-0.7,1
					C111.7,195.9,111.5,196.3,111.3,196.6z M115.3,188.5c0.1-0.1,0.3-0.2,0.5-0.2c0.2,0,0.4,0,0.5,0c0.2,0.1,0.2,0.2,0.3,0.3
					c0,0.1-0.1,0.3-0.3,0.5c-0.1,0-0.1,0.1-0.2,0.3c-0.1,0.1-0.2,0.3-0.4,0.4c-0.1,0.1-0.3,0.2-0.4,0.3c-0.2,0.1-0.3,0.1-0.4,0
					c-0.3-0.1-0.4-0.4-0.2-0.6C114.7,189.1,115,188.8,115.3,188.5z"/>
				<path class="st2" d="M119.1,195.4c0-0.1-0.1-0.2-0.2-0.2c-0.1,0-0.3,0.2-0.5,0.3l-1.5,1.2c-0.4,0.3-1.3,1.2-1.8,1.2l-0.1-0.1
					l0-0.2l0.9-1.7c0.1-0.2,0.1-0.3,0.1-0.4c0-0.2-0.1-0.2-0.2-0.2c-0.2,0-0.5,0.1-0.8,0.3l-0.8,0.5c-0.3,0.2-0.5,0.2-0.6,0.2
					c0,0-0.1,0-0.1-0.1c0,0,0-0.1,0.1-0.1l0.8-0.6c0.8-0.6,1.5-1,2.5-1.3c0.3,0,0.4,0.1,0.4,0.4c0,0.4-0.3,0.9-0.3,1.1l-0.1,0.3
					l0.1,0.1l1-0.8c0.6-0.5,1.4-1,2.2-1c0.1,0.1,0.1,0.3,0.1,0.4c0,0.4-0.3,0.8-0.4,1.1c-0.2,0.2-0.5,0.6-0.5,0.8
					c0,0.1,0,0.2,0.1,0.2c0.2,0,0.3,0,0.3,0c0.2-0.1,0.3-0.2,1.3-0.7c0.3-0.2,0.5-0.3,0.6-0.3l0.1,0c0,0.1-0.3,0.4-0.6,0.6
					c-0.9,0.7-1.7,1.2-2.7,1.3c-0.2-0.1-0.3-0.3-0.3-0.4c0-0.1,0.1-0.3,0.1-0.5L119.1,195.4z"/>
			</g>
		</g>
		<path class="st2" d="M259.9,194.9h-45.3c-0.3,0-0.6-0.3-0.6-0.6s0.3-0.6,0.6-0.6h45.3c0.3,0,0.6,0.3,0.6,0.6
			S260.2,194.9,259.9,194.9z"/>
	</g>
</g>
</svg>
