<?xml version="1.0" encoding="utf-8"?>
<!-- Generator: Adobe Illustrator 19.1.0, SVG Export Plug-In . SVG Version: 6.00 Build 0)  -->
<svg version="1.1" id="Layer_1" xmlns="http://www.w3.org/2000/svg" xmlns:xlink="http://www.w3.org/1999/xlink" x="0px" y="0px"
	 viewBox="0 0 476.2 359.2" style="enable-background:new 0 0 476.2 359.2;" xml:space="preserve">
<style type="text/css">
	.st0{fill-rule:evenodd;clip-rule:evenodd;fill:#ADA381;}
	.st1{fill-rule:evenodd;clip-rule:evenodd;fill:#D9CEA8;}
	.st2{fill:#D9CEA8;}
	.st3{fill:#ADA381;}
</style>
<g>
	<g>
		<polygon class="st0" points="277,40.6 301.9,65.5 301.9,164.9 277,140.1 		"/>
		<polygon class="st0" points="242.8,9.6 267.7,34.4 267.7,133.9 242.8,109 		"/>
		<polygon class="st1" points="311.3,164.9 336.1,140.1 336.1,40.6 311.3,65.5 		"/>
		<polygon class="st1" points="277,196 301.9,171.1 301.9,71.7 277,96.6 		"/>
		<polygon class="st1" points="242.8,227.1 267.7,202.2 267.7,102.8 242.8,127.6 		"/>
		<polygon class="st1" points="199.2,40.6 174.3,65.5 174.3,164.9 199.2,140.1 		"/>
		<polygon class="st1" points="233.4,9.6 208.6,34.4 208.6,133.9 233.4,109 		"/>
		<polygon class="st0" points="164.9,164.9 140.1,140.1 140.1,40.6 164.9,65.5 		"/>
		<polygon class="st0" points="199.2,196 174.3,171.1 174.3,71.7 199.2,96.6 		"/>
		<polygon class="st0" points="233.4,227.1 208.6,202.2 208.6,102.8 233.4,127.6 		"/>
		<polygon class="st1" points="164.9,71.7 140.1,96.6 140.1,196 164.9,171.1 		"/>
		<polygon class="st0" points="311.3,71.7 336.1,96.6 336.1,196 311.3,171.1 		"/>
	</g>
	<g>
		<g>
			<path class="st2" d="M53.1,275H33.8v10.3v3.9c0.1,0.4,0.2,0.7,0.3,0.9c0.2,0.2,0.4,0.4,0.8,0.4c0.4,0,0.7,0.1,1.1,0.1
				c0.3,0,0.7,0,1.1,0c0.3,0,0.7,0.1,1,0.1c0.4,0,0.7,0,1,0v2H23.2v-2.1h1.3c2,0,3.1-0.1,3.5-0.4c0.4-0.3,0.6-1.2,0.6-2.7v-2.3
				v-21.8v-3.9c0-0.3-0.1-0.6-0.3-0.8c-0.2-0.2-0.4-0.3-0.8-0.4c-0.3,0-0.7-0.1-1-0.1c-0.4,0-0.7,0-1-0.1c-0.4,0-0.7,0-1.1,0
				c-0.3,0-0.7,0-1.1,0v-2.1h15.9v2.1h-1.3c-0.9,0-1.7,0.1-2.4,0.2c-0.7,0.1-1.1,0.2-1.3,0.4c-0.1,0.1-0.1,0.2-0.2,0.4
				c-0.1,0.2-0.1,0.3-0.1,0.5v3.9v8.9h19.3v-8.9v-2.3c0-1.5-0.2-2.3-0.6-2.6c-0.4-0.3-1.5-0.4-3.5-0.4l-1.3-0.1v-2.1h15.9v2.1h-1.3
				c-0.9,0-1.7,0.1-2.4,0.2c-0.7,0.1-1.1,0.2-1.3,0.4c-0.1,0.1-0.1,0.2-0.2,0.4c-0.1,0.2-0.1,0.3-0.1,0.5v3.9v21.8v2.3
				c0,1.5,0.2,2.4,0.6,2.7c0.4,0.3,1.5,0.4,3.5,0.4l1.3-0.1v2.1H47.7v-2.1H49c1.9,0,3.1-0.1,3.5-0.4c0.4-0.3,0.6-1.2,0.6-2.7v-2.3
				V275z"/>
			<path class="st2" d="M84.5,255.4c5,0,9.2,1.9,12.6,5.6c3.5,3.7,5.2,8.2,5.2,13.5c0,5.3-1.7,9.8-5.2,13.5
				c-3.5,3.7-7.7,5.5-12.7,5.5c-5,0-9.2-1.8-12.7-5.5c-3.5-3.7-5.3-8.1-5.3-13.4c0-5.4,1.8-9.9,5.2-13.6
				C75.2,257.3,79.5,255.5,84.5,255.4L84.5,255.4z M84.4,257.7c-3.9,0-6.8,1.4-8.8,4.1c-2,2.7-2.9,6.8-2.9,12.3c0,5.8,1,10.1,3,13
				c2,2.9,4.9,4.4,8.9,4.4c3.8,0,6.7-1.4,8.7-4.2c2-2.8,3-6.9,3-12.3c0-5.8-1-10.1-2.9-13C91.3,259.2,88.3,257.7,84.4,257.7
				L84.4,257.7z"/>
			<path class="st2" d="M131,258.1v-2.1h13.8v2.1c-2.4,0.2-3.9,0.7-4.4,1.5c-0.6,0.8-0.9,2.8-0.9,6v10.9c0,2.9-0.1,5.1-0.3,6.6
				c-0.2,1.5-0.6,2.8-1.2,3.9c0,0.1-0.1,0.1-0.1,0.2c0,0-0.1,0.1-0.1,0.2c-1.3,2.3-3.1,3.9-5.4,4.7c-2.3,0.8-4.7,1.3-7.2,1.3
				c0,0-0.1,0-0.1,0c-0.1,0-0.1,0-0.2,0c-3.5,0-6.4-0.6-8.7-1.8c-2.3-1.2-3.9-2.9-4.8-5.1c-0.3-1-0.6-2.1-0.7-3.3
				c-0.2-1.2-0.2-2.8-0.2-4.9v-14.9v-2.3c0-1,0-1.6,0-1.8c0-0.3-0.1-0.5-0.2-0.6c0,0,0,0,0,0c0,0,0,0,0,0c-0.1-0.1-0.2-0.1-0.3-0.2
				c-0.2-0.1-0.3-0.1-0.5-0.2c-0.3-0.1-0.7-0.1-1-0.1c-0.4,0-0.7,0-1-0.1c-0.4,0-0.7,0-1.1,0c-0.3,0-0.7,0-1.1,0v-2.1H121v2.1h-1.3
				c-1,0-1.9,0.1-2.5,0.2c-0.7,0.1-1.1,0.2-1.2,0.4c-0.1,0.1-0.1,0.2-0.2,0.4c0,0.2-0.1,0.3-0.1,0.5v3.9v14.9c0,2.6,0.2,4.5,0.5,5.8
				c0.3,1.3,0.9,2.4,1.7,3.4c1,1,2.1,1.8,3.4,2.3c1.3,0.5,2.9,0.8,4.6,0.8c2.2,0,4.1-0.4,5.7-1.1c1.6-0.7,2.8-1.8,3.6-3.2
				c0.1-0.2,0.2-0.3,0.3-0.5c0.1-0.1,0.2-0.3,0.2-0.5c0.5-1,0.8-2.1,1-3.3c0.2-1.2,0.2-3,0.2-5.4v-11c0-3.1-0.3-5.1-1-5.9
				C135.3,258.9,133.6,258.4,131,258.1L131,258.1z"/>
			<path class="st2" d="M172.9,256.1v13.1h-1.6c-0.1-0.2-0.1-0.4-0.2-0.6c-0.1-0.2-0.1-0.4-0.2-0.6c-0.8-2.6-2.1-4.9-3.8-7
				c-1.7-2.1-4-3.2-7.1-3.2c-2.1,0-3.8,0.6-5.1,1.7c-1.3,1.2-2,2.6-2,4.4c0,2.2,0.9,3.7,2.7,4.5c1.8,0.9,3.8,1.6,6.2,2.2
				c0.3,0.1,0.7,0.1,1,0.2c0.3,0.1,0.7,0.2,1,0.3c2.7,0.7,5.2,1.8,7.5,3.2c2.3,1.4,3.4,3.9,3.4,7.6c0,3.4-1.1,6.1-3.4,8.3
				c-2.2,2.1-5.1,3.2-8.7,3.2c-1.9,0-3.5-0.3-5-0.8c-1.5-0.5-2.9-1.4-4.3-2.6c-0.1-0.1-0.3-0.3-0.4-0.4c-0.1-0.1-0.2-0.2-0.4-0.4
				l-2.3,3.4h-1.7v-14.1h1.7c0,0.1,0,0.1,0,0.2c0,0.1,0,0.1,0.1,0.2c0.9,3.1,2.3,5.9,4.2,8.5c1.9,2.6,4.7,3.9,8.4,3.9
				c2.3,0,4.2-0.6,5.7-1.9c1.5-1.3,2.2-2.9,2.2-4.8c0-2.4-1-4.1-2.9-5.1c-1.9-1-4.1-1.8-6.5-2.5c-0.2-0.1-0.5-0.1-0.7-0.2
				c-0.3-0.1-0.5-0.1-0.7-0.2c-2.7-0.8-5.2-1.8-7.5-3.2c-2.3-1.3-3.4-3.7-3.4-7.2c0-3.1,1-5.7,3.1-7.8c2-2.1,4.5-3.2,7.5-3.2
				c1.1,0,2.1,0.1,3.1,0.3c0.9,0.2,1.8,0.5,2.7,0.9c0.6,0.3,1.2,0.6,1.8,1c0.6,0.4,1.2,0.9,1.9,1.4l2.2-3H172.9z"/>
			<path class="st2" d="M210.1,256.1l0.6,13H209c-0.7-3.6-1.8-6.3-3.2-8.2c-1.4-1.8-4.2-2.7-8.2-2.7l-4.8,0c-1.6,0-2.6,0.2-2.9,0.4
				c-0.3,0.2-0.5,0.9-0.5,2.1v12.1c3.1,0,5.6-0.3,7.5-0.9c1.9-0.6,3.1-2.7,3.7-6.2l1.9-0.1v16.8h-1.9c-0.2-3.6-1.4-5.8-3.4-6.5
				c-2-0.7-4.6-1.1-7.8-1.1v13.5c0,1.2,0.2,1.8,0.5,2.1c0.3,0.2,1.2,0.4,2.6,0.4l6.1,0c2,0,3.5-0.1,4.5-0.3c1-0.3,1.9-0.8,2.7-1.5
				c1.2-1.2,2.1-2.5,2.6-4c0.6-1.5,1-3,1.4-4.6c0-0.2,0.1-0.3,0.1-0.5c0-0.2,0.1-0.4,0.1-0.6c0,0,0-0.1,0-0.1c0-0.1,0-0.1,0-0.1
				l1.7-0.1l-0.4,13.8h-32.5v-2.1h1.3c1.1,0,2,0,2.6-0.1c0.6-0.1,1-0.2,1.2-0.4c0.1-0.1,0.1-0.2,0.2-0.4c0.1-0.2,0.1-0.4,0.1-0.6v-4
				v-21.8v-3.9c0-0.2-0.1-0.3-0.1-0.5c-0.1-0.2-0.1-0.3-0.2-0.4c-0.1-0.2-0.4-0.3-0.9-0.4c-0.4-0.1-1.4-0.2-2.9-0.2l-1.3-0.1v-2.1
				H210.1z"/>
		</g>
	</g>
	<g>
		<path class="st3" d="M232.1,269.4c-4,0.5-4.5,6.6-4.6,7.5c-0.1,0.8,0.4,4.2,2.7,4.2c2.3,0,4.6-3.7,4.7-7.6
			C235.1,269.5,232.1,269.4,232.1,269.4z"/>
		<path class="st3" d="M238.1,255.5c-10.3,0-18.6,8.3-18.6,18.6c0,10.3,8.3,18.6,18.6,18.6c10.3,0,18.6-8.3,18.6-18.6
			C256.8,263.8,248.4,255.5,238.1,255.5z M252.3,262.9l-2.4-1.7C252.2,261.2,252.3,262.9,252.3,262.9z M230,282.2
			c-3.6,0-5.1-2.7-5.1-5.4c0-2.7,1.6-7.9,7.4-8.3c0,0,5.1-0.4,5.2,5.1C237.7,279.1,233.7,282.2,230,282.2z M250.4,265.4
			c0,0-0.7-1.3-2.3-1.3c-1.6,0-2.7,1.2-3.2,4.5h3.8l-0.1,1.1h-3.9l-2,11.2c0,0-0.2,6.6-6.2,6.2l0.1-0.5c0,0,2.5-0.2,3.3-4
			c0.8-3.8,2.3-12.8,2.3-12.8l-2.1-0.1l0.3-1.1h2c0,0-0.1-5.6,6.2-5.6c2.1,0,2.6,1.2,2.7,1.8L250.4,265.4z"/>
	</g>
	<g>
		<path class="st2" d="M287.3,273.7C287.3,273.7,287.4,273.7,287.3,273.7c0.1,0,0.2,0.1,0.2,0.1c2,0.3,3.8,0.7,5.4,1.2
			c1.6,0.6,3,1.7,4.1,3.5c0.4,0.7,0.8,1.4,1,2.2c0.2,0.8,0.3,1.6,0.3,2.4c0,3.1-1.1,5.3-3.3,6.7c-2.2,1.4-4.6,2.3-7.3,2.6
			c-0.8,0.1-1.6,0.2-2.4,0.3c-0.8,0-1.6,0.1-2.3,0.1h-18.7v-2.1h1.3c1.9,0,3.1-0.1,3.5-0.4c0.4-0.3,0.6-1.2,0.6-2.6v-2.3v-21.8v-2.3
			c0-1,0-1.6,0-1.9c0-0.3-0.1-0.5-0.2-0.6c0,0,0,0,0,0c0,0,0,0,0,0c0,0-0.1-0.1-0.1-0.1c0,0-0.1,0-0.2-0.1c-0.2-0.1-0.6-0.2-1.1-0.3
			c-0.5-0.1-1.3-0.1-2.4-0.1l-1.3-0.1v-2.1h15.9c2.8,0,4.9,0.2,6.5,0.4c1.6,0.2,3,0.6,4.3,1.1c1.7,0.7,3,1.8,4,3.1
			c1,1.4,1.5,2.8,1.5,4.4c0,2.3-0.9,4.3-2.5,5.9C292.2,272.5,290,273.5,287.3,273.7L287.3,273.7z M274.9,275v10.3l0,1.8l0,1.7
			c0,0.7,0.1,1.1,0.4,1.4c0.2,0.2,0.7,0.4,1.4,0.4h2.3c0.6,0,1.3,0.1,1.9,0.1c0.6,0,1.3,0,1.9-0.1c0.6,0,1.2-0.1,1.9-0.1
			c0.6-0.1,1.3-0.1,1.9-0.2c1.9-0.3,3.3-1.1,4.3-2.3c1-1.2,1.4-2.9,1.4-5c0-0.1,0-0.2,0-0.3c0-0.1,0-0.2,0-0.4
			c-0.1-1.2-0.4-2.4-1-3.5c-0.5-1.1-1.4-1.9-2.5-2.5c-0.1-0.1-0.2-0.1-0.3-0.2c-0.1-0.1-0.2-0.1-0.4-0.2c-0.9-0.4-2-0.7-3.2-0.8
			c-1.2-0.1-3.1-0.2-5.6-0.2H274.9z M274.9,272.7h5c2.8,0,5.3-0.3,7.5-1c2.2-0.7,3.3-2.8,3.3-6.3c0-2.6-0.7-4.5-2.1-5.6
			c-1.4-1.1-3.8-1.7-7.1-1.7l-3.4,0c-1.5,0-2.5,0.1-2.8,0.3c-0.3,0.2-0.5,0.8-0.5,1.7v1.4V272.7z"/>
		<path class="st2" d="M323.3,255.4c5,0,9.2,1.9,12.6,5.6c3.5,3.7,5.2,8.2,5.2,13.5c0,5.3-1.7,9.8-5.2,13.5
			c-3.5,3.7-7.7,5.5-12.7,5.5c-5,0-9.2-1.8-12.7-5.5c-3.5-3.7-5.3-8.1-5.3-13.4c0-5.4,1.7-9.9,5.2-13.6
			C313.9,257.3,318.2,255.5,323.3,255.4L323.3,255.4z M323.1,257.7c-3.9,0-6.8,1.4-8.8,4.1c-1.9,2.7-2.9,6.8-2.9,12.3
			c0,5.8,1,10.1,3,13c2,2.9,4.9,4.4,8.9,4.4c3.8,0,6.7-1.4,8.7-4.2c2-2.8,3-6.9,3-12.3c0-5.8-1-10.1-2.9-13
			C330,259.2,327.1,257.7,323.1,257.7L323.1,257.7z M318.1,246.9c0.8,0,1.5,0.3,2.1,0.9c0.6,0.6,0.9,1.3,0.9,2.1
			c0,0.8-0.3,1.5-0.9,2.1c-0.6,0.6-1.3,0.9-2.1,0.9s-1.5-0.3-2.1-0.9c-0.6-0.6-0.9-1.3-0.9-2.1c0-0.8,0.3-1.5,0.9-2.1
			C316.6,247.1,317.3,246.9,318.1,246.9z M328.3,246.9c0.8,0,1.5,0.3,2.1,0.9c0.6,0.6,0.9,1.3,0.9,2.1c0,0.8-0.3,1.5-0.9,2.1
			c-0.6,0.6-1.3,0.9-2.1,0.9c-0.8,0-1.5-0.3-2.1-0.9c-0.6-0.6-0.9-1.3-0.9-2.1c0-0.8,0.3-1.5,0.9-2.1
			C326.8,247.1,327.5,246.9,328.3,246.9z"/>
		<path class="st2" d="M366.4,274.3c1.9,0.4,3.4,0.8,4.3,1.3c0.9,0.5,1.7,1.2,2.4,2.2c0.4,0.6,0.8,1.5,1.1,2.4c0.4,1,0.7,2,1,3.1
			c0.1,0.3,0.1,0.5,0.2,0.8c0.1,0.3,0.2,0.5,0.2,0.7c0.5,1.4,0.9,2.6,1.4,3.6c0.5,1,1,1.5,1.5,1.5c0.6,0,1-0.4,1.4-1.1
			c0.3-0.7,0.6-2.1,0.8-4l1.8-0.1c0,0.1,0,0.2,0,0.3c0,0.1,0,0.2,0,0.3c-0.2,2-0.6,3.9-1.4,5.5c-0.7,1.7-2.4,2.5-5,2.5
			c-1.1,0-2.1-0.2-3-0.6c-0.9-0.4-1.6-1-2.1-1.7c-0.6-0.8-1-1.7-1.2-2.6c-0.3-0.9-0.4-1.8-0.5-2.7c-0.1-0.4-0.1-0.7-0.2-1.1
			c0-0.3-0.1-0.7-0.1-1c-0.2-2.3-0.8-4.4-1.7-6.1c-0.9-1.7-3.6-2.6-8-2.6l-2.4-0.1v10.4v3.9c0.1,0.4,0.2,0.7,0.3,0.9
			c0.2,0.2,0.4,0.4,0.8,0.4c0.8,0.1,1.6,0.2,2.3,0.2c0.8,0,1.6,0,2.3,0v2h-16.4v-2.1h1.3c2,0,3.1-0.1,3.5-0.4
			c0.4-0.3,0.6-1.2,0.6-2.7v-2.3v-21.8v-3.9c0-0.3-0.1-0.6-0.3-0.9c-0.2-0.2-0.4-0.4-0.8-0.4c-0.3,0-0.7-0.1-1-0.1
			c-0.4,0-0.7,0-1-0.1c-0.4,0-0.7,0-1.1,0c-0.3,0-0.7,0-1.1,0v-2.1h16.4c0.8,0,1.8,0.1,2.7,0.1c1,0.1,1.9,0.1,2.9,0.3
			c2.6,0.3,5,1.1,7.2,2.4c2.2,1.2,3.3,3.4,3.3,6.4c0,1.7-0.5,3.1-1.4,4.5c-0.9,1.3-2.2,2.4-3.9,3.2c-0.3,0.1-0.7,0.3-0.9,0.4
			c-0.3,0.1-0.6,0.2-0.9,0.3c-0.7,0.2-1.4,0.4-2.2,0.5C368.6,274.2,367.6,274.2,366.4,274.3z M356.9,272.6h4.8c3.3,0,6-0.3,8.1-1
			c2.2-0.7,3.3-3,3.3-6.9c0-3-1-4.8-2.9-5.5c-1.9-0.7-4.1-1.1-6.5-1.1l-3.8,0c-0.8,0-1.4,0.1-1.6,0.1c-0.3,0-0.5,0.1-0.7,0.2
			c0,0-0.1,0.1-0.1,0.1c0,0-0.1,0-0.1,0.1c-0.2,0.1-0.3,0.3-0.4,0.5c-0.1,0.2-0.1,0.7-0.1,1.5V272.6z"/>
		<path class="st2" d="M414.1,256.1v13.1h-1.6c-0.1-0.2-0.1-0.4-0.2-0.6c-0.1-0.2-0.1-0.4-0.2-0.6c-0.8-2.6-2.1-4.9-3.8-7
			c-1.7-2.1-4-3.2-7.1-3.2c-2.1,0-3.8,0.6-5.1,1.7c-1.3,1.2-2,2.6-2,4.4c0,2.2,0.9,3.7,2.7,4.5c1.8,0.9,3.8,1.6,6.2,2.2
			c0.3,0.1,0.7,0.1,1,0.2c0.3,0.1,0.7,0.2,1,0.3c2.7,0.7,5.2,1.8,7.5,3.2c2.3,1.4,3.4,3.9,3.4,7.6c0,3.4-1.1,6.1-3.4,8.3
			c-2.2,2.1-5.1,3.2-8.7,3.2c-1.9,0-3.5-0.3-5-0.8c-1.5-0.5-2.9-1.4-4.3-2.6c-0.1-0.1-0.3-0.3-0.4-0.4c-0.1-0.1-0.2-0.2-0.4-0.4
			l-2.3,3.4h-1.7v-14.1h1.7c0,0.1,0,0.1,0,0.2c0,0.1,0,0.1,0.1,0.2c0.9,3.1,2.3,5.9,4.2,8.5c1.9,2.6,4.7,3.9,8.4,3.9
			c2.3,0,4.2-0.6,5.7-1.9c1.5-1.3,2.2-2.9,2.2-4.8c0-2.4-1-4.1-2.9-5.1c-1.9-1-4.1-1.8-6.5-2.5c-0.2-0.1-0.5-0.1-0.7-0.2
			c-0.3-0.1-0.5-0.1-0.7-0.2c-2.7-0.8-5.2-1.8-7.5-3.2c-2.3-1.3-3.4-3.7-3.4-7.2c0-3.1,1-5.7,3-7.8c2-2.1,4.5-3.2,7.5-3.2
			c1.1,0,2.1,0.1,3.1,0.3c0.9,0.2,1.8,0.5,2.7,0.9c0.6,0.3,1.2,0.6,1.8,1c0.6,0.4,1.2,0.9,1.9,1.4l2.2-3H414.1z"/>
		<path class="st2" d="M451.3,256.1l0.6,13h-1.7c-0.7-3.6-1.8-6.3-3.2-8.2c-1.4-1.8-4.2-2.7-8.2-2.7l-4.8,0c-1.6,0-2.6,0.2-2.9,0.4
			c-0.3,0.2-0.5,0.9-0.5,2.1v12.1c3.1,0,5.6-0.3,7.5-0.9c1.9-0.6,3.1-2.7,3.7-6.2l1.9-0.1v16.8h-1.9c-0.2-3.6-1.4-5.8-3.4-6.5
			c-2-0.7-4.6-1.1-7.8-1.1v13.5c0,1.2,0.2,1.8,0.5,2.1c0.3,0.2,1.2,0.4,2.6,0.4l6.1,0c2,0,3.5-0.1,4.5-0.3c1-0.3,1.9-0.8,2.7-1.5
			c1.2-1.2,2.1-2.5,2.6-4c0.6-1.5,1-3,1.4-4.6c0-0.2,0.1-0.3,0.1-0.5c0.1-0.2,0.1-0.4,0.1-0.6c0,0,0-0.1,0-0.1c0-0.1,0-0.1,0-0.1
			l1.7-0.1l-0.4,13.8h-32.5v-2.1h1.3c1.1,0,1.9,0,2.6-0.1c0.6-0.1,1-0.2,1.2-0.4c0.1-0.1,0.1-0.2,0.2-0.4c0.1-0.2,0.1-0.4,0.1-0.6
			v-4v-21.8v-3.9c0-0.2-0.1-0.3-0.1-0.5c-0.1-0.2-0.1-0.3-0.2-0.4c-0.1-0.2-0.4-0.3-0.9-0.4c-0.4-0.1-1.4-0.2-2.9-0.2l-1.3-0.1v-2.1
			H451.3z"/>
	</g>
	<g>
		<path class="st2" d="M104.1,328.8H24.2c-0.6,0-1.1-0.5-1.1-1.1c0-0.6,0.5-1.1,1.1-1.1h79.9c0.6,0,1.1,0.5,1.1,1.1
			C105.2,328.3,104.7,328.8,104.1,328.8z"/>
		<g>
			<g>
				<path class="st2" d="M159.3,310.3c-0.3,1.4-0.2,0.6-0.3,2.4c-0.3,0.9-0.2,0.4-0.4,1.3l-0.5,1.1c-0.1,0.7,0,0.3-0.6,1.2
					c-0.3,1.4,0,0.7-0.8,2.2c-0.9,1.6-0.4,1-1.4,2c-0.8,1.4-0.6,0.7-0.8,1.9c-0.7,1-1.4,1.9-2,3c-0.7,0.8-0.4,0.4-0.7,1.1
					c-0.5,0.4-0.6,0.5-0.7,0.6c-0.1,0.1-0.1,0.2-0.4,0.6c-0.6,0.5-0.8,0.6-0.9,0.7c-0.1,0.1-0.1,0.2-0.5,0.8
					c-2.3,2.5-0.7,0.9-5.2,4.6l-1.5,0.8c-0.5,0.1-1.4,0.6-2.1,0.6c-1.3,0-2.1-1.4-2.6-2.4l-0.2-2.1l-0.2-0.2H137
					c-1.8,1.6-1.1,1.2-2,1.7c-0.6,0.9-3.5,2.6-4.8,2.6c-0.5,0-0.9-0.2-1.4-1c-0.1-0.2-0.2-0.5-0.7-1.6c-0.2-1.1-0.3-1.6-0.3-2.4
					v-0.6c-0.2-1.1-0.1-0.7-0.4-1.4c-0.7-0.8-0.7-0.7-0.7-1c0-1.2,0.4-1.1,1.2-2c0.6-0.3,0.9-0.4,1.1-0.4c0.2,0,0.3,0.2,0.5,0.4
					c0,0,0.1,0,0.3,0l2.1-2.2c0.2-0.9,1.3-2.2,2.3-4.1l0.6-1.9l0.3-1c0.4-1.2,0.9-3.2,0.9-5c0-1.2-0.8-2.3-0.7-3.2
					c-0.4-0.7-1.1-1.1-2.1-1.2c-0.4-0.1-0.5-0.1-0.6-0.1c-0.1,0-0.3,0.1-0.9,0.3c-0.6,0.4-0.2,0.3-1,0.4c-1.6,1.1-2,1.3-2.3,1.5
					c-0.2,0.2-0.3,0.4-1,1.2c-1.5,1.8-0.7,0.7-2.3,3.3l-0.5,0.8c-0.2,0.6,0,0.2-0.8,1c-0.3,0.9-0.6,2-0.6,3.1c0,1.1,0.4,2.6,1.8,2.6
					c0.5,0,1.1-0.1,1.7-0.6h0.1l0.2,0.1c0,0.4-1.1,1.3-1.5,1.4c-0.7,0-0.7,0.1-1,0.1c-0.9,0-1.7-0.9-2-1.6c-0.1-0.9,0-0.5-0.3-1.2
					l0.1-1.1v-0.5c0.5-2.1,0.2-1,1.1-3.1c2.5-3.6,3.3-4.6,7-7.6l1.6-0.9l1-0.4c0.4,0,0.8-0.1,1.2-0.1c1.3,0,2.7,0.2,3.1,1.1
					c0.9,0.4,1.6,1.5,1.7,2.8c0,0.6,0.3,1.1,0.1,1.5c-0.5,0.8-0.1,1.4-0.5,3.3c-0.9,2.4-1.4,4.1-2.5,5.1c-0.4,1.7-1.7,2.6-3.4,4.7
					l-1.4,1.3l-0.5,0.7l-0.9,0.8c0.8,2.2,0.7,1.1,0.8,3.4l0,1.9c0.3,1.3,0,0.7,0.7,1.7c0.4,0.3,0.5,0.3,0.6,0.3c0.1,0,0.3,0,0.7-0.1
					l1.1-0.6l2.1-1.7l1.7-2l0.1-1.2c0.9-3.6,1-5.1,3.2-8.1c1.1-1.3,2.1-2.6,3.7-3c0.8,0,0.7,0.1,1,0.5c0.1,0.5,0.2,0.7,0.2,0.9
					c0,0.3-0.2,0.4-0.6,2c-0.7,1.6-0.4,0.7-1.3,2.3c-1.6,2.6-0.3,0.6-3.9,5.9l-0.1,0.8c0.2,2.3,0,1.1,0.7,3.5c0.6,0.7,0.7,1,1.2,1
					c0.2,0,0.6,0,1.1-0.1c1.2-0.7,1.6-0.9,1.9-1.1c0.4-0.2,0.9-0.4,2.4-2l3.5-3.6l2.2-3.2c0.4-0.8,0.3-0.5,0.4-1
					c1.4-2,1.8-2.5,2.1-3c0.2-0.4,0.4-1,1.2-2.9c0.9-1.7,0.6-1,0.9-2.3c0.5-1.3,0.7-2.2,0.7-3.5c0-0.3,0-0.7,0-1.2l0-1.5
					c-0.3-0.5-0.4-0.9-0.7-0.9c-0.2,0-0.4,0.1-0.7,0.6c-0.2,0.6-0.2,0.7-0.2,0.9c0,0.1,0,0.2,0.1,0.7c0.3,0.5,0.6,0.9,0.6,1.3
					c0,0.2-0.1,0.5-0.4,0.8c-0.6,0.3-0.7,0.4-0.8,0.4c-0.8,0-2.1-0.6-2.1-1.6c0-1.8,2.3-4.4,4-4.4c1.1,0.5,1.2,0.6,1.4,1.9
					c0.1,0.5,0.2,0.6,0.2,0.8C159.4,308.8,159.3,309.1,159.3,310.3z M140.2,325.4c0,0.2,0,0.3,0.1,0.3c0.1,0,0.4-0.7,1.6-2.2
					c0.4-0.6,2.5-3.9,2.5-5.3c0-0.3-0.1-0.6-0.4-0.6c-0.9,0.3-1.1,0.7-1.9,2c-0.5,1.1-0.2,0.6-0.7,1.6l-1.1,3.4L140.2,325.4z"/>
				<path class="st2" d="M160.3,324.8c0.4,0.3,0.6,0.5,0.4,0.8c-0.2,0.3-0.5,0.5-1,0.7c0.3,0.2,0.5,0.5,0.5,0.9c0,0.4,0,0.8-0.1,1.2
					c-0.1,0.4-0.3,0.9-0.6,1.3c-0.3,0.5-0.5,0.9-0.8,1.4c0.4,0,0.8-0.2,1.3-0.5c0.5-0.3,0.9-0.7,1.4-1.2l0.2,0.4
					c-0.4,0.4-0.9,0.9-1.6,1.3c-0.6,0.5-1.3,0.7-2,0.8c-0.6,0.6-1.2,1-1.9,1.3c-0.7,0.3-1.3,0.5-2,0.5c-0.6,0-1.2-0.1-1.7-0.4
					c-0.5-0.3-0.8-0.8-1-1.4c-0.1-0.6-0.2-1.1-0.1-1.7c0.1-0.6,0.3-1.1,0.5-1.6c-0.2,0.2-0.3,0.3-0.5,0.5c-0.2,0.2-0.4,0.4-0.6,0.7
					l-0.2-0.4c0.4-0.4,0.8-0.8,1.2-1.2c0.4-0.4,0.9-0.9,1.4-1.3c0.5-0.5,1-1,1.6-1.4c0.6-0.4,1.2-0.7,1.9-0.9
					c0.6-0.2,1.3-0.3,1.9-0.3C159.2,324.4,159.8,324.5,160.3,324.8z M152.9,331.8c0.1,0.5,0.3,0.8,0.5,1c0.3,0.2,0.6,0.2,0.9,0.2
					c0.3,0,0.7-0.2,1.1-0.4c0.4-0.2,0.8-0.5,1.1-0.9c-0.6-0.3-0.9-0.7-1-1.2c-0.1-0.5,0-1,0.2-1.6c0.2-0.5,0.5-1.1,0.9-1.5
					c0.4-0.5,0.8-0.8,1.1-1c-0.3-0.3-0.8-0.2-1.4,0c-0.6,0.3-1.2,0.7-1.8,1.2c-0.6,0.6-1.1,1.2-1.4,2S152.8,331,152.9,331.8z
					 M158.2,326.5c-0.3,0.2-0.6,0.5-0.9,0.9c-0.3,0.4-0.5,0.8-0.7,1.3c-0.1,0.5-0.2,0.9-0.1,1.3c0.1,0.4,0.4,0.7,0.9,0.9
					c0.3-0.3,0.5-0.7,0.8-1.1c0.2-0.4,0.4-0.8,0.6-1.2c0.1-0.4,0.2-0.8,0.2-1.1c0-0.3-0.1-0.6-0.2-0.8
					C158.6,326.6,158.4,326.5,158.2,326.5z"/>
				<path class="st2" d="M162.8,333.3c-0.2,0.2-0.4,0.3-0.7,0.4c-0.3,0.1-0.6,0.1-0.9,0.1c-0.3,0-0.5-0.1-0.7-0.2
					c-0.2-0.1-0.1-0.3,0.1-0.6c0.4-0.5,0.9-1,1.4-1.7c0.5-0.6,1-1.3,1.5-1.9c0.5-0.7,1-1.4,1.5-2.1c0.5-0.7,0.9-1.4,1.3-2
					c-0.3,0.3-0.7,0.6-1.2,1c-0.4,0.4-0.9,0.8-1.3,1.2c-0.4,0.4-0.8,0.8-1.2,1.2c-0.4,0.4-0.7,0.7-1,1l-0.2-0.4c0.2-0.2,0.5-0.6,1-1
					c0.5-0.5,0.9-0.9,1.4-1.4c0.5-0.5,1-1,1.4-1.4c0.5-0.4,0.8-0.8,1.1-1c0.2-0.2,0.5-0.3,0.8-0.3c0.3,0,0.5,0.1,0.7,0.2
					c0.2,0.1,0.4,0.3,0.4,0.5c0.1,0.2,0,0.5-0.1,0.7c-0.7,1.1-1.3,2-1.9,2.9c-0.7,0.8-1.3,1.7-2.1,2.5c1.2-1.1,2.2-1.9,2.9-2.6
					c0.8-0.6,1.4-1.1,2-1.5c0-0.1,0.1-0.2,0.2-0.3c0.1-0.1,0.1-0.2,0.2-0.3c0.4-0.7,0.9-1.1,1.2-1.4s0.7-0.4,1-0.4
					c0.3,0,0.5,0.1,0.7,0.3c0.2,0.2,0.2,0.4,0.2,0.7c0,0.3-0.1,0.5-0.3,0.8c-0.2,0.3-0.5,0.5-1,0.6c-0.5,0.2-0.9,0.4-1.4,0.5
					c-0.4,0.7-0.7,1.4-0.7,1.8c-0.1,0.5,0,0.8,0.2,1c0.2,0.2,0.5,0.2,0.9,0.1c0.4-0.1,0.9-0.5,1.4-0.9l0.2,0.4c-0.5,0.5-1,0.8-1.5,1
					c-0.5,0.2-1,0.2-1.4,0.1c-0.4-0.1-0.7-0.4-0.8-0.9c-0.2-0.5-0.1-1.1,0.2-1.8c-0.8,0.5-1.6,1.1-2.5,1.9
					C165.2,330.8,164.1,331.9,162.8,333.3z"/>
				<path class="st2" d="M178.6,329.8c-1.2,1.5-2.2,2.5-3.1,3.1c-0.9,0.6-1.6,0.9-2.1,0.9c-0.5,0-0.8-0.2-1-0.6
					c-0.2-0.4-0.1-0.9,0.2-1.5c0.4-0.9,0.8-1.8,1.2-2.6c0.4-0.9,0.8-1.7,1.3-2.6c-0.5,0.5-1,1.1-1.5,1.7c-0.5,0.6-1,1.1-1.5,1.6
					l-0.2-0.4c0.2-0.2,0.5-0.5,0.9-0.9c0.4-0.4,0.8-0.8,1.2-1.3c0.4-0.5,0.8-1,1.3-1.6c0.4-0.6,0.9-1.1,1.3-1.7
					c0.8-1.5,1.6-2.9,2.4-4.2c0.8-1.3,1.5-2.5,2.2-3.6c0.7-1.1,1.3-2,1.8-2.8c0.5-0.8,0.9-1.4,1.2-1.7c0.3-0.5,0.7-0.8,1.1-0.9
					c0.4-0.1,0.8-0.1,1.1,0c0.3,0.1,0.5,0.3,0.6,0.6c0.1,0.3-0.1,0.7-0.5,1.1c-1.3,1.4-2.6,2.9-3.6,4.3c-1.1,1.5-2.1,3-3,4.5
					c-0.9,1.6-1.9,3.2-2.7,5c-0.9,1.8-1.8,3.6-2.8,5.7c-0.2,0.4-0.2,0.6-0.1,0.7c0.1,0.1,0.4,0,0.7-0.2c0.4-0.2,0.8-0.6,1.4-1.1
					c0.6-0.5,1.2-1.2,2-2L178.6,329.8z"/>
				<path class="st2" d="M189.4,329.8c-1.2,1.5-2.2,2.5-3,3.1c-0.8,0.6-1.5,0.9-1.9,0.9c-0.4,0-0.7-0.2-0.8-0.7
					c-0.1-0.5,0-1.1,0.3-1.7c-0.3,0.4-0.7,0.7-1.1,1.1c-0.4,0.3-0.9,0.6-1.3,0.9c-0.5,0.2-0.9,0.4-1.4,0.5c-0.5,0.1-0.9,0-1.3-0.2
					c-0.3-0.2-0.6-0.4-0.7-0.8c-0.1-0.3-0.1-0.7,0-1.2c0.1-0.5,0.3-1,0.6-1.5c0.3-0.5,0.7-1.1,1.1-1.6c-0.2,0.2-0.5,0.4-0.7,0.6
					c-0.2,0.2-0.4,0.5-0.7,0.7l-0.2-0.4c0.3-0.3,0.6-0.6,1-1c0.4-0.4,0.9-0.9,1.4-1.3c0.5-0.5,1.1-0.9,1.8-1.3c0.6-0.4,1.3-0.8,2-1
					c0.4-0.2,0.9-0.3,1.4-0.4c0.6-0.1,1,0,1.3,0.2c1.2-2,2.2-3.7,3-5.1c0.8-1.4,1.5-2.5,2-3.4c0.6-0.9,1-1.7,1.5-2.4
					c0.4-0.7,0.9-1.3,1.4-2c0.3-0.5,0.7-0.8,1.1-0.9c0.4-0.1,0.8-0.1,1.1,0c0.3,0.1,0.5,0.3,0.6,0.6c0.1,0.3-0.1,0.7-0.5,1.1
					c-1.3,1.4-2.5,2.9-3.6,4.3c-1.1,1.5-2,3-3,4.5c-0.9,1.6-1.8,3.2-2.7,5c-0.9,1.8-1.8,3.6-2.8,5.7c-0.2,0.4-0.2,0.6-0.1,0.7
					c0.1,0.1,0.3,0,0.7-0.2c0.3-0.2,0.8-0.6,1.4-1.1c0.6-0.5,1.2-1.2,1.9-2L189.4,329.8z M180.7,332.7c0.3,0,0.6-0.1,0.8-0.2
					c0.2-0.1,0.4-0.2,0.6-0.3c0.2-0.2,0.4-0.3,0.6-0.5c0.2-0.2,0.4-0.5,0.7-0.8c0.3-0.4,0.6-0.8,0.9-1.1c0.2-0.3,0.4-0.7,0.6-1
					c0.2-0.3,0.4-0.7,0.6-1.1c0.2-0.4,0.5-0.9,0.8-1.4c0.1-0.4-0.1-0.7-0.4-0.7c-0.3,0-0.8,0.1-1.4,0.5c-0.6,0.4-1.2,1-1.9,1.8
					c-0.7,0.8-1.2,1.5-1.7,2.3c-0.5,0.8-0.7,1.4-0.9,1.9C179.9,332.5,180.1,332.7,180.7,332.7z"/>
			</g>
			<g>
				<path class="st2" d="M291.9,321.4c-0.5,0.6-0.3,0.2-0.4,1c-1.1,1.6-0.8,0.9-1.1,1.8c-0.9,0.9-0.5,0.4-1.1,1.6l-1.2,1.5l-1.4,1.8
					l-1.1,1l-0.8,0.9c-0.6,0.2-0.9,0.4-1.4,0.9l-1.1,0.8c-2.3,1.2-1.1,0.8-3.3,1.3c-1.4,0-1.6,0-1.7-1.5c0.2-0.7,0.7-1.6,1.5-1.6
					c0.6,0,1.1,0.4,1.6,0.9c0.4,0.1,0.7,0.2,1,0.2c0.3,0,0.5-0.1,1.1-0.4l2.3-2c2.9-3.7,4.3-6.6,6.3-10.8c0.5-2,0.2-1,0.7-3
					l-0.2-1.7c-0.2-0.3-0.7-0.5-1.2-0.5c-1.2,0-2.8,0.8-3.3,1c-1.7,0.9-0.9,0.4-2.4,1.4c-0.3,0-0.4,0-0.5,0.1c-0.1,0-0.2,0.2-1,0.7
					c-1.9,0.9-2,1.3-3.3,2.7c-0.6,2-1.1,3.1-1.9,5c-0.7,1.7-0.8,2.3-1.9,3.9c-0.1,0.9,0,0.5-0.4,1.1l-0.7,1.3
					c-0.3,1.2,0,0.4-0.9,2.1c-0.4,1.4,0,0.8-1,2.2l-0.7,1l-1.3,2.4l-1.3,1.8c-1.9,2.7-2.3,2.8-4.9,4.4c-0.7,0.5-1.5,0.7-2.2,0.7
					c-1.2,0-2.1-1.2-2.1-2.4c0.3-2.7,0.8-3.8,2.3-6.2l1.7-2.7c4.5-6,4.9-6.3,9.5-10.8l1.9-1.9c1.6-1,1.6-2.4,1.9-4.2l0-4.7
					c-0.4-0.9-0.9-1-1.7-1c-2.3,1.1-1.3,0.7-2.9,1.2c-1.1,1-1.4,1.1-2.1,1.5l-1.6,1.3l-2.3,2.7c-0.6,0.7-0.2,0.4-1,1.3
					c-0.2,0.7,0,0.4-0.5,0.8l-0.2,1c0.1,0.9,0,0.8,0.9,1.3c1.4,0,1.2,0,2.8-1.2l0.6-0.6c0.1-0.2,0.5-0.6,0.7-0.6
					c0.1,0,0.2,0.1,0.2,0.4l-1.3,1.5l-1.8,1.3c-0.9,0.1-0.6,0-1,0.2c-1.6-0.4-0.9,0-2.1-1.1c-0.1-0.2-0.2-0.4-0.2-0.6
					c0-0.8,0.7-1.8,1-2.5c3-4.2,6-7,11.7-8.7c0.4-0.1,0.5-0.1,0.7-0.1c0.1,0,0.2,0,0.9,0.2c1.9,1.5,2.1,2.4,2.1,4.3v1l-0.1,0.7v0.1
					l0.1,0.1l1-0.5l3-1.7c2-1.1,1-0.8,2.7-1.2c1.6-0.8,0.9-0.7,2-0.8c0.5-0.3,0.5-0.3,0.8-0.3h0.2c0.2,0,0.6,0,1.4-0.1
					c2.1,0,2.4,1.3,2.5,3.1C293.4,318.7,293.5,318.3,291.9,321.4z M276.1,322.4c-0.1,0-0.2,0.2-0.5,0.5l-0.5,0.3l-2.1,1.9
					c-1.7,1.5-1.1,0.7-2.1,2.2c-0.3,0.2-0.4,0.2-0.5,0.3c-0.1,0.1-0.1,0.2-0.7,0.9c-0.8,0.6-1,0.7-1.2,1.7c-1.2,1.3-1.6,1.8-2.8,3.4
					c-1.2,1.7-0.7,1-1.4,2.2c-0.8,0.9-0.7,0.5-0.8,1.2l-0.6,1.1c-0.6,1.1-1.3,2.3-1.5,4.8c0.3,1.1,0.9,1.6,1.6,1.6
					c0.9,0,2.2-0.7,3.1-2l2.2-3l2.4-4.4l2.2-4.8l1.9-4.5l0.4-1l0.9-1.9C276.1,322.6,276.1,322.4,276.1,322.4z"/>
				<path class="st2" d="M294,329.8c-1.2,1.5-2.2,2.5-3.1,3.1c-0.9,0.6-1.6,0.9-2.1,0.9c-0.5,0-0.8-0.2-1-0.6
					c-0.2-0.4-0.1-0.9,0.2-1.5c0.4-0.9,0.8-1.8,1.2-2.6c0.4-0.9,0.8-1.7,1.3-2.6c-0.5,0.5-1,1.1-1.5,1.7c-0.5,0.6-1,1.1-1.5,1.6
					l-0.2-0.4c0.2-0.2,0.5-0.5,0.9-0.9c0.4-0.4,0.8-0.8,1.2-1.3c0.4-0.5,0.8-1,1.3-1.6c0.4-0.6,0.9-1.1,1.3-1.7
					c0.8-1.5,1.6-2.9,2.4-4.2c0.8-1.3,1.5-2.5,2.2-3.6c0.7-1.1,1.3-2,1.8-2.8c0.5-0.8,0.9-1.4,1.2-1.7c0.3-0.5,0.7-0.8,1.1-0.9
					c0.4-0.1,0.8-0.1,1.1,0c0.3,0.1,0.5,0.3,0.6,0.6c0.1,0.3-0.1,0.7-0.5,1.1c-1.3,1.4-2.6,2.9-3.6,4.3c-1.1,1.5-2.1,3-3,4.5
					c-0.9,1.6-1.9,3.2-2.7,5c-0.9,1.8-1.8,3.6-2.8,5.7c-0.2,0.4-0.2,0.6-0.1,0.7c0.1,0.1,0.4,0,0.7-0.2c0.4-0.2,0.8-0.6,1.4-1.1
					c0.6-0.5,1.2-1.2,2-2L294,329.8z"/>
				<path class="st2" d="M305.3,329.8c-1.3,1.4-2.4,2.4-3.3,3c-0.9,0.6-1.6,0.9-2.1,0.9c-0.5,0-0.8-0.2-0.9-0.6
					c-0.1-0.5,0-1,0.3-1.7c-0.3,0.3-0.7,0.6-1,1c-0.4,0.3-0.8,0.6-1.3,0.9c-0.5,0.2-0.9,0.4-1.4,0.5c-0.5,0.1-0.9,0-1.4-0.2
					c-0.3-0.1-0.6-0.4-0.6-0.8c-0.1-0.4,0-0.8,0.1-1.3c0.2-0.5,0.4-1.1,0.7-1.7c0.3-0.6,0.7-1.2,1.2-1.8c-0.6,0.5-1.2,1.1-1.8,1.8
					l-0.2-0.4c0.3-0.3,0.7-0.7,1.3-1.2c0.6-0.5,1.2-1.1,1.9-1.6c0.7-0.5,1.4-1,2.1-1.4c0.7-0.4,1.5-0.7,2.2-0.8
					c0.7-0.1,1.3,0,1.6,0.2c0.3,0.2,0.6,0.5,0.7,1c0.1-0.1,0.2-0.2,0.4-0.3c0.1-0.1,0.3-0.1,0.4-0.2c0.1,0,0.3-0.1,0.5-0.1
					c0.2,0,0.4,0,0.6,0.1c0.2,0.1,0.3,0.2,0.4,0.3c0.1,0.1,0,0.3-0.1,0.4c-0.6,0.6-1,1.1-1.4,1.5c-0.4,0.4-0.8,0.8-1.1,1.1
					c-0.3,0.4-0.7,0.9-1,1.4c-0.4,0.5-0.8,1.2-1.3,2.1c-0.3,0.5-0.3,0.7-0.1,0.8c0.2,0.1,0.5,0,0.9-0.2c0.4-0.2,1-0.6,1.6-1.2
					c0.6-0.5,1.3-1.2,2-1.9L305.3,329.8z M296.1,332.7c0.6-0.1,1.1-0.3,1.6-0.6c0.5-0.3,1-0.8,1.4-1.3c0.5-0.5,0.9-1.1,1.3-1.7
					c0.4-0.6,0.9-1.2,1.3-1.7c0.1-0.3,0.2-0.6,0.3-0.9c0.1-0.3,0.1-0.6-0.1-0.8c-0.2-0.3-0.6-0.3-1.1-0.1c-0.5,0.2-1,0.6-1.6,1.2
					c-0.6,0.5-1.1,1.2-1.6,1.9c-0.5,0.7-1,1.4-1.3,2c-0.3,0.6-0.6,1.1-0.6,1.5C295.5,332.5,295.7,332.7,296.1,332.7z"/>
				<path class="st2" d="M308.3,322.8c0-0.2,0.1-0.3,0.3-0.4c0.1-0.1,0.4-0.1,0.8,0c0.3,0,0.5,0.1,0.7,0.1c0.2,0,0.4,0,0.7,0
					c0.5-0.7,1-1.5,1.5-2.3c0.5-0.8,1.1-1.8,1.9-3c0.3-0.4,0.7-0.7,1.1-0.9c0.4-0.1,0.8-0.2,1.1-0.1c0.3,0.1,0.5,0.3,0.5,0.6
					c0,0.3-0.2,0.7-0.6,1.2c-0.5,0.6-1.1,1.2-1.6,1.9c-0.5,0.7-1.2,1.5-1.8,2.4c0.4,0,0.8-0.1,1.2-0.1c0.4,0,0.8-0.1,1.1-0.1
					c0.3,0,0.6,0,0.8,0.1c0.2,0,0.3,0.1,0.3,0.2c0,0.3-0.1,0.4-0.2,0.5c-0.2,0.1-0.4,0.1-0.6,0c-0.4,0-0.9-0.1-1.5-0.1
					c-0.6,0-1.1,0-1.5,0c-0.6,0.8-1.2,1.7-1.8,2.6c-0.6,0.9-1.2,2-1.9,3.1c-0.1,0.2-0.3,0.5-0.5,0.9c-0.2,0.4-0.5,0.8-0.7,1.2
					c-0.2,0.4-0.4,0.8-0.5,1.2c-0.1,0.4-0.1,0.6-0.1,0.8c0.1,0.2,0.3,0.2,0.7,0.1c0.4-0.1,1-0.5,1.8-1.1c0.4-0.3,0.8-0.6,1.3-1
					c0.5-0.4,1-0.9,1.5-1.4l0.2,0.4c-1.3,1.3-2.4,2.3-3.4,2.9c-1,0.6-1.9,1-2.6,1c-0.9,0-1.4-0.2-1.5-0.7c-0.2-0.5,0-1.2,0.5-2
					c0.4-0.7,0.9-1.4,1.4-2.2c0.5-0.8,1.1-1.5,1.6-2.2c-0.3,0.3-0.6,0.6-0.8,0.9c-0.2,0.2-0.4,0.5-0.6,0.7c-0.2,0.2-0.4,0.4-0.6,0.7
					c-0.2,0.3-0.5,0.6-0.9,1l-0.2-0.4c0.6-0.7,1.2-1.3,1.8-1.9c0.6-0.6,1.2-1.3,1.8-2c0.1-0.1,0.2-0.3,0.4-0.5
					c0.2-0.2,0.3-0.4,0.5-0.7c0.2-0.2,0.3-0.5,0.5-0.7c0.2-0.2,0.3-0.4,0.4-0.5c-0.7,0-1.2,0.1-1.7,0.1
					C308.5,323.1,308.3,323,308.3,322.8z"/>
				<path class="st2" d="M326.5,316.1c-0.8,0.8-1.5,1.6-2.1,2.2c-0.7,0.7-1.3,1.3-1.9,1.8c-0.6,0.6-1.2,1.2-1.8,1.7
					c-0.6,0.6-1.2,1.2-1.9,1.9c-0.7,1.1-1.5,2.4-2.2,3.7c-0.8,1.3-1.5,2.6-2.2,3.8c0,0.4,0.1,0.7,0.3,0.9c0.3,0.2,0.6,0.2,1.1,0.1
					c0.5-0.1,1-0.4,1.7-0.9c0.6-0.5,1.3-1.1,2.1-1.9l0.2,0.4c-0.7,0.7-1.3,1.3-1.9,1.8c-0.6,0.5-1.2,0.9-1.8,1.2
					c-0.5,0.3-1,0.4-1.5,0.4c-0.4,0-0.8-0.2-1.1-0.6c-1.3,2.2-2.4,4-3.2,5.5c-0.8,1.5-1.5,2.7-2.1,3.8c-0.6,1.1-1,2.2-1.4,3.1
					c-0.3,1-0.7,2.1-1,3.3c-0.1,0.5-0.4,0.9-0.7,1c-0.3,0.2-0.7,0.2-1,0.1c-0.3-0.1-0.5-0.3-0.7-0.7c-0.2-0.3-0.1-0.8,0.1-1.4
					c0.6-1.3,1.3-2.7,2.1-4.2c0.9-1.5,1.8-3.2,2.8-4.9c1-1.8,2.1-3.6,3.3-5.5c1.1-1.9,2.3-3.9,3.5-6c-0.2,0.2-0.4,0.4-0.6,0.6
					c-0.2,0.2-0.5,0.5-0.7,0.8c-0.3,0.3-0.5,0.5-0.8,0.8c-0.3,0.3-0.5,0.5-0.7,0.7l-0.2-0.4c0.5-0.5,1.1-1.1,1.8-1.8
					c0.7-0.7,1.5-1.5,2.2-2.4c1.2-2,2.1-3.7,3-5c0.8-1.3,1.5-2.5,2.1-3.4c0.6-1,1.1-1.8,1.6-2.4c0.5-0.7,1-1.3,1.5-1.9
					c0.7-0.9,1.5-1.5,2.2-1.7c0.7-0.2,1.3-0.1,1.6,0.3c0.3,0.4,0.4,1,0.2,1.9C328.4,313.7,327.6,314.8,326.5,316.1z M319.8,321.9
					c0.7-0.8,1.5-1.6,2.4-2.6c0.8-1,1.9-2.1,3.1-3.5c0.7-0.8,1.2-1.5,1.5-2c0.2-0.5,0.3-0.8,0.2-1c-0.1-0.1-0.4,0-0.9,0.3
					c-0.5,0.3-1,0.9-1.7,1.7c-0.2,0.3-0.5,0.6-0.8,1.1c-0.3,0.5-0.7,1.1-1.2,1.7c-0.4,0.6-0.9,1.3-1.3,2.1
					C320.6,320.5,320.2,321.2,319.8,321.9z"/>
				<path class="st2" d="M329.2,324.8c0.4,0.3,0.6,0.5,0.4,0.8c-0.2,0.3-0.5,0.5-1,0.7c0.3,0.2,0.5,0.5,0.5,0.9c0,0.4,0,0.8-0.1,1.2
					c-0.1,0.4-0.3,0.9-0.6,1.3c-0.3,0.5-0.5,0.9-0.8,1.4c0.4,0,0.8-0.2,1.3-0.5c0.5-0.3,0.9-0.7,1.4-1.2l0.2,0.4
					c-0.4,0.4-0.9,0.9-1.6,1.3c-0.6,0.5-1.3,0.7-2,0.8c-0.6,0.6-1.2,1-1.9,1.3c-0.7,0.3-1.3,0.5-2,0.5c-0.6,0-1.2-0.1-1.7-0.4
					c-0.5-0.3-0.8-0.8-1-1.4c-0.1-0.6-0.2-1.1-0.1-1.7c0.1-0.6,0.3-1.1,0.5-1.6c-0.2,0.2-0.3,0.3-0.5,0.5c-0.2,0.2-0.4,0.4-0.6,0.7
					l-0.2-0.4c0.4-0.4,0.8-0.8,1.2-1.2c0.4-0.4,0.9-0.9,1.4-1.3c0.5-0.5,1-1,1.6-1.4c0.6-0.4,1.2-0.7,1.9-0.9
					c0.6-0.2,1.3-0.3,1.9-0.3C328.1,324.4,328.7,324.5,329.2,324.8z M321.9,331.8c0.1,0.5,0.3,0.8,0.5,1c0.3,0.2,0.6,0.2,0.9,0.2
					c0.3,0,0.7-0.2,1.1-0.4c0.4-0.2,0.8-0.5,1.1-0.9c-0.6-0.3-0.9-0.7-1-1.2c-0.1-0.5,0-1,0.2-1.6c0.2-0.5,0.5-1.1,0.9-1.5
					c0.4-0.5,0.8-0.8,1.1-1c-0.3-0.3-0.8-0.2-1.4,0c-0.6,0.3-1.2,0.7-1.8,1.2c-0.6,0.6-1.1,1.2-1.4,2S321.7,331,321.9,331.8z
					 M327.2,326.5c-0.3,0.2-0.6,0.5-0.9,0.9c-0.3,0.4-0.5,0.8-0.7,1.3c-0.1,0.5-0.2,0.9-0.1,1.3c0.1,0.4,0.4,0.7,0.9,0.9
					c0.3-0.3,0.5-0.7,0.8-1.1c0.2-0.4,0.4-0.8,0.6-1.2c0.1-0.4,0.2-0.8,0.2-1.1c0-0.3-0.1-0.6-0.2-0.8
					C327.5,326.6,327.3,326.5,327.2,326.5z"/>
				<path class="st2" d="M331.7,333.3c-0.2,0.2-0.4,0.3-0.7,0.4c-0.3,0.1-0.6,0.1-0.9,0.1c-0.3,0-0.5-0.1-0.7-0.2
					c-0.2-0.1-0.1-0.3,0.1-0.6c0.4-0.5,0.9-1,1.4-1.7c0.5-0.6,1-1.3,1.5-1.9c0.5-0.7,1-1.4,1.5-2.1c0.5-0.7,0.9-1.4,1.3-2
					c-0.3,0.3-0.7,0.6-1.2,1c-0.4,0.4-0.9,0.8-1.3,1.2c-0.4,0.4-0.8,0.8-1.2,1.2c-0.4,0.4-0.7,0.7-1,1l-0.2-0.4c0.2-0.2,0.5-0.6,1-1
					c0.5-0.5,0.9-0.9,1.4-1.4c0.5-0.5,1-1,1.4-1.4c0.5-0.4,0.8-0.8,1.1-1c0.2-0.2,0.5-0.3,0.8-0.3c0.3,0,0.5,0.1,0.7,0.2
					c0.2,0.1,0.4,0.3,0.4,0.5c0.1,0.2,0,0.5-0.1,0.7c-0.7,1.1-1.3,2-1.9,2.9c-0.7,0.8-1.3,1.7-2.1,2.5c1.2-1.1,2.2-1.9,2.9-2.6
					c0.8-0.6,1.4-1.1,2-1.5c0-0.1,0.1-0.2,0.2-0.3c0.1-0.1,0.1-0.2,0.2-0.3c0.4-0.7,0.9-1.1,1.2-1.4c0.4-0.3,0.7-0.4,1-0.4
					c0.3,0,0.5,0.1,0.7,0.3c0.2,0.2,0.2,0.4,0.2,0.7c0,0.3-0.1,0.5-0.3,0.8c-0.2,0.3-0.5,0.5-1,0.6c-0.5,0.2-0.9,0.4-1.4,0.5
					c-0.4,0.7-0.7,1.4-0.7,1.8c-0.1,0.5,0,0.8,0.2,1c0.2,0.2,0.5,0.2,0.9,0.1c0.4-0.1,0.9-0.5,1.4-0.9l0.2,0.4c-0.5,0.5-1,0.8-1.5,1
					c-0.5,0.2-1,0.2-1.4,0.1c-0.4-0.1-0.7-0.4-0.8-0.9c-0.2-0.5-0.1-1.1,0.2-1.8c-0.8,0.5-1.6,1.1-2.5,1.9
					C334.1,330.8,333,331.9,331.7,333.3z"/>
				<path class="st2" d="M340.7,329.4c0.2-0.2,0.6-0.6,1-1c0.4-0.5,0.9-0.9,1.4-1.4c0.5-0.5,1-1,1.4-1.4c0.5-0.4,0.8-0.8,1.1-1
					c0.2-0.2,0.5-0.3,0.7-0.3c0.3,0,0.5,0.1,0.6,0.2c0.2,0.1,0.3,0.3,0.3,0.5c0,0.2,0,0.5-0.2,0.7c-0.1,0.2-0.3,0.4-0.4,0.6
					c-0.1,0.2-0.2,0.4-0.4,0.6c0.6-0.8,1.3-1.5,2-2c0.7-0.5,1.5-0.7,2.4-0.5c0.2,0,0.3,0.2,0.4,0.4c0,0.2,0,0.5-0.1,0.8
					c-0.1,0.3-0.2,0.6-0.4,1c-0.2,0.4-0.4,0.8-0.7,1.3c0.6-0.6,1.2-1.2,1.8-1.7c0.6-0.5,1.1-0.9,1.6-1.2c0.5-0.3,0.9-0.5,1.4-0.5
					c0.4,0,0.8,0.1,1.1,0.3c0.2,0.2,0.3,0.4,0.2,0.8c-0.1,0.4-0.2,0.8-0.5,1.2c-0.2,0.5-0.5,0.9-0.9,1.4c-0.4,0.5-0.7,1-1.1,1.4
					c-0.3,0.5-0.7,0.9-0.9,1.2c-0.3,0.4-0.5,0.6-0.5,0.8c-0.1,0.2-0.1,0.3,0,0.4c0.1,0.1,0.3,0,0.6-0.1c0.3-0.2,0.7-0.4,1.2-0.8
					c0.5-0.4,1.1-1,1.9-1.7l0.2,0.4c-0.3,0.4-0.7,0.8-1.3,1.3c-0.5,0.5-1,0.9-1.6,1.3c-0.6,0.4-1.1,0.7-1.6,1
					c-0.5,0.2-0.9,0.3-1.3,0.3c-0.3,0-0.5-0.2-0.7-0.4c-0.1-0.2-0.1-0.5,0.1-1c0.1-0.3,0.3-0.6,0.6-1c0.3-0.4,0.6-0.9,0.9-1.4
					c0.3-0.5,0.7-1,1-1.5c0.4-0.5,0.7-1,1-1.4c0.3-0.3,0.4-0.6,0.6-0.9c0.1-0.3,0.1-0.4,0.1-0.5c-0.1-0.1-0.2,0-0.5,0.1
					c-0.3,0.2-0.6,0.5-1.1,1c-0.3,0.3-0.7,0.8-1.3,1.4c-0.5,0.6-1.1,1.2-1.6,1.9c-0.6,0.7-1.1,1.3-1.7,2c-0.6,0.6-1,1.1-1.4,1.5
					c-0.1,0.1-0.2,0.1-0.4,0.2c-0.2,0-0.4,0.1-0.6,0c-0.2,0-0.4-0.1-0.5-0.1c-0.1-0.1-0.1-0.2,0-0.3c0.2-0.3,0.5-0.7,0.9-1.2
					c0.3-0.5,0.7-1,1.1-1.5c0.4-0.5,0.8-1.1,1.2-1.7c0.4-0.6,0.7-1.1,1-1.5c0.3-0.5,0.5-0.8,0.6-1.1c0.1-0.3,0.2-0.5,0.1-0.5
					c-0.3-0.1-0.6-0.1-1,0.2c-0.4,0.3-0.8,0.7-1.3,1.2c-0.5,0.5-1,1.1-1.5,1.8c-0.5,0.7-1.1,1.3-1.7,2c-0.6,0.6-1.2,1.2-1.8,1.7
					c-0.6,0.5-1.2,0.9-1.7,1.1c-0.1,0-0.2,0.1-0.4,0.1c-0.2,0-0.3-0.1-0.4-0.1c-0.1-0.1-0.2-0.2-0.2-0.3c0-0.1,0-0.2,0.2-0.4
					c0.4-0.5,0.9-1,1.4-1.6c0.5-0.6,1-1.3,1.6-2c0.5-0.7,1-1.4,1.5-2.1c0.5-0.7,0.9-1.4,1.3-2c-0.3,0.3-0.7,0.6-1.1,1
					c-0.4,0.4-0.8,0.8-1.3,1.2c-0.4,0.4-0.9,0.8-1.3,1.2c-0.4,0.4-0.7,0.7-1,1L340.7,329.4z"/>
			</g>
			<g>
				<path class="st2" d="M240.6,309.9c1.1,0.5,1.5,1.1,1.5,1.8c0,0.9-0.8,1.8-1.7,2.7c-0.5,0.2-0.6,0.2-0.7,0.3
					c-0.1,0.1-0.2,0.2-0.7,0.6c-1.8,0.8-1,0.6-2.4,1c-1.1,0.6-0.5,0.4-1.9,0.6c-1.1,0.7-0.2,0.2-3,0.7c-0.5,0.2-0.6,0.2-0.8,0.2
					c-0.2,0-0.3-0.3-1.5-0.3l-0.7,0.7c-0.9,1.9-0.4,1.1-1.5,2.5c-0.7,1.5-1.4,3-2.1,4.4c-0.4,1.5-0.1,0.8-0.9,2.2
					c-0.2,0.8-0.3,1.8-0.3,2.8c0,0.8,0.1,1.7,0.2,2.4c0.3,0.7,0.9,1.8,1.7,1.8c1,0,1.7-0.2,2.1-0.4c2.4-0.4,3-2,3.8-2.2
					c1.5-1.4,3.2-2.9,3.9-3.8c0.6-0.9,1.2-2.8,2-3.9c0.6-1,1-2.2,1.2-2.8c0.4-1.5,0.5-2.2,0.6-3.8l-0.2-0.4c0-0.3,0.2-0.9,0.4-0.9
					c0.1,0,0.2,0.1,0.4,0.6c0.2,0.7,0.3,1.2,0.3,1.7c0,1-0.2,1.8-0.6,3.3l-0.6,1.2c-0.9,1.9-0.6,1.2-1.8,3.3
					c-1.2,1.7-0.2,0.8-1.5,2.5c-1.2,1.3-0.6,0.8-1.6,1.7c-2.1,2-2.7,2.9-5.5,4.2c-1.9,0.8-2.2,1.2-3.8,1.2c-1.4,0-3-0.5-3.3-2
					l-0.3-0.7l-0.1-2.8c0.1-0.9,0.1-1.7,0.6-2.6c0.1-0.9,0.8-2.1,1.3-3.3c1.3-2.3,1.9-2.9,2.2-3.5c0.4-0.8,0.5-1.3,1.9-3.2
					c-0.1-0.8-0.5-0.4-2.1-1.1c-0.7-0.2-1.6-1.4-1.6-2.2c0-0.6,0-1.2,0.5-1.8c0-0.6,0.8-1,1.3-1.4c0.8-0.9,3-1.8,4-1.8
					c0.5,0,1.5,0.1,1.5,0.4c0,0.2-0.2,0.4-0.8,0.4c-0.2,0-0.3,0-0.4,0c0,0-0.1,0-0.3,0c0,0-0.5,0-0.5,0c-1.2,0.4-2.7,1.1-3.4,2.7
					c0,0.4,0,0.9,0,1.1c0,0.9,0.8,1.8,2.2,2.3h0.6c2.9-2.7,1.4-1.4,4.5-3.8c3.2-1.8,3.5-2.4,7-2.4H240.6z M239.1,310.7
					c-0.3,0-0.7,0.1-1.8,0.4c-2,0.6-3.2,1.9-4.8,3c-1.1,1.1-0.6,0.6-1.5,1.4c0,0-0.9,0.7-0.9,1c0,0,0,0.2,0.1,0.2c1.3,0.2,1.7,0,2,0
					c0.2,0,0.4,0,1,0c3.5-1,4.7-1.1,7.2-3.4c0.4-0.5,0.6-1,0.6-1.4C241.1,311.3,240.4,310.7,239.1,310.7z"/>
				<path class="st2" d="M244.9,329.8c0-0.2-0.1-0.3-0.3-0.3c-0.2,0-0.5,0.3-0.8,0.4l-2.6,2c-0.7,0.5-2.2,2.1-3.2,2.1l-0.1-0.1
					l0-0.4l1.6-3c0.2-0.3,0.2-0.6,0.2-0.7c0-0.3-0.1-0.4-0.4-0.4c-0.3,0-0.9,0.2-1.4,0.5l-1.4,0.9c-0.4,0.3-0.8,0.4-1,0.4
					c0,0-0.1,0-0.1-0.1c0,0,0-0.1,0.1-0.2l1.4-1c1.3-1,2.7-1.7,4.2-2.2c0.5,0,0.7,0.2,0.7,0.6c0,0.7-0.5,1.6-0.6,2l-0.2,0.6l0.1,0.1
					l1.7-1.4c1-0.8,2.4-1.8,3.7-1.8c0.2,0.2,0.2,0.4,0.2,0.7c0,0.6-0.4,1.4-0.6,1.9c-0.3,0.4-0.8,1-0.8,1.4c0,0.1,0,0.3,0.1,0.4
					c0.3,0,0.4,0,0.6,0c0.3-0.1,0.6-0.3,2.2-1.3c0.6-0.3,0.9-0.5,1-0.5l0.1,0c0,0.2-0.5,0.7-1,1.1c-1.6,1.2-2.9,2.1-4.6,2.2
					c-0.3-0.2-0.4-0.4-0.4-0.7c0-0.2,0.1-0.5,0.2-0.9L244.9,329.8z"/>
				<path class="st2" d="M252.6,332.7c1.6-0.2,1.9-0.2,4.1-1.7c0.5-0.3,0.9-0.5,1-0.5l0,0c0,0.1-0.5,0.6-1.1,1l-0.6,0.4
					c-1.7,1.3-3.2,2-5.4,2.1c-0.9-0.2-0.9-0.5-0.9-1.5c0.6-2.2,2.2-3.5,4-4.6c0.6-0.3,1.3-1,1.9-0.3c0,1.5-0.6,2.3-2.1,3.5l-0.9,0.6
					c-0.2,0.1-0.7,0.5-0.5,0.8L252.6,332.7z M252,331.7L252,331.7c1-0.7,1.6-1.3,2.3-2.3c0.2-0.4,0.1-0.6-0.3-0.6
					c-0.2,0-0.7,0.2-1.2,0.6c-0.4,0.4-0.8,0.9-1,1.5L252,331.7L252,331.7z"/>
			</g>
			<g>
				<path class="st2" d="M196.7,331.8c-0.3,0.5-0.4,0.8-0.3,1c0.1,0.2,0.3,0.2,0.7,0c0.4-0.2,1-0.5,1.6-1c0.7-0.5,1.5-1.3,2.4-2.3
					l0.2,0.4c-0.6,0.7-1.2,1.3-1.7,1.7s-0.9,0.9-1.3,1.2c-0.4,0.3-0.8,0.6-1.1,0.7c-0.4,0.2-0.7,0.3-1.1,0.3c-0.9,0-1.4-0.2-1.5-0.7
					c-0.1-0.5,0-1.2,0.4-2c0.2-0.3,0.4-0.8,0.7-1.2c0.3-0.5,0.6-0.9,1-1.4c0.3-0.5,0.7-1,1-1.4c0.3-0.5,0.6-0.9,0.8-1.2
					c-0.4,0.4-0.8,0.8-1.1,1c-0.3,0.3-0.5,0.6-0.8,0.8c-0.2,0.3-0.5,0.6-0.8,0.9c-0.3,0.3-0.7,0.7-1.2,1.2l-0.2-0.4
					c0.8-0.9,1.6-1.8,2.4-2.6c0.7-0.9,1.6-1.7,2.4-2.5c0.2-0.2,0.5-0.3,0.9-0.3c0.4,0,0.8,0,1.1,0.1c0.3,0.1,0.5,0.2,0.6,0.4
					c0.1,0.2,0,0.5-0.4,0.8c-0.4,0.4-0.8,0.9-1.3,1.4c-0.4,0.5-0.8,1.1-1.3,1.7c-0.4,0.6-0.8,1.2-1.2,1.8
					C197.5,330.7,197.1,331.2,196.7,331.8z M203.6,317.8c0.2-0.2,0.5-0.3,0.9-0.4c0.4-0.1,0.7,0,0.9,0.1c0.3,0.1,0.4,0.3,0.5,0.5
					c0,0.2-0.2,0.6-0.6,0.9c-0.1,0.1-0.2,0.2-0.4,0.5c-0.2,0.2-0.4,0.5-0.6,0.7c-0.2,0.2-0.5,0.4-0.8,0.5c-0.3,0.1-0.5,0.1-0.7,0
					c-0.5-0.2-0.6-0.6-0.4-1.1C202.6,318.9,203,318.4,203.6,317.8z"/>
				<path class="st2" d="M210.1,329.8c0-0.2-0.1-0.3-0.3-0.3c-0.2,0-0.5,0.3-0.8,0.4l-2.6,2c-0.7,0.5-2.2,2.1-3.2,2.1l-0.1-0.1
					l0-0.4l1.6-3c0.2-0.3,0.2-0.6,0.2-0.7c0-0.3-0.1-0.4-0.4-0.4c-0.3,0-0.9,0.2-1.4,0.5l-1.4,0.9c-0.4,0.3-0.8,0.4-1,0.4
					c0,0-0.1,0-0.1-0.1c0,0,0-0.1,0.1-0.2l1.4-1c1.3-1,2.7-1.7,4.2-2.2c0.5,0,0.7,0.2,0.7,0.6c0,0.7-0.5,1.6-0.6,2l-0.2,0.6l0.1,0.1
					l1.7-1.4c1-0.8,2.4-1.8,3.7-1.8c0.2,0.2,0.2,0.4,0.2,0.7c0,0.6-0.4,1.4-0.6,1.9c-0.3,0.4-0.8,1-0.8,1.4c0,0.1,0,0.3,0.1,0.4
					c0.3,0,0.4,0,0.6,0c0.3-0.1,0.6-0.3,2.2-1.3c0.6-0.3,0.9-0.5,1-0.5l0.1,0c0,0.2-0.5,0.7-1,1.1c-1.6,1.2-2.9,2.1-4.6,2.2
					c-0.3-0.2-0.4-0.4-0.4-0.7c0-0.2,0.1-0.5,0.2-0.9L210.1,329.8z"/>
			</g>
		</g>
		<path class="st2" d="M452,328.8h-77.8c-0.6,0-1.1-0.5-1.1-1.1c0-0.6,0.5-1.1,1.1-1.1H452c0.6,0,1.1,0.5,1.1,1.1
			C453.1,328.3,452.6,328.8,452,328.8z"/>
	</g>
</g>
</svg>
