<?xml version="1.0" encoding="utf-8"?>
<!-- Generator: Adobe Illustrator 19.1.0, SVG Export Plug-In . SVG Version: 6.00 Build 0)  -->
<svg version="1.1" id="Layer_1" xmlns="http://www.w3.org/2000/svg" xmlns:xlink="http://www.w3.org/1999/xlink" x="0px" y="0px"
	 viewBox="0 0 1090.1 283.3" style="enable-background:new 0 0 1090.1 283.3;" xml:space="preserve">
<style type="text/css">
	.st0{fill-rule:evenodd;clip-rule:evenodd;fill:#ADA381;}
	.st1{fill-rule:evenodd;clip-rule:evenodd;fill:#D9CEA8;}
	.st2{fill:#D9CEA8;}
	.st3{fill:#ADA381;}
</style>
<g>
	<polygon class="st0" points="182.2,52.8 210.5,81.1 210.5,194.4 182.2,166.1 	"/>
	<polygon class="st0" points="143.2,17.4 171.5,45.7 171.5,159 143.2,130.7 	"/>
	<polygon class="st1" points="221.2,194.4 249.5,166.1 249.5,52.8 221.2,81.1 	"/>
	<polygon class="st1" points="182.2,229.9 210.5,201.5 210.5,88.2 182.2,116.5 	"/>
	<polygon class="st1" points="143.2,265.3 171.5,236.9 171.5,123.6 143.2,151.9 	"/>
	<polygon class="st1" points="93.5,52.8 65.1,81.1 65.1,194.4 93.5,166.1 	"/>
	<polygon class="st1" points="132.5,17.4 104.1,45.7 104.1,159 132.5,130.7 	"/>
	<polygon class="st0" points="54.4,194.4 26.1,166.1 26.1,52.8 54.4,81.1 	"/>
	<polygon class="st0" points="93.5,229.9 65.1,201.5 65.1,88.2 93.5,116.5 	"/>
	<polygon class="st0" points="132.5,265.3 104.1,236.9 104.1,123.6 132.5,151.9 	"/>
	<polygon class="st1" points="54.4,88.2 26.1,116.5 26.1,229.9 54.4,201.5 	"/>
	<polygon class="st0" points="221.2,88.2 249.5,116.5 249.5,229.9 221.2,201.5 	"/>
	<g>
		<g>
			<path class="st2" d="M332.9,98.7h-35.3v18.9v7.2c0.1,0.7,0.3,1.2,0.6,1.6c0.3,0.4,0.8,0.7,1.4,0.8c0.7,0.1,1.3,0.1,2,0.2
				c0.6,0.1,1.3,0.1,2,0.1c0.6,0.1,1.3,0.1,1.9,0.1c0.6,0,1.3,0,1.9,0v3.7h-29.2v-3.8h2.3c3.6,0.1,5.7-0.2,6.4-0.7
				c0.7-0.5,1-2.2,1-4.9v-4.3V77.8v-7.2c-0.1-0.6-0.2-1.1-0.6-1.5c-0.3-0.4-0.8-0.6-1.5-0.7c-0.6-0.1-1.3-0.1-1.9-0.2
				c-0.7-0.1-1.3-0.1-1.9-0.1c-0.7-0.1-1.3-0.1-2-0.1c-0.6,0-1.3,0-2,0v-3.9h29.2v3.8H305c-1.7,0.1-3.2,0.2-4.5,0.4
				c-1.3,0.2-2.1,0.4-2.3,0.7c-0.1,0.2-0.2,0.4-0.3,0.7c-0.1,0.3-0.2,0.6-0.2,1v7.1v16.3h35.3V77.8v-4.2c0-2.7-0.3-4.3-1-4.8
				c-0.7-0.5-2.8-0.8-6.4-0.8l-2.3-0.1v-3.8h29.2v3.8h-2.4c-1.7,0.1-3.2,0.2-4.5,0.4c-1.3,0.2-2.1,0.4-2.3,0.7
				c-0.1,0.2-0.2,0.4-0.3,0.7c-0.1,0.3-0.2,0.6-0.2,1v7.1v39.9v4.2c0,2.8,0.3,4.5,1,5c0.7,0.5,2.8,0.8,6.3,0.8l2.4-0.1v3.8h-29.2
				v-3.8h2.3c3.5,0.1,5.7-0.2,6.4-0.7c0.7-0.5,1.1-2.2,1.1-4.9v-4.3V98.7z"/>
			<path class="st2" d="M390.5,62.8c9.1,0.1,16.8,3.5,23.2,10.3c6.4,6.8,9.6,15,9.6,24.6c0,9.7-3.2,18-9.6,24.7
				c-6.4,6.7-14.1,10.1-23.3,10.1c-9.1,0-16.9-3.4-23.4-10.1c-6.4-6.7-9.7-14.9-9.7-24.5c0-9.8,3.2-18.1,9.6-24.9
				C373.4,66.3,381.3,62.9,390.5,62.8L390.5,62.8z M390.2,67c-7.1,0.1-12.5,2.6-16.1,7.6c-3.6,5-5.4,12.5-5.4,22.5
				c0,10.6,1.8,18.5,5.5,23.8c3.6,5.3,9.1,8,16.3,8c7,0,12.2-2.6,15.9-7.7c3.6-5.2,5.5-12.6,5.4-22.5c0-10.6-1.8-18.5-5.4-23.8
				C402.9,69.7,397.5,67.1,390.2,67L390.2,67z"/>
			<path class="st2" d="M475.7,67.9v-3.8H501v3.8c-4.3,0.4-7.1,1.3-8.1,2.8c-1.1,1.5-1.6,5.2-1.6,11v19.9c0,5.3-0.2,9.3-0.6,12
				c-0.4,2.7-1.1,5.1-2.1,7.2c-0.1,0.1-0.1,0.2-0.2,0.3c-0.1,0.1-0.1,0.2-0.2,0.3c-2.4,4.2-5.6,7.1-9.8,8.6
				c-4.2,1.5-8.6,2.3-13.2,2.4c-0.1,0-0.1,0-0.2,0c-0.1,0-0.2,0-0.3,0c-6.3,0-11.6-1.1-15.9-3.3c-4.3-2.2-7.2-5.3-8.8-9.3
				c-0.6-1.8-1.1-3.8-1.3-6c-0.3-2.2-0.4-5.2-0.4-9V77.8v-4.2c0-1.7,0-2.9,0-3.4c0-0.5-0.2-0.9-0.4-1.1c0,0,0,0,0,0c0,0,0,0,0,0
				c-0.1-0.1-0.3-0.2-0.6-0.4c-0.3-0.1-0.6-0.2-0.9-0.3c-0.6-0.1-1.2-0.2-1.9-0.2c-0.6,0-1.3-0.1-1.9-0.1c-0.7,0-1.3,0-2,0
				c-0.6,0-1.3,0-2,0v-3.9h29.2v3.8h-2.3c-1.9,0.1-3.4,0.2-4.6,0.4c-1.2,0.2-2,0.4-2.3,0.7c-0.1,0.2-0.2,0.4-0.3,0.7
				c-0.1,0.3-0.2,0.6-0.2,1v7.1v27.3c0,4.8,0.3,8.3,0.8,10.6c0.6,2.3,1.6,4.4,3.2,6.2c1.7,1.9,3.8,3.3,6.3,4.2
				c2.5,1,5.3,1.5,8.5,1.5c4,0,7.4-0.7,10.4-2.1c2.9-1.4,5.1-3.3,6.6-5.9c0.2-0.3,0.4-0.6,0.5-0.9c0.1-0.3,0.3-0.6,0.4-0.9
				c0.9-1.8,1.5-3.8,1.8-6.1c0.3-2.3,0.4-5.5,0.4-9.8V81.7c0-5.7-0.6-9.3-1.9-10.8c-1.2-1.6-4.2-2.5-9-2.9V67.9z"/>
			<path class="st2" d="M552.5,64.1v24h-2.9c-0.1-0.3-0.3-0.7-0.4-1.1c-0.1-0.4-0.2-0.8-0.4-1.2c-1.6-4.7-3.9-9-6.9-12.9
				c-3-3.9-7.4-5.8-13-5.8c-3.8,0-6.9,1.1-9.3,3.2c-2.4,2.1-3.6,4.8-3.6,8.1c0,4,1.6,6.8,4.9,8.3c3.3,1.6,7,2.9,11.3,4
				c0.6,0.1,1.2,0.3,1.9,0.4c0.6,0.2,1.2,0.3,1.9,0.5c5,1.4,9.5,3.3,13.7,5.9c4.2,2.6,6.2,7.2,6.2,13.9c0,6.2-2,11.3-6.1,15.2
				c-4.1,3.9-9.4,5.8-15.9,5.8c-3.4,0-6.5-0.5-9.2-1.4c-2.7-1-5.3-2.5-7.9-4.7c-0.2-0.2-0.5-0.5-0.7-0.6c-0.2-0.2-0.5-0.4-0.7-0.7
				l-4.3,6.2h-3.2v-25.8h3.2c0,0.1,0,0.2,0,0.3c0,0.1,0.1,0.2,0.1,0.3c1.6,5.7,4.2,10.9,7.7,15.6c3.5,4.7,8.7,7.1,15.4,7.1
				c4.3,0,7.8-1.1,10.5-3.5c2.7-2.3,4.1-5.2,4.1-8.8c0-4.4-1.8-7.5-5.3-9.3c-3.5-1.8-7.5-3.3-12-4.5c-0.4-0.1-0.9-0.3-1.4-0.4
				c-0.5-0.1-0.9-0.2-1.3-0.4c-5-1.4-9.5-3.4-13.7-5.8c-4.2-2.4-6.2-6.8-6.2-13.2c0-5.7,1.9-10.4,5.6-14.3c3.7-3.9,8.3-5.8,13.7-5.8
				c2,0,3.9,0.2,5.6,0.5c1.7,0.3,3.4,0.9,5,1.7c1.1,0.5,2.1,1.1,3.2,1.9c1.1,0.7,2.2,1.6,3.4,2.5l4-5.5H552.5z"/>
			<path class="st2" d="M620.6,64.1l1.1,23.8h-3.1c-1.3-6.6-3.3-11.6-5.9-14.9c-2.6-3.3-7.6-5-15-5l-8.9-0.1
				c-2.9,0.1-4.7,0.3-5.3,0.7c-0.6,0.4-0.9,1.7-0.9,3.8v22.2c5.7,0.1,10.3-0.5,13.8-1.7c3.5-1.2,5.7-4.9,6.8-11.3l3.5-0.1v30.9h-3.5
				c-0.4-6.7-2.5-10.6-6.2-11.9c-3.7-1.3-8.5-1.9-14.4-2v24.8c0,2.1,0.3,3.4,0.8,3.8c0.6,0.4,2.1,0.6,4.7,0.6l11.2-0.1
				c3.7,0.1,6.4-0.1,8.3-0.6c1.8-0.5,3.5-1.4,4.9-2.8c2.2-2.1,3.8-4.5,4.8-7.3c1-2.7,1.9-5.6,2.6-8.5c0.1-0.3,0.1-0.6,0.2-0.9
				c0.1-0.3,0.2-0.6,0.2-1c0-0.1,0-0.1,0-0.2c0-0.1,0-0.2,0-0.2l3.1-0.1l-0.7,25.4h-59.6v-3.8h2.3c2,0.1,3.6,0,4.8-0.2
				c1.2-0.2,1.9-0.4,2.1-0.8c0.1-0.1,0.2-0.3,0.3-0.6c0.1-0.3,0.2-0.7,0.2-1v-7.3V77.8v-7.2c-0.1-0.3-0.1-0.6-0.2-0.9
				c-0.1-0.3-0.2-0.5-0.3-0.7c-0.3-0.3-0.8-0.6-1.6-0.7c-0.8-0.2-2.6-0.3-5.3-0.3l-2.3-0.1v-3.8H620.6z"/>
		</g>
	</g>
	<g>
		<path class="st3" d="M661,88.6c-7.3,0.8-8.2,12.1-8.3,13.7c-0.1,1.6,0.6,7.7,4.9,7.7c4.3,0,8.4-6.7,8.7-14
			C666.5,88.7,661,88.6,661,88.6z"/>
		<path class="st3" d="M671.9,63c-18.9,0-34.2,15.3-34.2,34.2c0,18.9,15.3,34.2,34.2,34.2c18.9,0,34.2-15.3,34.2-34.2
			C706.1,78.3,690.8,63,671.9,63z M697.9,76.6l-4.4-3.1C697.7,73.4,697.9,76.6,697.9,76.6z M657.1,111.9c-6.6,0-9.3-4.9-9.3-10
			c0-5,3-14.6,13.5-15.3c0,0,9.4-0.7,9.6,9.4C671.1,106.2,663.7,111.9,657.1,111.9z M694.5,81.2c0,0-1.2-2.3-4.2-2.3
			c-2.9,0-5,2.2-5.9,8.3h7l-0.3,2h-7.1l-3.7,20.5c0,0-0.4,12-11.4,11.4l0.2-1c0,0,4.6-0.5,6-7.4c1.4-6.9,4.3-23.5,4.3-23.5l-3.8-0.1
			l0.5-2.1h3.7c0,0-0.1-10.3,11.4-10.3c3.8,0,4.8,2.3,4.9,3.2L694.5,81.2z"/>
	</g>
	<g>
		<path class="st2" d="M762,96.3c0.1,0.1,0.1,0.1,0.2,0.1c0.1,0,0.1,0,0.2,0.1c3.6,0.5,6.9,1.3,9.8,2.3c3,1,5.5,3.2,7.5,6.5
			c0.8,1.2,1.4,2.6,1.8,4c0.4,1.4,0.6,2.9,0.6,4.4c0,5.7-2,9.8-6.1,12.3c-4,2.5-8.5,4.2-13.3,4.8c-1.5,0.2-3,0.4-4.4,0.5
			c-1.5,0.1-2.9,0.1-4.2,0.1h-34.2v-3.8h2.3c3.5,0.1,5.7-0.2,6.4-0.7c0.7-0.6,1.1-2.2,1.1-4.8v-4.3V77.8v-4.2c0-1.7,0-2.9,0-3.4
			c0-0.5-0.2-0.9-0.4-1.2c0,0,0,0,0,0c0,0,0,0,0,0c-0.1-0.1-0.1-0.1-0.2-0.1c-0.1,0-0.2-0.1-0.3-0.1c-0.4-0.2-1-0.3-2-0.5
			c-0.9-0.1-2.4-0.2-4.5-0.2l-2.3-0.1v-3.8H749c5.1,0.1,9.1,0.3,11.9,0.7c2.9,0.4,5.5,1,7.8,2c3,1.3,5.5,3.2,7.3,5.7
			c1.8,2.5,2.8,5.2,2.8,8.1c0,4.2-1.6,7.8-4.7,10.8C771,94.3,767,96,762,96.3L762,96.3z M739.3,98.8v18.9l-0.1,3.4l0.1,3.2
			c0,1.2,0.2,2.1,0.6,2.5c0.4,0.4,1.3,0.7,2.5,0.7h4.2c1.2,0.1,2.4,0.1,3.5,0.1c1.2,0,2.4,0,3.5-0.1c1.1-0.1,2.3-0.1,3.4-0.2
			c1.2-0.1,2.4-0.2,3.5-0.4c3.5-0.6,6.1-2,7.9-4.2c1.8-2.3,2.7-5.3,2.7-9.1c0-0.2,0-0.4,0-0.6c0-0.2,0-0.4,0-0.7
			c-0.2-2.2-0.8-4.4-1.8-6.4c-1-2-2.5-3.5-4.7-4.5c-0.2-0.1-0.4-0.2-0.6-0.3c-0.2-0.1-0.4-0.2-0.7-0.3c-1.7-0.7-3.6-1.2-5.8-1.4
			c-2.2-0.2-5.6-0.3-10.3-0.3H739.3z M739.3,94.6h9.2c5.2,0.1,9.8-0.6,13.8-1.9c4-1.3,6.1-5.2,6.1-11.5c0-4.8-1.3-8.2-3.9-10.2
			c-2.6-2.1-6.9-3.1-13-3.1l-6.2-0.1c-2.8,0.1-4.5,0.3-5.1,0.6c-0.6,0.3-0.9,1.4-0.9,3.1V74V94.6z"/>
		<path class="st2" d="M827.9,62.8c9.1,0.1,16.8,3.5,23.2,10.3c6.4,6.8,9.6,15,9.6,24.6c0,9.7-3.2,18-9.6,24.7
			c-6.4,6.7-14.1,10.1-23.3,10.1c-9.1,0-16.9-3.4-23.4-10.1c-6.4-6.7-9.7-14.9-9.7-24.5c0-9.8,3.2-18.1,9.6-24.9
			C810.8,66.3,818.7,62.9,827.9,62.8L827.9,62.8z M827.6,67c-7.2,0.1-12.5,2.6-16.1,7.6c-3.6,5-5.4,12.5-5.4,22.5
			c0,10.6,1.8,18.5,5.4,23.8c3.6,5.3,9.1,8,16.3,8c7,0,12.3-2.6,15.9-7.7c3.6-5.2,5.5-12.6,5.5-22.5c0-10.6-1.8-18.5-5.4-23.8
			C840.3,69.7,834.9,67.1,827.6,67L827.6,67z M818.4,47.2c1.5,0.1,2.8,0.6,3.8,1.7c1.1,1.1,1.6,2.3,1.6,3.8c0,1.5-0.5,2.8-1.6,3.8
			c-1.1,1-2.3,1.6-3.8,1.6s-2.8-0.5-3.8-1.6c-1.1-1.1-1.6-2.3-1.6-3.9c0-1.5,0.5-2.8,1.6-3.8C815.6,47.7,816.9,47.2,818.4,47.2z
			 M837.2,47.2c1.5,0.1,2.8,0.6,3.8,1.7c1,1.1,1.6,2.3,1.6,3.8c0,1.5-0.5,2.8-1.6,3.8c-1.1,1-2.3,1.6-3.8,1.6
			c-1.5,0-2.8-0.5-3.8-1.6c-1.1-1.1-1.6-2.3-1.6-3.9c0-1.5,0.5-2.8,1.6-3.8C834.5,47.7,835.7,47.2,837.2,47.2z"/>
		<path class="st2" d="M906.9,97.4c3.5,0.7,6.2,1.5,7.9,2.4c1.7,0.9,3.1,2.3,4.3,4c0.8,1.2,1.4,2.7,2.1,4.5c0.6,1.8,1.3,3.7,1.9,5.6
			c0.1,0.5,0.3,1,0.4,1.4c0.2,0.5,0.3,0.9,0.4,1.4c0.9,2.6,1.7,4.8,2.6,6.6c0.8,1.9,1.8,2.8,2.7,2.8c1.1,0,1.9-0.7,2.5-2
			c0.6-1.3,1.1-3.8,1.5-7.4l3.3-0.1c0,0.3,0,0.4,0,0.6c0,0.1,0,0.3,0,0.5c-0.3,3.7-1.1,7.1-2.5,10.2c-1.4,3-4.4,4.6-9.2,4.6
			c-2,0-3.8-0.4-5.5-1.1c-1.7-0.7-2.9-1.8-3.9-3.2c-1.1-1.5-1.8-3.1-2.3-4.8c-0.5-1.7-0.8-3.4-1-5c-0.1-0.7-0.2-1.3-0.3-2
			c-0.1-0.6-0.1-1.2-0.1-1.9c-0.4-4.3-1.4-8-3.1-11.2c-1.7-3.2-6.6-4.8-14.7-4.8l-4.4-0.1v19.1v7.2c0.1,0.7,0.3,1.2,0.6,1.6
			c0.3,0.4,0.8,0.7,1.4,0.8c1.4,0.2,2.9,0.3,4.3,0.3c1.4,0,2.9,0,4.3,0v3.7h-30v-3.8h2.3c3.6,0.1,5.7-0.2,6.4-0.7
			c0.7-0.5,1-2.2,1-4.9v-4.3V77.8v-7.1c-0.1-0.6-0.3-1.1-0.6-1.6c-0.3-0.4-0.8-0.7-1.5-0.7c-0.6-0.1-1.3-0.1-1.9-0.2
			c-0.7-0.1-1.3-0.1-1.9-0.1c-0.7-0.1-1.3-0.1-2-0.1c-0.6,0-1.3,0-2,0v-3.9h30c1.6,0.1,3.2,0.1,5,0.2c1.8,0.1,3.6,0.3,5.4,0.5
			c4.8,0.6,9.2,2.1,13.1,4.4c4,2.3,6,6.2,6,11.7c0,3-0.9,5.8-2.6,8.2c-1.7,2.4-4.1,4.4-7.2,5.8c-0.6,0.2-1.2,0.5-1.7,0.7
			c-0.5,0.2-1.1,0.4-1.6,0.6c-1.2,0.4-2.6,0.7-4.1,0.9C911,97.2,909.2,97.4,906.9,97.4z M889.6,94.3h8.8c6,0.1,10.9-0.6,14.9-1.8
			c4-1.3,6-5.5,6-12.6c0-5.4-1.8-8.8-5.3-10.1c-3.5-1.3-7.5-2-11.9-2l-7-0.1c-1.5,0.1-2.5,0.1-3,0.1c-0.5,0-0.9,0.2-1.2,0.3
			c-0.1,0.1-0.1,0.1-0.2,0.1c-0.1,0-0.1,0.1-0.2,0.1c-0.4,0.3-0.6,0.6-0.7,1c-0.1,0.4-0.1,1.3-0.1,2.7V94.3z"/>
		<path class="st2" d="M994.4,64.1v24h-2.9c-0.1-0.3-0.3-0.7-0.4-1.1c-0.1-0.4-0.3-0.8-0.4-1.2c-1.6-4.7-3.8-9-6.9-12.9
			c-3-3.9-7.4-5.8-13-5.8c-3.8,0-6.9,1.1-9.3,3.2c-2.4,2.1-3.6,4.8-3.6,8.1c0,4,1.6,6.8,4.9,8.3c3.3,1.6,7,2.9,11.3,4
			c0.6,0.1,1.2,0.3,1.9,0.4c0.6,0.2,1.2,0.3,1.9,0.5c5,1.4,9.5,3.3,13.7,5.9c4.2,2.6,6.2,7.2,6.2,13.9c0,6.2-2.1,11.3-6.2,15.2
			c-4.1,3.9-9.4,5.8-15.9,5.8c-3.4,0-6.5-0.5-9.2-1.4c-2.7-1-5.3-2.5-7.9-4.7c-0.3-0.2-0.5-0.5-0.7-0.6c-0.2-0.2-0.4-0.4-0.7-0.7
			l-4.3,6.2h-3.2v-25.8h3.2c0,0.1,0,0.2,0,0.3c0,0.1,0.1,0.2,0.1,0.3c1.6,5.7,4.2,10.9,7.7,15.6c3.5,4.7,8.7,7.1,15.4,7.1
			c4.3,0,7.8-1.1,10.5-3.5c2.7-2.3,4.1-5.2,4.1-8.8c0-4.4-1.8-7.5-5.3-9.3c-3.5-1.8-7.5-3.3-12-4.5c-0.4-0.1-0.9-0.3-1.3-0.4
			c-0.5-0.1-0.9-0.2-1.4-0.4c-5-1.4-9.5-3.4-13.7-5.8c-4.2-2.4-6.2-6.8-6.2-13.2c0-5.7,1.9-10.4,5.6-14.3c3.7-3.9,8.3-5.8,13.7-5.8
			c2.1,0,3.9,0.2,5.6,0.5c1.7,0.3,3.4,0.9,5,1.7c1.1,0.5,2.1,1.1,3.2,1.9c1.1,0.7,2.2,1.6,3.4,2.5l4-5.5H994.4z"/>
		<path class="st2" d="M1062.5,64.1l1.1,23.8h-3.1c-1.3-6.6-3.3-11.6-5.9-14.9c-2.6-3.3-7.6-5-15-5l-8.9-0.1
			c-2.9,0.1-4.7,0.3-5.3,0.7c-0.6,0.4-0.9,1.7-0.9,3.8v22.2c5.7,0.1,10.3-0.5,13.8-1.7c3.5-1.2,5.7-4.9,6.8-11.3l3.5-0.1v30.9h-3.5
			c-0.4-6.7-2.5-10.6-6.2-11.9c-3.7-1.3-8.5-1.9-14.4-2v24.8c0,2.1,0.3,3.4,0.8,3.8c0.6,0.4,2.1,0.6,4.8,0.6l11.2-0.1
			c3.7,0.1,6.4-0.1,8.2-0.6c1.8-0.5,3.5-1.4,4.9-2.8c2.2-2.1,3.8-4.5,4.8-7.3c1-2.7,1.9-5.6,2.6-8.5c0.1-0.3,0.1-0.6,0.2-0.9
			c0.1-0.3,0.2-0.6,0.2-1c0-0.1,0-0.1,0-0.2c0-0.1,0-0.2,0-0.2l3.1-0.1l-0.8,25.4h-59.6v-3.8h2.3c2,0.1,3.6,0,4.7-0.2
			c1.2-0.2,1.9-0.4,2.1-0.8c0.1-0.1,0.2-0.3,0.3-0.6c0.1-0.3,0.2-0.7,0.2-1v-7.3V77.8v-7.2c-0.1-0.3-0.1-0.6-0.2-0.9
			c-0.1-0.3-0.2-0.5-0.3-0.7c-0.2-0.3-0.8-0.6-1.6-0.7c-0.8-0.2-2.6-0.3-5.3-0.3l-2.3-0.1v-3.8H1062.5z"/>
	</g>
	<path class="st2" d="M426.3,197.3H280c-1.1,0-2-0.9-2-2c0-1.1,0.9-2,2-2h146.3c1.1,0,2,0.9,2,2
		C428.3,196.4,427.4,197.3,426.3,197.3z"/>
	<g>
		<g>
			<path class="st2" d="M527.5,163.5c-0.6,2.6-0.4,1.2-0.6,4.4c-0.6,1.6-0.4,0.8-0.8,2.3l-1,2.1c-0.2,1.4,0,0.5-1.2,2.2
				c-0.6,2.6,0,1.4-1.5,4c-1.7,3-0.8,1.8-2.6,3.6c-1.4,2.5-1.1,1.4-1.4,3.4c-1.3,1.9-2.5,3.4-3.7,5.5c-1.3,1.4-0.8,0.7-1.4,2.1
				c-0.9,0.7-1.1,0.9-1.3,1.1c-0.2,0.2-0.3,0.4-0.8,1.1c-1.2,0.9-1.4,1.1-1.7,1.4c-0.2,0.2-0.3,0.5-0.9,1.4
				c-4.2,4.6-1.3,1.6-9.5,8.4l-2.7,1.5c-0.9,0.3-2.5,1.1-3.8,1.1c-2.3,0-3.9-2.5-4.7-4.3l-0.4-3.8l-0.4-0.4h-0.5
				c-3.3,2.9-2,2.2-3.6,3.1c-1.2,1.7-6.5,4.8-8.8,4.8c-1,0-1.7-0.5-2.6-1.9c-0.3-0.5-0.4-0.9-1.3-2.9c-0.4-2.1-0.5-2.9-0.5-4.4V198
				c-0.5-2.1-0.2-1.3-0.8-2.6c-1.3-1.4-1.4-1.3-1.4-1.9c0-2.2,0.8-2.1,2.3-3.7c1.1-0.5,1.7-0.8,2.1-0.8c0.5,0,0.6,0.4,1,0.7
				c0.1,0,0.3,0,0.5-0.1l3.8-4c0.5-1.6,2.4-4,4.2-7.5l1.2-3.4l0.6-1.9c0.7-2.2,1.6-5.9,1.6-9.2c0-2.3-1.4-4.2-1.4-5.8
				c-0.8-1.3-2.1-2.1-3.9-2.2c-0.7-0.2-1-0.3-1.2-0.3c-0.3,0-0.5,0.2-1.6,0.5c-1.1,0.8-0.5,0.5-1.9,0.7c-3,2.1-3.7,2.3-4.2,2.8
				c-0.4,0.4-0.6,0.7-1.8,2.2c-2.7,3.3-1.3,1.4-4.2,6l-1,1.5c-0.4,1.1,0,0.4-1.4,1.9c-0.5,1.6-1.1,3.7-1.1,5.7
				c0,2.1,0.8,4.7,3.3,4.7c1,0,2-0.3,3.1-1.2h0.2l0.4,0.2c0,0.7-2.1,2.4-2.7,2.6c-1.3,0.1-1.4,0.3-1.9,0.3c-1.6,0-3.1-1.7-3.7-2.9
				c-0.3-1.7,0-1-0.5-2.2l0.2-2v-0.9c1-3.8,0.4-1.9,2.1-5.7c4.6-6.7,6-8.5,12.8-14l2.9-1.7l1.9-0.7c0.7-0.1,1.5-0.2,2.3-0.2
				c2.4,0,5,0.4,5.6,2c1.6,0.7,3,2.7,3.1,5.1c0.1,1.2,0.5,2.1,0.2,2.7c-0.9,1.5-0.3,2.6-1,6c-1.6,4.4-2.5,7.6-4.6,9.4
				c-0.7,3.1-3.1,4.7-6.2,8.6l-2.6,2.3l-0.9,1.3l-1.6,1.4c1.4,4,1.4,2,1.4,6.1l0.1,3.4c0.5,2.4,0,1.4,1.4,3.2
				c0.7,0.5,0.9,0.6,1.1,0.6c0.3,0,0.5-0.1,1.3-0.2l2-1.1l3.8-3.1l3.2-3.7l0.2-2.2c1.6-6.6,1.9-9.4,5.8-14.9c2-2.3,3.8-4.7,6.9-5.5
				c1.5,0.1,1.4,0.3,1.9,0.9c0.3,1,0.4,1.4,0.4,1.7c0,0.5-0.4,0.8-1.2,3.7c-1.3,3-0.7,1.4-2.4,4.2c-3,4.8-0.5,1.2-7.1,10.7l-0.3,1.5
				c0.5,4.2,0.1,2.1,1.4,6.5c1.1,1.4,1.3,1.8,2.3,1.8c0.5,0,1.1-0.1,2-0.3c2.3-1.3,2.9-1.6,3.4-2.1c0.7-0.5,1.6-0.8,4.3-3.7l6.4-6.7
				l4.1-5.8c0.8-1.5,0.6-0.9,0.8-1.9c2.6-3.7,3.3-4.5,3.9-5.4c0.5-0.8,0.7-1.8,2.2-5.3c1.7-3.2,1.1-1.8,1.6-4.2
				c0.9-2.3,1.4-4.1,1.4-6.3c0-0.6-0.1-1.4-0.1-2.2l0.1-2.7c-0.5-0.9-0.8-1.6-1.4-1.6c-0.4,0-0.8,0.3-1.4,1.1
				c-0.4,1.2-0.5,1.3-0.5,1.6c0,0.2,0.1,0.5,0.2,1.3c0.5,0.9,1.1,1.6,1.1,2.3c0,0.5-0.2,1-0.7,1.5c-1.2,0.6-1.3,0.8-1.5,0.8
				c-1.4,0-3.8-1.2-3.8-2.9c0-3.2,4.2-8,7.4-8c2,1,2.3,1.1,2.6,3.5c0.3,0.9,0.4,1.1,0.4,1.4C527.6,160.8,527.5,161.3,527.5,163.5z
				 M492.6,191.2c0,0.4,0.1,0.6,0.2,0.6c0.2,0,0.8-1.3,2.9-4.1c0.7-1.1,4.6-7.1,4.6-9.8c0-0.6-0.3-1.1-0.8-1.2
				c-1.6,0.5-2.1,1.3-3.4,3.6c-0.9,2.1-0.5,1.1-1.4,2.9l-2,6.1L492.6,191.2z"/>
			<path class="st2" d="M529.3,190c0.8,0.5,1,1,0.7,1.5c-0.4,0.5-0.9,1-1.8,1.3c0.6,0.4,0.9,1,1,1.6c0.1,0.7,0,1.4-0.2,2.2
				c-0.2,0.8-0.6,1.6-1,2.5c-0.5,0.9-1,1.7-1.5,2.5c0.7-0.1,1.5-0.4,2.4-1c0.9-0.6,1.7-1.3,2.6-2.2l0.4,0.8
				c-0.8,0.8-1.7,1.6-2.9,2.5c-1.2,0.8-2.4,1.3-3.7,1.4c-1,1-2.2,1.8-3.4,2.4c-1.3,0.6-2.5,0.9-3.6,0.9c-1.1,0-2.2-0.2-3.1-0.7
				c-0.9-0.5-1.5-1.4-1.8-2.6c-0.3-1.1-0.3-2.1-0.1-3.1c0.2-1,0.5-2,1-3c-0.3,0.3-0.6,0.6-1,1c-0.3,0.4-0.7,0.8-1.1,1.2l-0.4-0.8
				c0.7-0.7,1.4-1.5,2.1-2.2c0.7-0.8,1.6-1.6,2.6-2.4c0.9-0.9,1.9-1.8,3-2.5c1.1-0.7,2.2-1.3,3.4-1.6c1.2-0.4,2.3-0.5,3.5-0.5
				C527.3,189.2,528.3,189.5,529.3,190z M515.8,202.7c0.2,0.9,0.5,1.5,1,1.8c0.5,0.3,1.1,0.4,1.7,0.4c0.6-0.1,1.3-0.3,2-0.8
				c0.7-0.4,1.4-1,2.1-1.6c-1-0.5-1.6-1.2-1.8-2.2c-0.1-0.9,0-1.9,0.3-2.9c0.4-1,0.9-1.9,1.6-2.8c0.7-0.9,1.4-1.5,2.1-1.9
				c-0.6-0.5-1.4-0.5-2.6,0c-1.1,0.5-2.2,1.2-3.3,2.3c-1.1,1-1.9,2.2-2.6,3.6C515.7,200.1,515.5,201.4,515.8,202.7z M525.5,193.1
				c-0.6,0.3-1.2,0.9-1.7,1.6c-0.6,0.7-1,1.5-1.2,2.4c-0.3,0.8-0.3,1.6-0.1,2.4c0.2,0.7,0.7,1.3,1.6,1.6c0.5-0.6,1-1.3,1.4-2.1
				c0.4-0.8,0.8-1.5,1-2.2c0.3-0.7,0.4-1.4,0.4-2c0-0.6-0.1-1.1-0.4-1.5C526.2,193.2,525.9,193.2,525.5,193.1z"/>
			<path class="st2" d="M533.9,205.5c-0.3,0.3-0.8,0.6-1.4,0.7c-0.6,0.1-1.2,0.2-1.7,0.2c-0.5,0-0.9-0.1-1.2-0.4
				c-0.3-0.2-0.2-0.6,0.2-1.1c0.8-0.9,1.6-1.9,2.6-3.1c0.9-1.1,1.9-2.3,2.8-3.6c1-1.2,1.9-2.5,2.8-3.8c0.9-1.3,1.7-2.5,2.4-3.7
				c-0.6,0.5-1.4,1.1-2.1,1.9c-0.8,0.7-1.6,1.5-2.4,2.3c-0.8,0.8-1.5,1.5-2.3,2.2c-0.7,0.7-1.3,1.3-1.8,1.9l-0.4-0.8
				c0.4-0.4,1-1.1,1.8-1.9c0.8-0.9,1.7-1.7,2.6-2.6c0.9-0.9,1.8-1.7,2.6-2.6c0.9-0.8,1.5-1.4,2-1.8c0.4-0.3,0.9-0.5,1.4-0.5
				c0.5,0,1,0.1,1.4,0.3c0.4,0.2,0.6,0.5,0.8,0.9c0.1,0.4,0.1,0.9-0.2,1.4c-1.2,2-2.4,3.7-3.6,5.3c-1.2,1.6-2.4,3.1-3.8,4.6
				c2.2-2,4-3.6,5.4-4.7c1.4-1.1,2.6-2,3.6-2.7c0.1-0.2,0.2-0.4,0.3-0.5c0.1-0.2,0.2-0.4,0.4-0.6c0.8-1.2,1.6-2.1,2.3-2.6
				c0.7-0.5,1.3-0.8,1.8-0.8c0.5,0,0.9,0.1,1.2,0.5c0.3,0.3,0.4,0.8,0.4,1.2c0,0.5-0.2,1-0.6,1.5c-0.4,0.5-0.9,0.9-1.8,1.1
				c-0.9,0.3-1.7,0.7-2.5,1c-0.8,1.4-1.2,2.5-1.3,3.4c-0.1,0.9,0,1.5,0.4,1.8c0.4,0.3,1,0.4,1.7,0.1c0.8-0.3,1.6-0.8,2.6-1.7
				l0.4,0.8c-0.9,0.9-1.7,1.4-2.7,1.8c-0.9,0.3-1.8,0.4-2.5,0.1c-0.7-0.2-1.2-0.8-1.5-1.6c-0.3-0.8-0.2-1.9,0.4-3.3
				c-1.4,0.9-3,2.1-4.6,3.5C538.3,201,536.3,203,533.9,205.5z"/>
			<path class="st2" d="M562.8,199.2c-2.2,2.7-4.1,4.6-5.7,5.6c-1.6,1.1-2.9,1.6-3.8,1.7c-0.9,0-1.5-0.3-1.8-1.1
				c-0.3-0.7-0.2-1.6,0.3-2.7c0.7-1.6,1.4-3.2,2.1-4.8c0.7-1.6,1.5-3.2,2.3-4.8c-0.9,1-1.8,2-2.8,3.1c-1,1.1-1.9,2.1-2.7,2.9
				l-0.4-0.8c0.4-0.4,1-1,1.7-1.7c0.7-0.7,1.4-1.5,2.2-2.4c0.8-0.9,1.6-1.9,2.4-2.9c0.8-1,1.6-2.1,2.4-3.2c1.4-2.7,2.9-5.2,4.4-7.7
				c1.5-2.4,2.8-4.6,4.1-6.6c1.3-2,2.4-3.7,3.3-5.1c1-1.4,1.7-2.5,2.1-3.1c0.6-0.9,1.3-1.4,2.1-1.6c0.8-0.2,1.5-0.2,2.1,0
				c0.6,0.2,0.9,0.6,1.1,1.2c0.1,0.6-0.2,1.3-0.9,2.1c-2.5,2.6-4.7,5.3-6.6,7.9c-2,2.7-3.8,5.4-5.5,8.3c-1.7,2.9-3.4,5.9-5,9.2
				c-1.6,3.2-3.3,6.7-5.1,10.4c-0.3,0.7-0.4,1.2-0.2,1.3c0.2,0.1,0.7,0,1.4-0.4c0.7-0.4,1.6-1.1,2.6-2c1.1-0.9,2.3-2.1,3.6-3.6
				L562.8,199.2z"/>
			<path class="st2" d="M582.7,199.2c-2.2,2.7-4.1,4.6-5.6,5.7c-1.5,1.1-2.7,1.6-3.5,1.6c-0.8,0-1.3-0.4-1.4-1.3
				c-0.1-0.9,0.1-2,0.6-3.2c-0.6,0.7-1.3,1.3-2.1,2c-0.8,0.6-1.6,1.2-2.4,1.6c-0.8,0.4-1.7,0.7-2.5,0.8c-0.9,0.1-1.7,0-2.4-0.3
				c-0.6-0.3-1-0.8-1.2-1.4c-0.2-0.6-0.1-1.4,0.1-2.2c0.2-0.8,0.6-1.7,1.1-2.7c0.6-1,1.2-2,2-3c-0.4,0.3-0.8,0.7-1.2,1.1
				c-0.4,0.4-0.8,0.9-1.2,1.3l-0.4-0.8c0.5-0.5,1.1-1.1,1.8-1.8c0.7-0.8,1.6-1.6,2.6-2.4c1-0.8,2.1-1.7,3.2-2.5
				c1.2-0.8,2.4-1.4,3.7-1.9c0.7-0.3,1.6-0.6,2.6-0.8c1-0.2,1.8-0.1,2.4,0.4c2.3-3.7,4.1-6.9,5.6-9.3c1.5-2.5,2.7-4.6,3.7-6.3
				c1-1.7,1.9-3.2,2.7-4.4s1.6-2.4,2.5-3.7c0.6-0.9,1.2-1.4,2-1.6c0.8-0.2,1.5-0.2,2.1,0c0.6,0.2,0.9,0.6,1.1,1.2
				c0.1,0.6-0.2,1.3-1,2.1c-2.5,2.6-4.7,5.3-6.6,7.9c-1.9,2.7-3.8,5.4-5.5,8.3c-1.7,2.9-3.4,5.9-5,9.2c-1.6,3.2-3.3,6.7-5.2,10.4
				c-0.3,0.7-0.4,1.2-0.2,1.3c0.2,0.1,0.6,0,1.2-0.4c0.6-0.4,1.5-1.1,2.5-2c1-0.9,2.2-2.1,3.5-3.6L582.7,199.2z M566.7,204.4
				c0.6-0.1,1-0.2,1.5-0.4c0.4-0.1,0.8-0.4,1.2-0.6c0.4-0.3,0.7-0.6,1.1-1c0.4-0.4,0.8-0.9,1.3-1.5c0.6-0.7,1.2-1.4,1.6-2
				c0.4-0.6,0.8-1.2,1.1-1.9c0.3-0.6,0.7-1.3,1.1-2c0.4-0.7,0.9-1.6,1.4-2.6c0.1-0.8-0.1-1.3-0.7-1.3c-0.6-0.1-1.5,0.2-2.5,1
				c-1.1,0.8-2.3,1.9-3.5,3.3c-1.2,1.4-2.3,2.8-3.1,4.2c-0.9,1.4-1.4,2.6-1.6,3.5C565.3,204.1,565.7,204.5,566.7,204.4z"/>
		</g>
		<g>
			<path class="st2" d="M770.4,183.8c-0.9,1.1-0.5,0.5-0.8,1.9c-2,2.9-1.5,1.7-2.1,3.3c-1.7,1.7-1,0.7-2,3l-2.3,2.8l-2.5,3.2
				l-2.1,1.8l-1.4,1.7c-1.2,0.4-1.7,0.8-2.6,1.6l-2.1,1.4c-4.2,2.2-2.1,1.4-6,2.3c-2.5-0.1-2.9,0-3.2-2.7c0.5-1.3,1.3-3,2.8-3
				c1.1,0,2,0.8,2.9,1.7c0.8,0.2,1.3,0.4,1.8,0.4c0.5,0,1-0.2,2-0.7l4.2-3.7c5.2-6.9,7.9-12,11.5-19.9c0.9-3.6,0.5-1.8,1.4-5.5
				l-0.4-3.1c-0.5-0.6-1.3-0.9-2.2-0.9c-2.2,0-5.1,1.5-6,1.8c-3.1,1.6-1.6,0.8-4.4,2.6c-0.5,0.1-0.7,0.1-0.9,0.2
				c-0.3,0.1-0.5,0.4-1.8,1.3c-3.5,1.7-3.6,2.3-6,5c-1.1,3.6-2,5.6-3.5,9.1c-1.4,3.1-1.5,4.2-3.5,7.2c-0.3,1.6,0.1,1-0.7,2l-1.3,2.3
				c-0.5,2.2-0.1,0.8-1.7,3.9c-0.8,2.6-0.1,1.4-1.9,4l-1.4,1.9l-2.3,4.4l-2.4,3.3c-3.5,4.9-4.2,5.1-9,8.1c-1.4,0.9-2.8,1.3-4,1.3
				c-2.3,0-3.8-2.2-3.8-4.3c0.6-4.9,1.5-7,4.2-11.4l3.1-5c8.3-10.9,9-11.6,17.3-19.9l3.5-3.5c3-1.9,3-4.4,3.4-7.7l-0.1-8.6
				c-0.8-1.6-1.6-1.8-3.2-1.8c-4.2,2-2.4,1.3-5.3,2.3c-2,1.9-2.5,2.1-3.8,2.7l-3,2.4l-4.2,4.9c-1.2,1.4-0.5,0.7-1.8,2.3
				c-0.4,1.3-0.1,0.7-0.9,1.5l-0.5,1.8c0.2,1.6,0,1.5,1.6,2.4c2.5-0.1,2.3-0.1,5.1-2.2l1.2-1.2c0.3-0.4,0.9-1.2,1.4-1.2
				c0.2,0,0.4,0.3,0.4,0.8l-2.4,2.7l-3.3,2.3c-1.7,0.3-1.2-0.1-1.9,0.5c-3-0.7-1.7,0-3.9-2c-0.3-0.4-0.4-0.7-0.4-1.1
				c0-1.5,1.3-3.3,1.8-4.5c5.4-7.7,11-12.9,21.4-15.9c0.7-0.2,1-0.2,1.3-0.2c0.3,0,0.5,0.1,1.7,0.5c3.5,2.8,3.8,4.3,3.8,7.9v1.9
				l-0.2,1.4v0.2l0.2,0.3l1.9-1l5.5-3.2c3.6-2.1,1.9-1.4,4.9-2.3c2.9-1.5,1.6-1.3,3.6-1.5c0.9-0.5,0.9-0.6,1.4-0.6h0.4
				c0.5,0,1.2,0,2.5-0.2c3.9,0,4.3,2.3,4.6,5.6C773.1,178.9,773.4,178.1,770.4,183.8z M741.4,185.7c-0.2,0-0.5,0.4-0.9,0.9l-0.9,0.6
				l-3.9,3.4c-3.2,2.8-2,1.3-3.9,4c-0.5,0.4-0.7,0.5-0.9,0.6c-0.2,0.2-0.3,0.5-1.3,1.7c-1.4,1.1-1.9,1.3-2.2,3.2
				c-2.3,2.3-3,3.3-5.1,6.1c-2.3,3.1-1.3,1.9-2.5,4.1c-1.5,1.7-1.3,0.9-1.4,2.3l-1.1,2.1c-1.1,2.1-2.4,4.2-2.8,8.8
				c0.5,2.1,1.6,3,2.9,3c1.7,0,4.1-1.4,5.7-3.6l4.1-5.5l4.4-8l4.1-8.8l3.5-8.2l0.7-1.8l1.6-3.5C741.5,186,741.5,185.7,741.4,185.7z"
				/>
			<path class="st2" d="M774.3,199.2c-2.2,2.7-4.1,4.6-5.7,5.6c-1.6,1.1-2.9,1.6-3.8,1.7c-0.9,0-1.5-0.3-1.8-1.1
				c-0.3-0.7-0.2-1.6,0.3-2.7c0.7-1.6,1.4-3.2,2.1-4.8c0.7-1.6,1.5-3.2,2.3-4.8c-0.9,1-1.8,2-2.8,3.1c-1,1.1-1.9,2.1-2.7,2.9
				l-0.4-0.8c0.4-0.4,1-1,1.7-1.7c0.7-0.7,1.4-1.5,2.2-2.4c0.8-0.9,1.6-1.9,2.4-2.9c0.8-1,1.6-2.1,2.4-3.2c1.4-2.7,2.9-5.2,4.4-7.7
				c1.5-2.4,2.8-4.6,4.1-6.6c1.3-2,2.4-3.7,3.3-5.1c1-1.4,1.7-2.5,2.1-3.1c0.6-0.9,1.3-1.4,2.1-1.6c0.8-0.2,1.5-0.2,2.1,0
				c0.6,0.2,0.9,0.6,1.1,1.2c0.1,0.6-0.2,1.3-0.9,2.1c-2.5,2.6-4.7,5.3-6.6,7.9c-2,2.7-3.8,5.4-5.5,8.3c-1.7,2.9-3.4,5.9-5,9.2
				c-1.6,3.2-3.3,6.7-5.1,10.4c-0.3,0.7-0.4,1.2-0.2,1.3c0.2,0.1,0.7,0,1.4-0.4c0.7-0.4,1.6-1.1,2.6-2c1.1-0.9,2.3-2.1,3.6-3.6
				L774.3,199.2z"/>
			<path class="st2" d="M795.1,199.2c-2.4,2.6-4.4,4.4-6.1,5.5c-1.7,1.1-2.9,1.6-3.8,1.7c-0.9,0-1.4-0.4-1.6-1.2
				c-0.2-0.8,0-1.9,0.6-3.1c-0.6,0.6-1.2,1.1-1.9,1.8c-0.7,0.6-1.5,1.1-2.3,1.6c-0.8,0.4-1.7,0.7-2.6,0.9c-0.9,0.1-1.7,0.1-2.6-0.3
				c-0.6-0.3-1-0.7-1.1-1.4c-0.1-0.7-0.1-1.5,0.2-2.4c0.3-0.9,0.7-2,1.3-3.1c0.6-1.1,1.4-2.2,2.3-3.3c-1.1,1-2.2,2.1-3.3,3.3
				l-0.4-0.8c0.5-0.5,1.3-1.3,2.3-2.2c1-1,2.2-2,3.4-2.9c1.3-1,2.6-1.9,3.9-2.6c1.4-0.8,2.7-1.3,4-1.4c1.4-0.2,2.4-0.1,3,0.3
				c0.6,0.4,1.1,1,1.3,1.8c0.2-0.2,0.4-0.3,0.7-0.5c0.2-0.1,0.5-0.3,0.7-0.4c0.2-0.1,0.5-0.1,0.9-0.1c0.4,0,0.8,0.1,1.1,0.2
				c0.3,0.1,0.6,0.3,0.7,0.5c0.1,0.2,0.1,0.5-0.2,0.8c-1,1.1-1.9,2-2.6,2.7c-0.7,0.7-1.4,1.4-2,2.1c-0.6,0.7-1.3,1.6-1.9,2.5
				c-0.7,1-1.4,2.3-2.3,3.9c-0.5,0.9-0.6,1.3-0.3,1.5c0.3,0.1,0.8,0,1.6-0.4c0.8-0.4,1.8-1.2,2.9-2.1c1.1-1,2.4-2.2,3.6-3.6
				L795.1,199.2z M778.1,204.4c1-0.1,2-0.5,2.9-1.1c0.9-0.6,1.8-1.4,2.6-2.4c0.8-0.9,1.6-2,2.4-3.1c0.8-1.1,1.6-2.2,2.4-3.2
				c0.1-0.6,0.3-1.2,0.5-1.7c0.2-0.5,0.2-1-0.2-1.5c-0.4-0.5-1.1-0.5-2-0.1c-0.9,0.4-1.8,1.2-2.9,2.2c-1,1-2,2.1-3,3.4
				c-1,1.3-1.8,2.5-2.4,3.6c-0.6,1.1-1,2.1-1.2,2.8C777.1,204.2,777.4,204.5,778.1,204.4z"/>
			<path class="st2" d="M800.5,186.3c0.1-0.3,0.2-0.6,0.5-0.7c0.2-0.1,0.7-0.1,1.4,0c0.5,0.1,0.9,0.1,1.2,0.2c0.4,0,0.8,0.1,1.3,0.1
				c0.9-1.3,1.8-2.7,2.7-4.1c0.9-1.5,2.1-3.3,3.6-5.6c0.6-0.8,1.2-1.3,2-1.6c0.8-0.3,1.4-0.3,1.9-0.1c0.5,0.2,0.8,0.6,0.9,1.1
				c0.1,0.6-0.3,1.3-1.1,2.1c-1,1-2,2.2-3,3.5c-1,1.3-2.1,2.8-3.3,4.4c0.8,0,1.5-0.1,2.3-0.2c0.7-0.1,1.4-0.1,2-0.1
				c0.6,0,1.1,0,1.5,0.1c0.4,0.1,0.5,0.2,0.5,0.4c0,0.5-0.1,0.8-0.4,0.9c-0.3,0.1-0.7,0.1-1.1,0c-0.8-0.1-1.7-0.1-2.7-0.2
				c-1,0-1.9-0.1-2.7-0.1c-1.1,1.5-2.1,3.1-3.3,4.8c-1.1,1.7-2.3,3.6-3.4,5.6c-0.2,0.4-0.5,0.9-1,1.7c-0.4,0.7-0.9,1.5-1.3,2.3
				c-0.4,0.8-0.8,1.5-1,2.2c-0.2,0.7-0.3,1.2-0.1,1.5c0.2,0.3,0.6,0.4,1.3,0.1c0.7-0.2,1.8-0.9,3.3-1.9c0.7-0.5,1.5-1.1,2.4-1.9
				c0.9-0.7,1.8-1.6,2.7-2.6l0.4,0.8c-2.3,2.4-4.4,4.2-6.3,5.4c-1.9,1.2-3.5,1.8-4.8,1.9c-1.6,0.1-2.6-0.4-2.8-1.4
				c-0.3-1,0-2.2,0.9-3.7c0.7-1.2,1.6-2.6,2.6-4c1-1.4,2-2.8,2.9-4c-0.6,0.6-1.1,1.2-1.5,1.6c-0.4,0.4-0.7,0.8-1.1,1.2
				c-0.3,0.4-0.7,0.8-1.1,1.3c-0.4,0.5-1,1.1-1.7,1.8l-0.4-0.8c1.1-1.2,2.2-2.4,3.3-3.5c1.1-1.1,2.2-2.4,3.3-3.7
				c0.2-0.2,0.4-0.5,0.7-0.9c0.3-0.4,0.6-0.8,1-1.2c0.3-0.4,0.6-0.8,0.9-1.2c0.3-0.4,0.5-0.7,0.7-1c-1.3,0.1-2.3,0.1-3,0.1
				C800.8,186.9,800.5,186.7,800.5,186.3z"/>
			<path class="st2" d="M833.8,174c-1.4,1.5-2.7,2.9-3.9,4.1c-1.2,1.2-2.4,2.3-3.5,3.4c-1.1,1.1-2.2,2.1-3.3,3.2
				c-1.1,1.1-2.2,2.2-3.5,3.4c-1.3,2.1-2.7,4.3-4.1,6.7c-1.4,2.4-2.7,4.7-4,6.9c0,0.8,0.2,1.3,0.6,1.6c0.5,0.3,1.1,0.3,2,0.1
				c0.9-0.2,1.9-0.7,3-1.6c1.2-0.8,2.5-2,3.9-3.5l0.4,0.8c-1.2,1.3-2.4,2.4-3.5,3.3c-1.1,1-2.2,1.7-3.2,2.2c-1,0.5-1.9,0.7-2.7,0.7
				c-0.8,0-1.4-0.4-1.9-1.1c-2.4,4-4.3,7.4-5.8,10c-1.5,2.7-2.8,5-3.8,7c-1,2-1.8,4-2.5,5.7c-0.6,1.8-1.3,3.8-1.9,6.1
				c-0.3,0.9-0.7,1.6-1.3,1.9c-0.6,0.3-1.2,0.4-1.8,0.2c-0.6-0.2-1-0.6-1.3-1.2c-0.3-0.6-0.2-1.5,0.3-2.5c1-2.3,2.3-4.9,3.9-7.7
				c1.6-2.8,3.3-5.8,5.2-9c1.9-3.2,3.9-6.6,6-10.1c2.1-3.5,4.2-7.2,6.4-11c-0.3,0.3-0.7,0.7-1.1,1.2c-0.4,0.4-0.9,0.9-1.3,1.4
				c-0.5,0.5-0.9,1-1.4,1.5c-0.5,0.5-0.9,0.9-1.3,1.3l-0.4-0.8c0.9-0.9,2-2,3.3-3.3c1.3-1.3,2.7-2.8,4.1-4.4
				c2.1-3.7,3.9-6.8,5.4-9.2c1.5-2.5,2.8-4.6,3.9-6.3c1.1-1.7,2.1-3.2,3-4.4c0.9-1.2,1.8-2.4,2.7-3.5c1.4-1.7,2.7-2.7,4.1-3.1
				c1.4-0.4,2.4-0.2,3,0.5s0.7,1.9,0.3,3.5C837.2,169.7,835.9,171.7,833.8,174z M821.6,184.7c1.3-1.4,2.8-3,4.3-4.8
				c1.6-1.8,3.5-3.9,5.7-6.4c1.4-1.5,2.3-2.8,2.7-3.7c0.4-0.9,0.6-1.5,0.3-1.8c-0.2-0.2-0.8-0.1-1.6,0.5c-0.8,0.6-1.8,1.6-3,3.2
				c-0.4,0.5-0.9,1.2-1.5,2.1c-0.6,0.9-1.4,2-2.1,3.2c-0.8,1.2-1.6,2.4-2.4,3.8C823.1,182.1,822.3,183.4,821.6,184.7z"/>
			<path class="st2" d="M838.8,190c0.8,0.5,1,1,0.7,1.5c-0.4,0.5-0.9,1-1.8,1.3c0.6,0.4,0.9,1,1,1.6c0.1,0.7,0,1.4-0.2,2.2
				c-0.2,0.8-0.6,1.6-1,2.5c-0.5,0.9-1,1.7-1.5,2.5c0.7-0.1,1.5-0.4,2.4-1c0.9-0.6,1.7-1.3,2.6-2.2l0.4,0.8
				c-0.8,0.8-1.7,1.6-2.9,2.5c-1.2,0.8-2.4,1.3-3.7,1.4c-1,1-2.2,1.8-3.4,2.4c-1.3,0.6-2.5,0.9-3.6,0.9c-1.1,0-2.2-0.2-3.1-0.7
				c-0.9-0.5-1.5-1.4-1.8-2.6c-0.3-1.1-0.3-2.1-0.1-3.1c0.2-1,0.5-2,1-3c-0.3,0.3-0.6,0.6-1,1c-0.3,0.4-0.7,0.8-1.1,1.2l-0.4-0.8
				c0.7-0.7,1.4-1.5,2.1-2.2c0.7-0.8,1.6-1.6,2.6-2.4c0.9-0.9,1.9-1.8,3-2.5c1.1-0.7,2.2-1.3,3.4-1.6c1.2-0.4,2.3-0.5,3.5-0.5
				C836.8,189.2,837.9,189.5,838.8,190z M825.4,202.7c0.2,0.9,0.5,1.5,1,1.8c0.5,0.3,1.1,0.4,1.7,0.4c0.6-0.1,1.3-0.3,2-0.8
				c0.7-0.4,1.4-1,2.1-1.6c-1-0.5-1.6-1.2-1.8-2.2c-0.1-0.9,0-1.9,0.3-2.9c0.4-1,0.9-1.9,1.6-2.8c0.7-0.9,1.4-1.5,2.1-1.9
				c-0.6-0.5-1.4-0.5-2.6,0c-1.1,0.5-2.2,1.2-3.3,2.3c-1.1,1-1.9,2.2-2.6,3.6C825.3,200.1,825.1,201.4,825.4,202.7z M835.1,193.1
				c-0.6,0.3-1.2,0.9-1.7,1.6c-0.6,0.7-1,1.5-1.2,2.4c-0.3,0.8-0.3,1.6-0.1,2.4c0.2,0.7,0.7,1.3,1.6,1.6c0.5-0.6,1-1.3,1.4-2.1
				c0.4-0.8,0.8-1.5,1-2.2c0.3-0.7,0.4-1.4,0.4-2c0-0.6-0.1-1.1-0.4-1.5C835.7,193.2,835.4,193.2,835.1,193.1z"/>
			<path class="st2" d="M843.4,205.5c-0.3,0.3-0.8,0.6-1.4,0.7c-0.6,0.1-1.2,0.2-1.7,0.2c-0.5,0-0.9-0.1-1.2-0.4
				c-0.3-0.2-0.2-0.6,0.2-1.1c0.8-0.9,1.6-1.9,2.6-3.1c0.9-1.1,1.9-2.3,2.8-3.6c1-1.2,1.9-2.5,2.8-3.8c0.9-1.3,1.7-2.5,2.4-3.7
				c-0.6,0.5-1.4,1.1-2.1,1.9c-0.8,0.7-1.6,1.5-2.4,2.3c-0.8,0.8-1.5,1.5-2.3,2.2c-0.7,0.7-1.3,1.3-1.8,1.9l-0.4-0.8
				c0.4-0.4,1-1.1,1.8-1.9c0.8-0.9,1.7-1.7,2.6-2.6c0.9-0.9,1.8-1.7,2.6-2.6c0.9-0.8,1.5-1.4,2-1.8c0.4-0.3,0.9-0.5,1.4-0.5
				c0.5,0,1,0.1,1.4,0.3c0.4,0.2,0.6,0.5,0.8,0.9c0.1,0.4,0.1,0.9-0.2,1.4c-1.2,2-2.4,3.7-3.6,5.3c-1.2,1.6-2.4,3.1-3.8,4.6
				c2.2-2,4-3.6,5.4-4.7c1.4-1.1,2.6-2,3.6-2.7c0.1-0.2,0.2-0.4,0.3-0.5c0.1-0.2,0.2-0.4,0.4-0.6c0.8-1.2,1.6-2.1,2.3-2.6
				s1.3-0.8,1.8-0.8c0.5,0,0.9,0.1,1.2,0.5c0.3,0.3,0.4,0.8,0.4,1.2c0,0.5-0.2,1-0.6,1.5c-0.4,0.5-0.9,0.9-1.8,1.1
				c-0.9,0.3-1.7,0.7-2.5,1c-0.8,1.4-1.2,2.5-1.3,3.4c-0.1,0.9,0,1.5,0.4,1.8c0.4,0.3,1,0.4,1.7,0.1c0.8-0.3,1.6-0.8,2.6-1.7
				l0.4,0.8c-0.9,0.9-1.7,1.4-2.7,1.8c-0.9,0.3-1.8,0.4-2.5,0.1c-0.7-0.2-1.2-0.8-1.5-1.6c-0.3-0.8-0.2-1.9,0.4-3.3
				c-1.4,0.9-3,2.1-4.6,3.5C847.8,201,845.8,203,843.4,205.5z"/>
			<path class="st2" d="M859.9,198.4c0.4-0.4,1-1.1,1.8-1.9c0.8-0.9,1.7-1.7,2.6-2.6c0.9-0.9,1.8-1.7,2.6-2.6c0.9-0.8,1.5-1.4,2-1.8
				c0.4-0.3,0.9-0.5,1.3-0.5c0.5,0,0.9,0.1,1.2,0.3c0.3,0.2,0.5,0.5,0.6,0.9c0.1,0.4,0,0.9-0.3,1.4c-0.3,0.4-0.5,0.8-0.7,1.2
				c-0.2,0.4-0.5,0.7-0.7,1.1c1.2-1.5,2.4-2.7,3.7-3.7c1.3-1,2.7-1.3,4.3-0.9c0.4,0.1,0.6,0.3,0.7,0.7c0.1,0.4,0,0.9-0.1,1.4
				c-0.2,0.6-0.4,1.2-0.8,1.9c-0.4,0.7-0.8,1.5-1.2,2.3c1.1-1.2,2.2-2.3,3.3-3.2c1-0.9,2-1.7,2.9-2.2s1.7-0.9,2.5-1
				c0.8-0.1,1.4,0.1,2,0.6c0.4,0.3,0.5,0.8,0.4,1.5c-0.1,0.7-0.4,1.4-0.9,2.3c-0.4,0.8-1,1.7-1.7,2.6c-0.7,0.9-1.3,1.8-1.9,2.6
				c-0.6,0.8-1.2,1.6-1.7,2.2c-0.5,0.7-0.8,1.1-1,1.4c-0.2,0.4-0.2,0.6,0,0.8c0.2,0.1,0.5,0.1,1.1-0.2c0.5-0.3,1.3-0.8,2.2-1.5
				c0.9-0.7,2.1-1.8,3.4-3.1l0.4,0.8c-0.6,0.7-1.4,1.5-2.3,2.4c-0.9,0.9-1.9,1.6-2.9,2.4c-1,0.7-2,1.3-2.9,1.8
				c-0.9,0.4-1.7,0.6-2.4,0.5c-0.6-0.1-1-0.3-1.2-0.7c-0.2-0.4-0.1-1,0.2-1.8c0.2-0.5,0.6-1.1,1.1-1.9c0.5-0.8,1-1.6,1.6-2.5
				c0.6-0.9,1.2-1.8,1.9-2.7c0.7-0.9,1.2-1.8,1.8-2.5c0.5-0.6,0.8-1.2,1-1.7c0.2-0.5,0.3-0.8,0.1-0.9c-0.1-0.1-0.4,0-0.9,0.3
				c-0.5,0.3-1.1,0.9-2,1.8c-0.6,0.6-1.4,1.4-2.3,2.6c-0.9,1.1-1.9,2.3-3,3.5c-1.1,1.2-2.1,2.4-3.1,3.6c-1,1.2-1.9,2.1-2.6,2.8
				c-0.1,0.1-0.4,0.2-0.8,0.3c-0.4,0.1-0.8,0.1-1.1,0.1c-0.4,0-0.6-0.1-0.9-0.3c-0.2-0.1-0.2-0.3,0-0.6c0.4-0.6,1-1.3,1.6-2.1
				s1.3-1.8,2-2.8c0.7-1,1.4-2,2.1-3.1c0.7-1,1.3-2,1.8-2.8c0.5-0.8,0.9-1.5,1.1-2.1c0.3-0.6,0.3-0.9,0.1-1
				c-0.5-0.3-1.1-0.1-1.8,0.4c-0.7,0.6-1.5,1.3-2.4,2.3c-0.9,1-1.8,2.1-2.8,3.3c-1,1.2-2,2.4-3.1,3.6c-1,1.2-2.1,2.3-3.2,3.2
				c-1.1,0.9-2.2,1.6-3.2,2c-0.2,0.1-0.4,0.1-0.7,0.1c-0.3,0-0.5-0.1-0.7-0.2c-0.2-0.1-0.3-0.3-0.4-0.5c0-0.2,0.1-0.5,0.4-0.8
				c0.8-0.8,1.6-1.8,2.6-3c1-1.1,1.9-2.3,2.9-3.6c1-1.3,1.9-2.5,2.8-3.8s1.7-2.5,2.4-3.7c-0.6,0.5-1.3,1.1-2,1.8
				c-0.8,0.7-1.6,1.5-2.4,2.2c-0.8,0.8-1.6,1.5-2.3,2.3c-0.7,0.7-1.3,1.4-1.8,1.9L859.9,198.4z"/>
		</g>
		<g>
			<path class="st2" d="M676.5,162.7c2,1,2.8,2.1,2.8,3.3c0,1.6-1.4,3.2-3.2,5c-0.9,0.4-1.2,0.5-1.4,0.6c-0.3,0.2-0.5,0.4-1.4,1.2
				c-3.3,1.5-1.8,1.1-4.3,1.8c-2,1.1-0.9,0.7-3.4,1.1c-2.1,1.3-0.5,0.4-5.4,1.3c-1,0.4-1.2,0.5-1.5,0.5c-0.5,0-0.6-0.5-2.8-0.5
				l-1.4,1.3c-1.7,3.4-0.7,2-2.8,4.5c-1.3,2.7-2.5,5.4-3.9,8c-0.8,2.8-0.3,1.5-1.6,4c-0.4,1.4-0.6,3.3-0.6,5.1
				c0,1.5,0.3,3.2,0.5,4.4c0.6,1.4,1.6,3.3,3.2,3.3c1.8,0,3.2-0.4,3.9-0.7c4.4-0.8,5.4-3.6,7-4.1c2.7-2.6,5.8-5.3,7.1-7
				c1.2-1.6,2.3-5.1,3.7-7.1c1.1-1.9,1.9-4.1,2.2-5.1c0.8-2.7,1-4,1.1-7l-0.4-0.8c0.1-0.6,0.4-1.7,0.7-1.7c0.2,0,0.5,0.3,0.7,1.1
				c0.4,1.3,0.5,2.2,0.5,3.1c0,1.8-0.4,3.3-1.1,6l-1.1,2.2c-1.7,3.5-1.2,2.3-3.3,6c-2.3,3.1-0.4,1.4-2.7,4.6c-2.2,2.4-1.2,1.4-3,3.1
				c-3.9,3.6-4.9,5.3-10,7.7c-3.4,1.5-4.1,2.2-7,2.2c-2.5,0-5.4-0.9-6-3.6l-0.6-1.4l-0.3-5.1c0.3-1.7,0.3-3.2,1.1-4.7
				c0.3-1.6,1.5-3.9,2.3-6c2.3-4.2,3.4-5.3,4.1-6.4c0.7-1.4,1-2.4,3.4-5.8c-0.3-1.5-1-0.8-3.8-2.1c-1.4-0.4-2.9-2.5-2.9-4
				c0-1.2,0-2.3,1-3.3c0-1.2,1.5-1.8,2.3-2.6c1.5-1.6,5.4-3.3,7.3-3.3c0.9,0,2.8,0.2,2.8,0.7c0,0.5-0.4,0.8-1.4,0.8
				c-0.5,0-0.5-0.1-0.7-0.1c-0.1,0-0.3-0.1-0.5-0.1c-0.1,0-0.9-0.1-1,0c-2.3,0.8-5,2-6.1,5c-0.1,0.7,0.1,1.6,0.1,2.1
				c0,1.6,1.5,3.2,4,4.2h1.1c5.3-4.9,2.5-2.5,8.3-7c5.9-3.3,6.5-4.4,12.9-4.4H676.5z M673.7,164.2c-0.6,0-1.3,0.3-3.3,0.8
				c-3.7,1.1-5.8,3.5-8.8,5.5c-2.1,2-1.2,1.2-2.7,2.5c-0.1,0-1.7,1.3-1.7,1.8c0,0.1,0.1,0.4,0.3,0.5c2.3,0.4,3.2,0.1,3.7,0.1
				c0.4,0,0.8-0.1,1.9-0.1c6.4-1.8,8.6-2,13.2-6.1c0.8-0.9,1.2-1.8,1.2-2.5C677.4,165.2,676.1,164.2,673.7,164.2z"/>
			<path class="st2" d="M684.4,199.1c-0.1-0.5-0.3-0.6-0.5-0.6c-0.5,0-1,0.5-1.4,0.8l-4.7,3.7c-1.3,1-4.1,3.9-5.8,3.9l-0.2-0.2
				l0.1-0.7l2.9-5.5c0.4-0.6,0.5-1.1,0.5-1.4c0-0.5-0.3-0.7-0.7-0.7c-0.6,0-1.6,0.4-2.6,1l-2.6,1.6c-0.8,0.5-1.4,0.7-1.8,0.7
				c-0.1,0-0.2,0-0.2-0.2c0-0.1,0.1-0.2,0.2-0.4l2.6-1.9c2.4-1.8,4.9-3.1,7.8-4c1,0,1.3,0.5,1.3,1.2c0,1.3-0.9,3-1.1,3.6l-0.5,1.1
				l0.2,0.2l3.1-2.5c1.9-1.5,4.4-3.2,6.9-3.2c0.4,0.5,0.5,0.8,0.5,1.4c0,1.2-0.8,2.5-1.2,3.4c-0.5,0.7-1.4,1.8-1.4,2.6
				c0,0.3,0.1,0.5,0.3,0.7c0.5-0.1,0.8-0.1,1.1-0.1c0.5-0.2,1.1-0.6,4.1-2.3c1.1-0.6,1.7-0.9,1.9-0.9l0.2,0.1c0,0.4-1,1.4-1.9,2
				c-3,2.2-5.3,3.9-8.5,4c-0.6-0.5-0.8-0.8-0.8-1.3c0-0.5,0.3-1,0.5-1.7L684.4,199.1z"/>
			<path class="st2" d="M698.5,204.5c3-0.5,3.4-0.5,7.6-3.2c1-0.6,1.6-0.9,1.8-0.9l0.1,0.1c0,0.3-0.9,1.2-2,1.8l-1.1,0.8
				c-3.2,2.4-5.8,3.6-9.8,3.8c-1.6-0.5-1.6-1-1.7-2.7c1.2-4,4.1-6.5,7.3-8.5c1.1-0.6,2.4-1.8,3.4-0.5c0,2.7-1.1,4.2-3.9,6.3
				l-1.6,1.2c-0.5,0.2-1.3,0.9-0.9,1.5L698.5,204.5z M697.3,202.6L697.3,202.6c1.8-1.3,2.9-2.4,4.2-4.2c0.4-0.7,0.2-1.2-0.5-1.2
				c-0.5,0-1.3,0.4-2.2,1.1c-0.8,0.7-1.4,1.6-1.9,2.7l0.2,1.4L697.3,202.6z"/>
		</g>
		<g>
			<path class="st2" d="M596.1,202.7c-0.5,0.9-0.7,1.4-0.5,1.8c0.1,0.3,0.6,0.3,1.3,0c0.7-0.3,1.7-0.9,3-1.9c1.3-1,2.7-2.4,4.4-4.2
				l0.4,0.8c-1.1,1.2-2.2,2.3-3.1,3.2s-1.7,1.6-2.5,2.2c-0.7,0.6-1.4,1-2.1,1.3c-0.7,0.3-1.3,0.5-2,0.5c-1.6,0.1-2.6-0.4-2.8-1.3
				c-0.3-1,0-2.2,0.8-3.7c0.3-0.6,0.8-1.4,1.3-2.2c0.6-0.8,1.1-1.7,1.8-2.6c0.6-0.9,1.2-1.8,1.8-2.6c0.6-0.8,1.1-1.6,1.5-2.2
				c-0.8,0.8-1.5,1.4-1.9,1.9c-0.5,0.5-1,1-1.4,1.5c-0.4,0.5-0.9,1.1-1.5,1.7c-0.6,0.6-1.3,1.3-2.2,2.2l-0.4-0.8
				c1.5-1.6,3-3.2,4.3-4.8c1.4-1.6,2.8-3.1,4.5-4.5c0.4-0.3,0.9-0.5,1.7-0.6c0.7-0.1,1.4-0.1,2,0.1c0.6,0.1,1,0.4,1.2,0.8
				c0.2,0.4-0.1,0.9-0.7,1.4c-0.8,0.7-1.5,1.6-2.3,2.5c-0.8,1-1.6,2-2.3,3.1c-0.7,1.1-1.5,2.2-2.2,3.3
				C597.4,200.7,596.8,201.8,596.1,202.7z M608.8,177.2c0.4-0.4,1-0.6,1.6-0.7c0.7-0.1,1.2-0.1,1.7,0.1c0.5,0.2,0.8,0.5,0.8,0.9
				c0.1,0.4-0.3,1-1.1,1.7c-0.2,0.1-0.4,0.4-0.8,0.8c-0.3,0.4-0.7,0.8-1.2,1.2c-0.4,0.4-0.9,0.7-1.4,1c-0.5,0.2-0.9,0.2-1.4,0
				c-0.9-0.4-1.1-1.1-0.7-2C606.9,179.2,607.6,178.2,608.8,177.2z"/>
			<path class="st2" d="M620.5,199.1c-0.1-0.5-0.3-0.6-0.5-0.6c-0.5,0-1,0.5-1.4,0.8l-4.7,3.7c-1.3,1-4.1,3.9-5.8,3.9l-0.2-0.2
				l0.1-0.7l2.9-5.5c0.4-0.6,0.5-1.1,0.5-1.4c0-0.5-0.3-0.7-0.7-0.7c-0.6,0-1.6,0.4-2.6,1l-2.6,1.6c-0.8,0.5-1.4,0.7-1.8,0.7
				c-0.1,0-0.2,0-0.2-0.2c0-0.1,0.1-0.2,0.2-0.4l2.6-1.9c2.4-1.8,4.9-3.1,7.8-4c1,0,1.3,0.5,1.3,1.2c0,1.3-0.9,3-1.1,3.6l-0.5,1.1
				l0.2,0.2l3.1-2.5c1.9-1.5,4.4-3.2,6.9-3.2c0.4,0.5,0.5,0.8,0.5,1.4c0,1.2-0.8,2.5-1.2,3.4c-0.5,0.7-1.4,1.8-1.4,2.6
				c0,0.3,0.1,0.5,0.3,0.7c0.5-0.1,0.8-0.1,1.1-0.1c0.5-0.2,1.1-0.6,4.1-2.3c1.1-0.6,1.7-0.9,1.9-0.9l0.2,0.1c0,0.4-1,1.4-1.9,2
				c-3,2.2-5.3,3.9-8.5,4c-0.6-0.5-0.8-0.8-0.8-1.3c0-0.5,0.3-1,0.5-1.7L620.5,199.1z"/>
		</g>
	</g>
	<path class="st2" d="M1063.8,197.3H921.2c-1.1,0-2-0.9-2-2c0-1.1,0.9-2,2-2h142.6c1.1,0,2,0.9,2,2
		C1065.8,196.4,1064.9,197.3,1063.8,197.3z"/>
</g>
</svg>
